<?xml version="1.0" encoding="utf-8"?>
<svg xmlns="http://www.w3.org/2000/svg" xmlns:xlink="http://www.w3.org/1999/xlink" width="290" height="170" viewBox="0 0 1160 680">
<defs>
  <clipPath id="clip860">
    <rect x="0" y="0" width="1160" height="680"/>
  </clipPath>
</defs>
<path clip-path="url(#clip860)" d="
M0 680 L1160 680 L1160 1.13687e-13 L0 1.13687e-13  Z
  " fill="#ffffff" fill-rule="evenodd" fill-opacity="1"/>
<defs>
  <clipPath id="clip861">
    <rect x="232" y="0" width="813" height="680"/>
  </clipPath>
</defs>
<defs>
  <clipPath id="clip862">
    <rect x="89" y="47" width="945" height="495"/>
  </clipPath>
</defs>
<path clip-path="url(#clip860)" d="
M89.5825 541.279 L1034.02 541.279 L1034.02 47.2441 L89.5825 47.2441  Z
  " fill="#ffffff" fill-rule="evenodd" fill-opacity="1"/>
<polyline clip-path="url(#clip860)" style="stroke:#000000; stroke-linecap:butt; stroke-linejoin:round; stroke-width:4; stroke-opacity:1; fill:none" points="
  89.5825,541.279 1034.02,541.279 
  "/>
<polyline clip-path="url(#clip860)" style="stroke:#000000; stroke-linecap:butt; stroke-linejoin:round; stroke-width:4; stroke-opacity:1; fill:none" points="
  89.5825,47.2441 1034.02,47.2441 
  "/>
<polyline clip-path="url(#clip860)" style="stroke:#000000; stroke-linecap:butt; stroke-linejoin:round; stroke-width:4; stroke-opacity:1; fill:none" points="
  116.312,541.279 116.312,522.382 
  "/>
<polyline clip-path="url(#clip860)" style="stroke:#000000; stroke-linecap:butt; stroke-linejoin:round; stroke-width:4; stroke-opacity:1; fill:none" points="
  413.303,541.279 413.303,522.382 
  "/>
<polyline clip-path="url(#clip860)" style="stroke:#000000; stroke-linecap:butt; stroke-linejoin:round; stroke-width:4; stroke-opacity:1; fill:none" points="
  710.295,541.279 710.295,522.382 
  "/>
<polyline clip-path="url(#clip860)" style="stroke:#000000; stroke-linecap:butt; stroke-linejoin:round; stroke-width:4; stroke-opacity:1; fill:none" points="
  1007.29,541.279 1007.29,522.382 
  "/>
<path clip-path="url(#clip860)" d="M89.8436 574.201 Q89.8436 567.695 91.4864 564.15 Q93.7776 558.876 99.1815 558.876 Q100.327 558.876 101.516 559.2 Q102.726 559.503 104.239 560.691 Q105.774 561.88 106.704 563.826 Q108.476 567.587 108.476 574.201 Q108.476 580.664 106.833 584.187 Q104.434 589.332 99.1382 589.332 Q97.1496 589.332 95.1178 588.316 Q93.1075 587.3 91.8322 584.857 Q89.8436 581.204 89.8436 574.201 M93.5182 573.661 Q93.5182 580.34 93.9938 582.999 Q94.5342 585.873 96.004 587.127 Q97.4955 588.359 99.1382 588.359 Q100.911 588.359 102.381 587.041 Q103.872 585.7 104.326 582.826 Q104.823 579.994 104.801 573.661 Q104.801 567.5 104.369 565.036 Q103.786 562.161 102.229 561.016 Q100.695 559.848 99.1382 559.848 Q98.5546 559.848 97.9278 560.021 Q97.3226 560.194 96.4363 560.691 Q95.5501 561.189 94.8584 562.421 Q94.1883 563.653 93.8641 565.512 Q93.5182 567.911 93.5182 573.661 Z" fill="#000000" fill-rule="evenodd" fill-opacity="1" /><path clip-path="url(#clip860)" d="M114.68 587.646 Q114.01 586.933 114.01 586.003 Q114.01 585.074 114.68 584.404 Q115.35 583.712 116.366 583.712 Q117.338 583.712 117.987 584.36 Q118.657 584.987 118.657 586.025 Q118.657 587.041 117.944 587.711 Q117.252 588.359 116.366 588.359 Q115.35 588.359 114.68 587.646 Z" fill="#000000" fill-rule="evenodd" fill-opacity="1" /><path clip-path="url(#clip860)" d="M124.407 568.84 Q124.407 566.484 125.098 564.885 Q125.79 563.264 127.238 561.664 Q129.897 558.876 133.745 558.876 Q135.387 558.876 136.836 559.567 Q138.305 560.259 139.689 561.837 Q141.094 563.393 141.937 566.484 Q142.78 569.554 142.78 573.79 Q142.78 580.642 139.451 584.987 Q136.144 589.332 131.669 589.332 Q128.838 589.332 127.173 588.057 Q125.509 586.76 125.509 584.555 Q125.509 583.409 126.158 582.934 Q126.806 582.437 127.541 582.437 Q128.341 582.437 128.968 582.977 Q129.594 583.496 129.594 584.468 Q129.594 585.268 129.076 585.895 Q128.578 586.5 127.282 586.5 Q128.557 588.1 131.626 588.1 Q132.729 588.1 133.831 587.603 Q134.933 587.084 136.122 585.852 Q137.333 584.598 138.068 581.983 Q138.803 579.367 138.803 575.693 L138.803 574.288 Q137.03 578.719 133.269 578.719 Q129.551 578.719 126.979 575.865 Q124.407 573.012 124.407 568.84 M128.384 568.884 Q128.384 573.272 129.184 574.893 Q130.545 577.681 133.312 577.681 Q136.014 577.681 137.354 575.282 Q138.716 572.861 138.716 569.727 Q138.716 565.382 138.003 563.48 Q136.684 559.978 133.745 559.978 Q130.826 559.978 129.313 562.766 Q128.384 564.409 128.384 568.884 Z" fill="#000000" fill-rule="evenodd" fill-opacity="1" /><path clip-path="url(#clip860)" d="M387.873 563.091 L387.873 561.707 Q393.19 561.707 395.935 558.876 Q396.692 558.876 396.822 559.049 Q396.951 559.222 396.951 560.021 L396.951 584.857 Q396.951 586.176 397.6 586.587 Q398.248 586.997 401.08 586.997 L402.485 586.997 L402.485 588.359 Q400.928 588.229 395.308 588.229 Q389.688 588.229 388.154 588.359 L388.154 586.997 L389.559 586.997 Q392.347 586.997 393.017 586.608 Q393.687 586.198 393.687 584.857 L393.687 561.923 Q391.374 563.091 387.873 563.091 Z" fill="#000000" fill-rule="evenodd" fill-opacity="1" /><path clip-path="url(#clip860)" d="M410.504 587.646 Q409.834 586.933 409.834 586.003 Q409.834 585.074 410.504 584.404 Q411.174 583.712 412.19 583.712 Q413.163 583.712 413.811 584.36 Q414.481 584.987 414.481 586.025 Q414.481 587.041 413.768 587.711 Q413.076 588.359 412.19 588.359 Q411.174 588.359 410.504 587.646 Z" fill="#000000" fill-rule="evenodd" fill-opacity="1" /><path clip-path="url(#clip860)" d="M420.101 574.201 Q420.101 567.695 421.744 564.15 Q424.035 558.876 429.439 558.876 Q430.585 558.876 431.774 559.2 Q432.984 559.503 434.497 560.691 Q436.032 561.88 436.961 563.826 Q438.734 567.587 438.734 574.201 Q438.734 580.664 437.091 584.187 Q434.692 589.332 429.396 589.332 Q427.407 589.332 425.376 588.316 Q423.365 587.3 422.09 584.857 Q420.101 581.204 420.101 574.201 M423.776 573.661 Q423.776 580.34 424.252 582.999 Q424.792 585.873 426.262 587.127 Q427.753 588.359 429.396 588.359 Q431.168 588.359 432.638 587.041 Q434.13 585.7 434.584 582.826 Q435.081 579.994 435.059 573.661 Q435.059 567.5 434.627 565.036 Q434.043 562.161 432.487 561.016 Q430.952 559.848 429.396 559.848 Q428.812 559.848 428.186 560.021 Q427.58 560.194 426.694 560.691 Q425.808 561.189 425.116 562.421 Q424.446 563.653 424.122 565.512 Q423.776 567.911 423.776 573.661 Z" fill="#000000" fill-rule="evenodd" fill-opacity="1" /><path clip-path="url(#clip860)" d="M685.772 563.091 L685.772 561.707 Q691.09 561.707 693.835 558.876 Q694.591 558.876 694.721 559.049 Q694.851 559.222 694.851 560.021 L694.851 584.857 Q694.851 586.176 695.499 586.587 Q696.148 586.997 698.979 586.997 L700.384 586.997 L700.384 588.359 Q698.828 588.229 693.208 588.229 Q687.588 588.229 686.053 588.359 L686.053 586.997 L687.458 586.997 Q690.247 586.997 690.917 586.608 Q691.587 586.198 691.587 584.857 L691.587 561.923 Q689.274 563.091 685.772 563.091 Z" fill="#000000" fill-rule="evenodd" fill-opacity="1" /><path clip-path="url(#clip860)" d="M708.404 587.646 Q707.733 586.933 707.733 586.003 Q707.733 585.074 708.404 584.404 Q709.074 583.712 710.09 583.712 Q711.062 583.712 711.711 584.36 Q712.381 584.987 712.381 586.025 Q712.381 587.041 711.667 587.711 Q710.976 588.359 710.09 588.359 Q709.074 588.359 708.404 587.646 Z" fill="#000000" fill-rule="evenodd" fill-opacity="1" /><path clip-path="url(#clip860)" d="M720.206 563.091 L720.206 561.707 Q725.523 561.707 728.268 558.876 Q729.025 558.876 729.154 559.049 Q729.284 559.222 729.284 560.021 L729.284 584.857 Q729.284 586.176 729.933 586.587 Q730.581 586.997 733.413 586.997 L734.818 586.997 L734.818 588.359 Q733.261 588.229 727.641 588.229 Q722.021 588.229 720.487 588.359 L720.487 586.997 L721.892 586.997 Q724.68 586.997 725.35 586.608 Q726.02 586.198 726.02 584.857 L726.02 561.923 Q723.707 563.091 720.206 563.091 Z" fill="#000000" fill-rule="evenodd" fill-opacity="1" /><path clip-path="url(#clip860)" d="M982.094 563.091 L982.094 561.707 Q987.411 561.707 990.156 558.876 Q990.913 558.876 991.043 559.049 Q991.172 559.222 991.172 560.021 L991.172 584.857 Q991.172 586.176 991.821 586.587 Q992.469 586.997 995.301 586.997 L996.706 586.997 L996.706 588.359 Q995.149 588.229 989.529 588.229 Q983.909 588.229 982.375 588.359 L982.375 586.997 L983.78 586.997 Q986.568 586.997 987.238 586.608 Q987.908 586.198 987.908 584.857 L987.908 561.923 Q985.595 563.091 982.094 563.091 Z" fill="#000000" fill-rule="evenodd" fill-opacity="1" /><path clip-path="url(#clip860)" d="M1004.73 587.646 Q1004.05 586.933 1004.05 586.003 Q1004.05 585.074 1004.73 584.404 Q1005.4 583.712 1006.41 583.712 Q1007.38 583.712 1008.03 584.36 Q1008.7 584.987 1008.7 586.025 Q1008.7 587.041 1007.99 587.711 Q1007.3 588.359 1006.41 588.359 Q1005.4 588.359 1004.73 587.646 Z" fill="#000000" fill-rule="evenodd" fill-opacity="1" /><path clip-path="url(#clip860)" d="M1014.8 588.359 Q1014.8 587.559 1014.86 587.322 Q1014.95 587.084 1015.3 586.716 L1023.79 577.249 Q1028.44 572.018 1028.44 567.457 Q1028.44 564.496 1026.88 562.377 Q1025.35 560.259 1022.51 560.259 Q1020.57 560.259 1018.93 561.448 Q1017.28 562.637 1016.53 564.755 Q1016.66 564.712 1017.11 564.712 Q1018.21 564.712 1018.82 565.404 Q1019.45 566.095 1019.45 567.025 Q1019.45 568.214 1018.67 568.797 Q1017.91 569.359 1017.15 569.359 Q1016.85 569.359 1016.44 569.294 Q1016.05 569.229 1015.42 568.624 Q1014.8 567.997 1014.8 566.895 Q1014.8 563.804 1017.13 561.34 Q1019.49 558.876 1023.08 558.876 Q1027.14 558.876 1029.8 561.297 Q1032.48 563.696 1032.48 567.457 Q1032.48 568.776 1032.07 569.986 Q1031.68 571.175 1031.14 572.104 Q1030.62 573.034 1029.19 574.525 Q1027.77 576.017 1026.62 577.076 Q1025.48 578.135 1022.9 580.383 L1018.21 584.944 L1026.19 584.944 Q1030.08 584.944 1030.38 584.598 Q1030.81 583.971 1031.36 580.664 L1032.48 580.664 L1031.23 588.359 L1014.8 588.359 Z" fill="#000000" fill-rule="evenodd" fill-opacity="1" /><path clip-path="url(#clip860)" d="M546.797 630.034 L547.843 630.034 Q548.437 632.883 548.724 633.313 Q549.134 634.03 550.917 634.112 Q551.286 634.112 551.921 634.112 L554.729 634.112 Q554.217 632.186 552.925 629.972 Q551.634 627.738 550.405 626.078 Q549.195 624.418 548.232 622.164 Q547.269 619.889 547.269 617.737 Q547.269 613.454 550.958 610.359 Q554.647 607.244 560.058 607.244 Q565.468 607.244 569.178 610.338 Q572.908 613.413 572.908 617.737 Q572.908 619.868 571.944 622.123 Q570.981 624.377 569.772 626.037 Q568.583 627.697 567.251 629.952 Q565.939 632.186 565.427 634.112 L568.296 634.112 Q570.653 634.112 571.125 633.682 Q571.596 633.231 572.108 630.874 Q572.19 630.321 572.272 630.034 L573.359 630.034 L571.985 636.838 L565.263 636.838 Q564.71 636.838 564.464 636.674 Q564.218 636.51 564.218 635.916 Q564.218 633.067 566.39 626.939 Q568.583 620.811 568.583 617.737 Q568.583 613.167 565.98 610.666 Q563.378 608.166 560.058 608.166 Q556.778 608.166 554.176 610.646 Q551.593 613.126 551.593 617.737 Q551.593 620.852 553.766 626.96 Q555.959 633.067 555.959 635.875 Q555.959 636.551 555.692 636.695 Q555.446 636.838 554.606 636.838 L548.191 636.838 L546.797 630.034 Z" fill="#000000" fill-rule="evenodd" fill-opacity="1" /><polyline clip-path="url(#clip860)" style="stroke:#000000; stroke-linecap:butt; stroke-linejoin:round; stroke-width:4; stroke-opacity:1; fill:none" points="
  89.5825,541.279 89.5825,47.2441 
  "/>
<polyline clip-path="url(#clip860)" style="stroke:#000000; stroke-linecap:butt; stroke-linejoin:round; stroke-width:4; stroke-opacity:1; fill:none" points="
  1034.02,541.279 1034.02,47.2441 
  "/>
<path clip-path="url(#clip860)" d="M39.5865 338.988 Q42.2303 339.541 43.7469 340.259 Q46.0628 341.406 46.0628 343.353 Q46.0628 344.829 45.1611 345.874 Q44.2593 346.919 42.9067 347.165 Q46.0628 349.85 46.0628 352.637 Q46.0628 355.097 44.1978 356.654 Q42.3123 358.212 39.3406 358.212 Q36.3484 358.212 33.4791 356.736 Q30.6099 355.24 28.8269 352.883 Q27.0438 350.526 27.0438 348.108 Q27.0438 345.546 29.7286 344.235 Q28.9908 344.132 28.4375 343.661 Q27.8841 343.189 27.8841 342.472 Q27.8841 341.919 28.1915 341.591 Q28.4784 341.263 29.0113 341.263 Q29.2777 341.263 30.4459 341.55 L36.3074 343.066 L40.0989 343.989 Q41.4925 344.337 42.0049 344.439 Q42.5173 344.521 43.1936 344.521 Q45.1201 344.521 45.1201 343.271 Q45.1201 342.656 44.7307 342.165 Q44.3413 341.673 43.5215 341.283 Q42.7017 340.894 41.9434 340.648 Q41.1646 340.402 39.9349 340.074 Q39.4431 339.972 39.3201 339.89 Q39.1766 339.787 39.1766 339.5 Q39.1766 338.988 39.5865 338.988 M31.6551 344.747 Q31.4707 344.747 30.9583 344.89 Q30.4459 345.034 29.7286 345.362 Q29.0113 345.69 28.4989 346.407 Q27.9661 347.104 27.9661 348.047 Q27.9661 349.317 29.0523 350.649 Q30.1385 351.961 31.983 352.924 Q33.4586 353.662 36.5533 354.461 Q39.648 355.24 41.1851 355.24 Q42.1279 355.24 42.9682 355.035 Q43.7879 354.81 44.4643 354.174 Q45.1201 353.539 45.1201 352.555 Q45.1201 350.157 42.1484 347.801 Q41.636 347.35 41.4311 347.247 Q41.2056 347.124 40.5908 346.96 L32.3724 344.87 Q31.7576 344.747 31.6551 344.747 Z" fill="#000000" fill-rule="evenodd" fill-opacity="1" /><path clip-path="url(#clip860)" d="M56.6586 316.903 L12.3902 316.903 L12.3902 310.224 L13.4061 310.224 L13.4061 313.942 L55.6426 313.942 L55.6426 310.224 L56.6586 310.224 L56.6586 316.903 Z" fill="#000000" fill-rule="evenodd" fill-opacity="1" /><path clip-path="url(#clip860)" d="M41.3765 307.349 Q37.6154 307.349 35.6267 302.918 Q34.3514 300.259 34.0272 294.769 L32.406 294.769 Q29.6609 294.769 28.2127 296.217 Q26.7428 297.643 26.7428 299.459 Q26.7428 302.702 28.7747 304.258 Q28.8179 302.939 29.488 302.464 Q30.1364 301.988 30.8065 301.988 Q31.6927 301.988 32.2764 302.55 Q32.8384 303.091 32.8384 304.02 Q32.8384 304.906 32.298 305.49 Q31.736 306.074 30.7633 306.074 Q28.6017 306.074 27.1751 304.128 Q25.7485 302.161 25.7485 299.373 Q25.7485 295.741 28.191 293.32 Q28.9476 292.564 29.9203 292.196 Q30.893 291.807 31.5414 291.764 Q32.1683 291.721 33.422 291.721 L42.2627 291.721 Q42.5221 291.721 42.9544 291.634 Q43.3867 291.548 43.9487 291.159 Q44.4891 290.748 44.4891 290.078 Q44.4891 288.479 41.6575 288.5 L39.1717 288.5 L39.1717 287.376 L41.6575 287.376 Q44.0135 287.376 44.943 288.63 Q45.8509 289.862 45.8509 291.008 Q45.8509 292.477 44.7701 293.407 Q43.6893 294.336 42.2195 294.466 Q43.9055 295.136 45.0078 296.671 Q46.0886 298.184 46.0886 300.259 Q46.0886 301.859 45.6779 303.372 Q45.2888 304.863 44.1865 306.117 Q43.0625 307.349 41.3765 307.349 M41.3332 303.934 Q42.976 303.934 44.0352 302.766 Q45.0943 301.599 45.0943 299.956 Q45.0943 298.097 43.6677 296.433 Q42.2195 294.769 39.3878 294.769 L34.9567 294.769 Q35.1296 299.675 37.0966 301.815 Q39.042 303.934 41.3332 303.934 Z" fill="#000000" fill-rule="evenodd" fill-opacity="1" /><path clip-path="url(#clip860)" d="M44.8782 282.642 Q44.1648 283.312 43.2354 283.312 Q42.3059 283.312 41.6358 282.642 Q40.9441 281.972 40.9441 280.956 Q40.9441 279.984 41.5926 279.335 Q42.2195 278.665 43.257 278.665 Q44.2729 278.665 44.943 279.378 Q45.5915 280.07 45.5915 280.956 Q45.5915 281.972 44.8782 282.642 Z" fill="#000000" fill-rule="evenodd" fill-opacity="1" /><path clip-path="url(#clip860)" d="M27.8884 273.348 L26.505 273.348 L26.0295 266.841 L40.728 266.841 Q41.7871 266.841 42.414 266.755 Q43.0192 266.669 43.7325 266.323 Q44.4458 265.955 44.7701 265.134 Q45.0943 264.291 45.0943 262.951 Q45.0943 260.551 43.1273 259.082 Q41.1603 257.59 38.2422 257.59 L30.3526 257.59 Q28.7098 257.59 28.2991 258.174 Q27.8884 258.757 27.8884 261.049 L26.505 261.049 L26.0295 254.542 L41.7439 254.542 Q43.3867 254.542 43.819 253.98 Q44.2297 253.397 44.2297 251.084 L45.5915 251.084 L46.0886 257.46 L42.0898 257.46 Q46.067 259.319 46.0886 263.167 Q46.0886 265.112 45.5915 266.452 Q45.0943 267.771 44.4891 268.441 Q43.8622 269.111 42.6734 269.479 Q41.4845 269.824 40.7496 269.868 Q40.0147 269.911 38.5881 269.911 L31.9521 269.911 Q28.9476 269.911 28.4288 270.343 Q27.8884 270.775 27.8884 273.348 Z" fill="#000000" fill-rule="evenodd" fill-opacity="1" /><path clip-path="url(#clip860)" d="M44.8782 245.788 Q44.1648 246.458 43.2354 246.458 Q42.3059 246.458 41.6358 245.788 Q40.9441 245.118 40.9441 244.102 Q40.9441 243.129 41.5926 242.481 Q42.2195 241.811 43.257 241.811 Q44.2729 241.811 44.943 242.524 Q45.5915 243.216 45.5915 244.102 Q45.5915 245.118 44.8782 245.788 Z" fill="#000000" fill-rule="evenodd" fill-opacity="1" /><path clip-path="url(#clip860)" d="M55.6426 236.991 L55.6426 233.273 L13.4061 233.273 L13.4061 236.991 L12.3902 236.991 L12.3902 230.311 L56.6586 230.311 L56.6586 236.991 L55.6426 236.991 Z" fill="#000000" fill-rule="evenodd" fill-opacity="1" /><polyline clip-path="url(#clip862)" style="stroke:#c271d2; stroke-linecap:butt; stroke-linejoin:round; stroke-width:4.8; stroke-opacity:1; fill:none" points="
  116.312,527.297 118.545,527.297 120.778,527.296 123.011,527.296 125.244,527.295 127.477,527.294 129.71,527.294 131.943,527.293 134.176,527.293 136.409,527.292 
  138.642,527.292 140.875,527.291 143.108,527.291 145.341,527.29 147.574,527.289 149.807,527.289 152.04,527.288 154.273,527.287 156.506,527.287 158.739,527.286 
  160.972,527.285 163.205,527.285 165.438,527.284 167.671,527.283 169.904,527.282 172.137,527.282 174.37,527.281 176.603,527.28 178.836,527.279 181.069,527.278 
  183.302,527.278 185.535,527.277 187.768,527.276 190.001,527.275 192.234,527.274 194.467,527.273 196.7,527.272 198.933,527.271 201.166,527.27 203.399,527.269 
  205.632,527.268 207.866,527.267 210.099,527.266 212.332,527.265 214.565,527.264 216.798,527.263 219.031,527.261 221.264,527.26 223.497,527.259 225.73,527.258 
  227.963,527.256 230.196,527.255 232.429,527.254 234.662,527.252 236.895,527.251 239.128,527.249 241.361,527.248 243.594,527.246 245.827,527.244 248.06,527.243 
  250.293,527.241 252.526,527.239 254.759,527.238 256.992,527.236 259.225,527.234 261.458,527.232 263.691,527.23 265.924,527.228 268.157,527.226 270.39,527.224 
  272.623,527.221 274.856,527.219 277.089,527.217 279.322,527.214 281.555,527.212 283.788,527.209 286.021,527.207 288.254,527.204 290.487,527.201 292.72,527.198 
  294.953,527.195 297.186,527.192 299.419,527.189 301.652,527.186 303.885,527.182 306.118,527.179 308.351,527.175 310.584,527.171 312.817,527.167 315.05,527.164 
  317.283,527.159 319.516,527.155 321.75,527.151 323.983,527.146 326.216,527.141 328.449,527.137 330.682,527.132 332.915,527.126 335.148,527.121 337.381,527.115 
  339.614,527.109 341.847,527.103 344.08,527.097 346.313,527.091 348.546,527.084 350.779,527.077 353.012,527.07 355.245,527.062 357.478,527.054 359.711,527.046 
  361.944,527.038 364.177,527.029 366.41,527.02 368.643,527.01 370.876,527 373.109,526.99 375.342,526.979 377.575,526.968 379.808,526.956 382.041,526.944 
  384.274,526.931 386.507,526.918 388.74,526.904 390.973,526.89 393.206,526.875 395.439,526.859 397.672,526.842 399.905,526.825 402.138,526.807 404.371,526.788 
  406.604,526.768 408.837,526.747 411.07,526.726 413.303,526.703 415.536,526.679 417.769,526.654 420.002,526.627 422.235,526.599 424.468,526.57 426.701,526.539 
  428.934,526.507 431.167,526.473 433.4,526.437 435.634,526.399 437.867,526.359 440.1,526.317 442.333,526.273 444.566,526.226 446.799,526.176 449.032,526.124 
  451.265,526.068 453.498,526.009 455.731,525.947 457.964,525.88 460.197,525.81 462.43,525.735 464.663,525.656 466.896,525.571 469.129,525.481 471.362,525.385 
  473.595,525.283 475.828,525.174 478.061,525.057 480.294,524.932 482.527,524.799 484.76,524.656 486.993,524.502 489.226,524.338 491.459,524.161 493.692,523.97 
  495.925,523.765 498.158,523.544 500.391,523.306 502.624,523.047 504.857,522.768 507.09,522.466 509.323,522.137 511.556,521.78 513.789,521.391 516.022,520.968 
  518.255,520.505 520.488,520 522.721,519.446 524.954,518.838 527.187,518.169 529.42,517.433 531.653,516.62 533.886,515.722 536.119,514.726 538.352,513.619 
  540.585,512.388 542.818,511.014 545.051,509.477 547.284,507.754 549.518,505.817 551.751,503.635 553.984,501.17 556.217,498.378 558.45,495.209 560.683,491.602 
  562.916,487.488 565.149,482.787 567.382,477.407 569.615,471.245 571.848,464.184 574.081,456.101 576.314,446.868 578.547,436.368 580.78,424.507 583.013,411.243 
  585.246,396.626 587.479,380.844 589.712,364.271 591.945,347.509 594.178,331.39 596.411,316.918 598.644,305.137 600.877,296.937 603.11,292.872 605.343,293.037 
  607.576,297.076 609.809,304.295 612.042,313.836 614.275,324.839 616.508,336.552 618.741,348.389 620.974,359.929 623.207,370.902 625.44,381.152 627.673,390.61 
  629.906,399.26 632.139,407.125 634.372,414.249 636.605,420.686 638.838,426.493 641.071,431.73 643.304,436.451 645.537,440.709 647.77,444.549 650.003,448.015 
  652.236,451.145 654.469,453.971 656.702,456.524 658.935,458.831 661.168,460.914 663.401,462.794 665.635,464.489 667.868,466.014 670.101,467.384 672.334,468.611 
  674.567,469.705 676.8,470.675 679.033,471.531 681.266,472.278 683.499,472.923 685.732,473.472 687.965,473.929 690.198,474.298 692.431,474.581 694.664,474.782 
  696.897,474.902 699.13,474.944 701.363,474.907 703.596,474.793 705.829,474.601 708.062,474.331 710.295,473.982 712.528,473.553 714.761,473.041 716.994,472.444 
  719.227,471.759 721.46,470.983 723.693,470.111 725.926,469.138 728.159,468.059 730.392,466.867 732.625,465.554 734.858,464.113 737.091,462.534 739.324,460.806 
  741.557,458.917 743.79,456.853 746.023,454.598 748.256,452.136 750.489,449.446 752.722,446.506 754.955,443.289 757.188,439.768 759.421,435.908 761.654,431.672 
  763.887,427.018 766.12,421.895 768.353,416.25 770.586,410.017 772.819,403.124 775.052,395.489 777.285,387.02 779.519,377.61 781.752,367.144 783.985,355.492 
  786.218,342.516 788.451,328.069 790.684,312.006 792.917,294.194 795.15,274.529 797.383,252.969 799.616,229.572 801.849,204.553 804.082,178.357 806.315,151.726 
  808.548,125.765 810.781,101.95 813.014,82.0529 815.247,67.9346 817.48,61.2262 819.713,62.9628 821.946,73.3016 824.179,91.4518 826.412,115.853 828.645,144.528 
  830.878,175.468 833.111,206.924 835.344,237.56 837.577,266.48 839.81,293.165 842.043,317.391 844.276,339.135 846.509,358.502 848.742,375.667 850.975,390.838 
  853.208,404.229 855.441,416.047 857.674,426.484 859.907,435.714 862.14,443.891 864.373,451.149 866.606,457.606 868.839,463.364 871.072,468.511 873.305,473.123 
  875.538,477.266 877.771,480.997 880.004,484.365 882.237,487.413 884.47,490.176 886.703,492.688 888.936,494.975 891.169,497.063 893.403,498.973 895.636,500.722 
  897.869,502.329 900.102,503.806 902.335,505.167 904.568,506.424 906.801,507.585 909.034,508.66 911.267,509.657 913.5,510.583 915.733,511.444 917.966,512.246 
  920.199,512.993 922.432,513.691 924.665,514.344 926.898,514.954 929.131,515.526 931.364,516.063 933.597,516.566 935.83,517.04 938.063,517.486 940.296,517.905 
  942.529,518.301 944.762,518.674 946.995,519.026 949.228,519.36 951.461,519.675 953.694,519.973 955.927,520.256 958.16,520.524 960.393,520.779 962.626,521.02 
  964.859,521.25 967.092,521.469 969.325,521.676 971.558,521.874 973.791,522.063 976.024,522.243 978.257,522.414 980.49,522.578 982.723,522.735 984.956,522.884 
  987.189,523.027 989.422,523.164 991.655,523.295 993.888,523.42 996.121,523.54 998.354,523.655 1000.59,523.766 1002.82,523.872 1005.05,523.973 1007.29,524.071 
  
  "/>
<polyline clip-path="url(#clip862)" style="stroke:#3da44d; stroke-linecap:butt; stroke-linejoin:round; stroke-width:4.8; stroke-opacity:1; fill:none" points="
  116.312,527.297 118.545,527.296 120.778,527.295 123.011,527.295 125.244,527.294 127.477,527.294 129.71,527.293 131.943,527.292 134.176,527.292 136.409,527.291 
  138.642,527.29 140.875,527.289 143.108,527.289 145.341,527.288 147.574,527.287 149.807,527.286 152.04,527.286 154.273,527.285 156.506,527.284 158.739,527.283 
  160.972,527.282 163.205,527.281 165.438,527.28 167.671,527.28 169.904,527.279 172.137,527.278 174.37,527.277 176.603,527.276 178.836,527.275 181.069,527.274 
  183.302,527.273 185.535,527.272 187.768,527.27 190.001,527.269 192.234,527.268 194.467,527.267 196.7,527.266 198.933,527.265 201.166,527.263 203.399,527.262 
  205.632,527.261 207.866,527.259 210.099,527.258 212.332,527.257 214.565,527.255 216.798,527.254 219.031,527.252 221.264,527.251 223.497,527.249 225.73,527.247 
  227.963,527.246 230.196,527.244 232.429,527.242 234.662,527.241 236.895,527.239 239.128,527.237 241.361,527.235 243.594,527.233 245.827,527.231 248.06,527.229 
  250.293,527.227 252.526,527.224 254.759,527.222 256.992,527.22 259.225,527.218 261.458,527.215 263.691,527.213 265.924,527.21 268.157,527.207 270.39,527.205 
  272.623,527.202 274.856,527.199 277.089,527.196 279.322,527.193 281.555,527.19 283.788,527.186 286.021,527.183 288.254,527.18 290.487,527.176 292.72,527.172 
  294.953,527.169 297.186,527.165 299.419,527.161 301.652,527.156 303.885,527.152 306.118,527.148 308.351,527.143 310.584,527.138 312.817,527.133 315.05,527.128 
  317.283,527.123 319.516,527.118 321.75,527.112 323.983,527.106 326.216,527.1 328.449,527.094 330.682,527.088 332.915,527.081 335.148,527.074 337.381,527.067 
  339.614,527.06 341.847,527.052 344.08,527.044 346.313,527.036 348.546,527.027 350.779,527.018 353.012,527.009 355.245,527 357.478,526.99 359.711,526.979 
  361.944,526.969 364.177,526.957 366.41,526.946 368.643,526.934 370.876,526.921 373.109,526.908 375.342,526.894 377.575,526.88 379.808,526.865 382.041,526.849 
  384.274,526.833 386.507,526.816 388.74,526.799 390.973,526.78 393.206,526.761 395.439,526.741 397.672,526.72 399.905,526.697 402.138,526.674 404.371,526.65 
  406.604,526.625 408.837,526.598 411.07,526.57 413.303,526.541 415.536,526.51 417.769,526.478 420.002,526.444 422.235,526.409 424.468,526.371 426.701,526.332 
  428.934,526.29 431.167,526.247 433.4,526.201 435.634,526.152 437.867,526.101 440.1,526.047 442.333,525.989 444.566,525.929 446.799,525.865 449.032,525.797 
  451.265,525.725 453.498,525.649 455.731,525.569 457.964,525.483 460.197,525.392 462.43,525.295 464.663,525.193 466.896,525.083 469.129,524.966 471.362,524.842 
  473.595,524.709 475.828,524.567 478.061,524.415 480.294,524.252 482.527,524.078 484.76,523.891 486.993,523.691 489.226,523.475 491.459,523.243 493.692,522.994 
  495.925,522.724 498.158,522.433 500.391,522.119 502.624,521.779 504.857,521.41 507.09,521.009 509.323,520.574 511.556,520.1 513.789,519.584 516.022,519.02 
  518.255,518.403 520.488,517.727 522.721,516.986 524.954,516.171 527.187,515.274 529.42,514.284 531.653,513.189 533.886,511.977 536.119,510.631 538.352,509.135 
  540.585,507.467 542.818,505.604 545.051,503.518 547.284,501.18 549.518,498.552 551.751,495.592 553.984,492.253 556.217,488.481 558.45,484.213 560.683,479.379 
  562.916,473.903 565.149,467.702 567.382,460.687 569.615,452.773 571.848,443.88 574.081,433.95 576.314,422.96 578.547,410.947 580.78,398.032 583.013,384.451 
  585.246,370.581 587.479,356.944 589.712,344.185 591.945,333.019 594.178,324.131 596.411,318.066 598.644,315.125 600.877,315.324 603.11,318.403 605.343,323.894 
  607.576,331.224 609.809,339.804 612.042,349.099 614.275,358.668 616.508,368.176 618.741,377.383 620.974,386.137 623.207,394.347 625.44,401.972 627.673,409.003 
  629.906,415.455 632.139,421.353 634.372,426.734 636.605,431.634 638.838,436.092 641.071,440.147 643.304,443.833 645.537,447.185 647.77,450.233 650.003,453.004 
  652.236,455.523 654.469,457.813 656.702,459.895 658.935,461.786 661.168,463.501 663.401,465.056 665.635,466.463 667.868,467.733 670.101,468.876 672.334,469.901 
  674.567,470.815 676.8,471.626 679.033,472.34 681.266,472.961 683.499,473.494 685.732,473.944 687.965,474.313 690.198,474.605 692.431,474.821 694.664,474.964 
  696.897,475.036 699.13,475.036 701.363,474.966 703.596,474.826 705.829,474.616 708.062,474.335 710.295,473.982 712.528,473.557 714.761,473.056 716.994,472.479 
  719.227,471.822 721.46,471.082 723.693,470.256 725.926,469.34 728.159,468.329 730.392,467.217 732.625,465.999 734.858,464.667 737.091,463.214 739.324,461.631 
  741.557,459.909 743.79,458.036 746.023,456.001 748.256,453.789 750.489,451.385 752.722,448.772 754.955,445.93 757.188,442.838 759.421,439.47 761.654,435.799 
  763.887,431.794 766.12,427.42 768.353,422.635 770.586,417.397 772.819,411.654 775.052,405.349 777.285,398.42 779.519,390.795 781.752,382.396 783.985,373.137 
  786.218,362.925 788.451,351.66 790.684,339.24 792.917,325.564 795.15,310.54 797.383,294.095 799.616,276.194 801.849,256.861 804.082,236.209 806.315,214.483 
  808.548,192.097 810.781,169.679 813.014,148.094 815.247,128.44 817.48,111.98 819.713,100.019 821.946,93.7043 824.179,93.8166 826.412,100.594 828.645,113.661 
  830.878,132.099 833.111,154.618 835.344,179.787 837.577,206.244 839.81,232.834 842.043,258.678 844.276,283.172 846.509,305.956 848.742,326.856 850.975,345.836 
  853.208,362.951 855.441,378.31 857.674,392.051 859.907,404.324 862.14,415.277 864.373,425.055 866.606,433.788 868.839,441.598 871.072,448.593 873.305,454.866 
  875.538,460.505 877.771,465.581 880.004,470.162 882.237,474.302 884.47,478.053 886.703,481.458 888.936,484.555 891.169,487.378 893.403,489.955 895.636,492.313 
  897.869,494.474 900.102,496.459 902.335,498.284 904.568,499.965 906.801,501.517 909.034,502.952 911.267,504.28 913.5,505.511 915.733,506.654 917.966,507.717 
  920.199,508.706 922.432,509.629 924.665,510.49 926.898,511.295 929.131,512.048 931.364,512.753 933.597,513.414 935.83,514.035 938.063,514.619 940.296,515.168 
  942.529,515.685 944.762,516.172 946.995,516.632 949.228,517.066 951.461,517.476 953.694,517.864 955.927,518.231 958.16,518.579 960.393,518.909 962.626,519.223 
  964.859,519.52 967.092,519.802 969.325,520.071 971.558,520.327 973.791,520.57 976.024,520.802 978.257,521.023 980.49,521.234 982.723,521.435 984.956,521.628 
  987.189,521.811 989.422,521.987 991.655,522.155 993.888,522.316 996.121,522.47 998.354,522.618 1000.59,522.76 1002.82,522.895 1005.05,523.026 1007.29,523.151 
  
  "/>
<circle clip-path="url(#clip862)" cx="116.312" cy="527.296" r="10" fill="#ff0000" fill-rule="evenodd" fill-opacity="0.5" stroke="#000000" stroke-opacity="0.5" stroke-width="1.36"/>
<circle clip-path="url(#clip862)" cx="147.574" cy="527.288" r="10" fill="#ff0000" fill-rule="evenodd" fill-opacity="0.5" stroke="#000000" stroke-opacity="0.5" stroke-width="1.36"/>
<circle clip-path="url(#clip862)" cx="178.836" cy="527.278" r="10" fill="#ff0000" fill-rule="evenodd" fill-opacity="0.5" stroke="#000000" stroke-opacity="0.5" stroke-width="1.36"/>
<circle clip-path="url(#clip862)" cx="210.099" cy="527.264" r="10" fill="#ff0000" fill-rule="evenodd" fill-opacity="0.5" stroke="#000000" stroke-opacity="0.5" stroke-width="1.36"/>
<circle clip-path="url(#clip862)" cx="241.361" cy="527.246" r="10" fill="#ff0000" fill-rule="evenodd" fill-opacity="0.5" stroke="#000000" stroke-opacity="0.5" stroke-width="1.36"/>
<circle clip-path="url(#clip862)" cx="272.623" cy="527.219" r="10" fill="#ff0000" fill-rule="evenodd" fill-opacity="0.5" stroke="#000000" stroke-opacity="0.5" stroke-width="1.36"/>
<circle clip-path="url(#clip862)" cx="303.885" cy="527.179" r="10" fill="#ff0000" fill-rule="evenodd" fill-opacity="0.5" stroke="#000000" stroke-opacity="0.5" stroke-width="1.36"/>
<circle clip-path="url(#clip862)" cx="335.148" cy="527.115" r="10" fill="#ff0000" fill-rule="evenodd" fill-opacity="0.5" stroke="#000000" stroke-opacity="0.5" stroke-width="1.36"/>
<circle clip-path="url(#clip862)" cx="366.41" cy="527.014" r="10" fill="#ff0000" fill-rule="evenodd" fill-opacity="0.5" stroke="#000000" stroke-opacity="0.5" stroke-width="1.36"/>
<circle clip-path="url(#clip862)" cx="397.672" cy="526.83" r="10" fill="#ff0000" fill-rule="evenodd" fill-opacity="0.5" stroke="#000000" stroke-opacity="0.5" stroke-width="1.36"/>
<circle clip-path="url(#clip862)" cx="428.934" cy="526.491" r="10" fill="#ff0000" fill-rule="evenodd" fill-opacity="0.5" stroke="#000000" stroke-opacity="0.5" stroke-width="1.36"/>
<circle clip-path="url(#clip862)" cx="460.197" cy="525.779" r="10" fill="#ff0000" fill-rule="evenodd" fill-opacity="0.5" stroke="#000000" stroke-opacity="0.5" stroke-width="1.36"/>
<circle clip-path="url(#clip862)" cx="491.459" cy="524.112" r="10" fill="#ff0000" fill-rule="evenodd" fill-opacity="0.5" stroke="#000000" stroke-opacity="0.5" stroke-width="1.36"/>
<circle clip-path="url(#clip862)" cx="522.721" cy="519.368" r="10" fill="#ff0000" fill-rule="evenodd" fill-opacity="0.5" stroke="#000000" stroke-opacity="0.5" stroke-width="1.36"/>
<circle clip-path="url(#clip862)" cx="553.984" cy="501.158" r="10" fill="#ff0000" fill-rule="evenodd" fill-opacity="0.5" stroke="#000000" stroke-opacity="0.5" stroke-width="1.36"/>
<circle clip-path="url(#clip862)" cx="585.246" cy="401.168" r="10" fill="#ff0000" fill-rule="evenodd" fill-opacity="0.5" stroke="#000000" stroke-opacity="0.5" stroke-width="1.36"/>
<circle clip-path="url(#clip862)" cx="616.508" cy="344.206" r="10" fill="#ff0000" fill-rule="evenodd" fill-opacity="0.5" stroke="#000000" stroke-opacity="0.5" stroke-width="1.36"/>
<circle clip-path="url(#clip862)" cx="647.77" cy="444.936" r="10" fill="#ff0000" fill-rule="evenodd" fill-opacity="0.5" stroke="#000000" stroke-opacity="0.5" stroke-width="1.36"/>
<circle clip-path="url(#clip862)" cx="679.033" cy="471.205" r="10" fill="#ff0000" fill-rule="evenodd" fill-opacity="0.5" stroke="#000000" stroke-opacity="0.5" stroke-width="1.36"/>
<circle clip-path="url(#clip862)" cx="735.044" cy="463.186" r="10" fill="#ff0000" fill-rule="evenodd" fill-opacity="0.5" stroke="#000000" stroke-opacity="0.5" stroke-width="1.36"/>
<circle clip-path="url(#clip862)" cx="747.419" cy="452.59" r="10" fill="#ff0000" fill-rule="evenodd" fill-opacity="0.5" stroke="#000000" stroke-opacity="0.5" stroke-width="1.36"/>
<circle clip-path="url(#clip862)" cx="759.794" cy="435.537" r="10" fill="#ff0000" fill-rule="evenodd" fill-opacity="0.5" stroke="#000000" stroke-opacity="0.5" stroke-width="1.36"/>
<circle clip-path="url(#clip862)" cx="772.168" cy="406.81" r="10" fill="#ff0000" fill-rule="evenodd" fill-opacity="0.5" stroke="#000000" stroke-opacity="0.5" stroke-width="1.36"/>
<circle clip-path="url(#clip862)" cx="784.543" cy="355.375" r="10" fill="#ff0000" fill-rule="evenodd" fill-opacity="0.5" stroke="#000000" stroke-opacity="0.5" stroke-width="1.36"/>
<circle clip-path="url(#clip862)" cx="796.917" cy="265.721" r="10" fill="#ff0000" fill-rule="evenodd" fill-opacity="0.5" stroke="#000000" stroke-opacity="0.5" stroke-width="1.36"/>
<circle clip-path="url(#clip862)" cx="809.292" cy="138.712" r="10" fill="#ff0000" fill-rule="evenodd" fill-opacity="0.5" stroke="#000000" stroke-opacity="0.5" stroke-width="1.36"/>
<circle clip-path="url(#clip862)" cx="821.667" cy="99.2493" r="10" fill="#ff0000" fill-rule="evenodd" fill-opacity="0.5" stroke="#000000" stroke-opacity="0.5" stroke-width="1.36"/>
<circle clip-path="url(#clip862)" cx="834.041" cy="232.029" r="10" fill="#ff0000" fill-rule="evenodd" fill-opacity="0.5" stroke="#000000" stroke-opacity="0.5" stroke-width="1.36"/>
<circle clip-path="url(#clip862)" cx="846.416" cy="361.616" r="10" fill="#ff0000" fill-rule="evenodd" fill-opacity="0.5" stroke="#000000" stroke-opacity="0.5" stroke-width="1.36"/>
<circle clip-path="url(#clip862)" cx="858.791" cy="432.311" r="10" fill="#ff0000" fill-rule="evenodd" fill-opacity="0.5" stroke="#000000" stroke-opacity="0.5" stroke-width="1.36"/>
<circle clip-path="url(#clip862)" cx="871.165" cy="469.072" r="10" fill="#ff0000" fill-rule="evenodd" fill-opacity="0.5" stroke="#000000" stroke-opacity="0.5" stroke-width="1.36"/>
<circle clip-path="url(#clip862)" cx="883.54" cy="489.19" r="10" fill="#ff0000" fill-rule="evenodd" fill-opacity="0.5" stroke="#000000" stroke-opacity="0.5" stroke-width="1.36"/>
<circle clip-path="url(#clip862)" cx="895.915" cy="500.827" r="10" fill="#ff0000" fill-rule="evenodd" fill-opacity="0.5" stroke="#000000" stroke-opacity="0.5" stroke-width="1.36"/>
<circle clip-path="url(#clip862)" cx="908.289" cy="508.337" r="10" fill="#ff0000" fill-rule="evenodd" fill-opacity="0.5" stroke="#000000" stroke-opacity="0.5" stroke-width="1.36"/>
<circle clip-path="url(#clip862)" cx="920.664" cy="513.138" r="10" fill="#ff0000" fill-rule="evenodd" fill-opacity="0.5" stroke="#000000" stroke-opacity="0.5" stroke-width="1.36"/>
<circle clip-path="url(#clip862)" cx="933.039" cy="516.414" r="10" fill="#ff0000" fill-rule="evenodd" fill-opacity="0.5" stroke="#000000" stroke-opacity="0.5" stroke-width="1.36"/>
<circle clip-path="url(#clip862)" cx="945.413" cy="518.765" r="10" fill="#ff0000" fill-rule="evenodd" fill-opacity="0.5" stroke="#000000" stroke-opacity="0.5" stroke-width="1.36"/>
<circle clip-path="url(#clip862)" cx="957.788" cy="520.424" r="10" fill="#ff0000" fill-rule="evenodd" fill-opacity="0.5" stroke="#000000" stroke-opacity="0.5" stroke-width="1.36"/>
<circle clip-path="url(#clip862)" cx="970.163" cy="521.754" r="10" fill="#ff0000" fill-rule="evenodd" fill-opacity="0.5" stroke="#000000" stroke-opacity="0.5" stroke-width="1.36"/>
<circle clip-path="url(#clip862)" cx="982.537" cy="522.718" r="10" fill="#ff0000" fill-rule="evenodd" fill-opacity="0.5" stroke="#000000" stroke-opacity="0.5" stroke-width="1.36"/>
<circle clip-path="url(#clip862)" cx="994.912" cy="523.453" r="10" fill="#ff0000" fill-rule="evenodd" fill-opacity="0.5" stroke="#000000" stroke-opacity="0.5" stroke-width="1.36"/>
<circle clip-path="url(#clip862)" cx="1007.29" cy="524.062" r="10" fill="#ff0000" fill-rule="evenodd" fill-opacity="0.5" stroke="#000000" stroke-opacity="0.5" stroke-width="1.36"/>
<path clip-path="url(#clip860)" d="
M89.5825 541.279 L1034.02 541.279 L1034.02 47.2441 L89.5825 47.2441  Z
  " fill="#000000" fill-rule="evenodd" fill-opacity="0"/>
<path clip-path="url(#clip860)" d="M89.8436 574.201 Q89.8436 567.695 91.4864 564.15 Q93.7776 558.876 99.1815 558.876 Q100.327 558.876 101.516 559.2 Q102.726 559.503 104.239 560.691 Q105.774 561.88 106.704 563.826 Q108.476 567.587 108.476 574.201 Q108.476 580.664 106.833 584.187 Q104.434 589.332 99.1382 589.332 Q97.1496 589.332 95.1178 588.316 Q93.1075 587.3 91.8322 584.857 Q89.8436 581.204 89.8436 574.201 M93.5182 573.661 Q93.5182 580.34 93.9938 582.999 Q94.5342 585.873 96.004 587.127 Q97.4955 588.359 99.1382 588.359 Q100.911 588.359 102.381 587.041 Q103.872 585.7 104.326 582.826 Q104.823 579.994 104.801 573.661 Q104.801 567.5 104.369 565.036 Q103.786 562.161 102.229 561.016 Q100.695 559.848 99.1382 559.848 Q98.5546 559.848 97.9278 560.021 Q97.3226 560.194 96.4363 560.691 Q95.5501 561.189 94.8584 562.421 Q94.1883 563.653 93.8641 565.512 Q93.5182 567.911 93.5182 573.661 Z" fill="#000000" fill-rule="evenodd" fill-opacity="1" /><path clip-path="url(#clip860)" d="M114.68 587.646 Q114.01 586.933 114.01 586.003 Q114.01 585.074 114.68 584.404 Q115.35 583.712 116.366 583.712 Q117.338 583.712 117.987 584.36 Q118.657 584.987 118.657 586.025 Q118.657 587.041 117.944 587.711 Q117.252 588.359 116.366 588.359 Q115.35 588.359 114.68 587.646 Z" fill="#000000" fill-rule="evenodd" fill-opacity="1" /><path clip-path="url(#clip860)" d="M124.407 568.84 Q124.407 566.484 125.098 564.885 Q125.79 563.264 127.238 561.664 Q129.897 558.876 133.745 558.876 Q135.387 558.876 136.836 559.567 Q138.305 560.259 139.689 561.837 Q141.094 563.393 141.937 566.484 Q142.78 569.554 142.78 573.79 Q142.78 580.642 139.451 584.987 Q136.144 589.332 131.669 589.332 Q128.838 589.332 127.173 588.057 Q125.509 586.76 125.509 584.555 Q125.509 583.409 126.158 582.934 Q126.806 582.437 127.541 582.437 Q128.341 582.437 128.968 582.977 Q129.594 583.496 129.594 584.468 Q129.594 585.268 129.076 585.895 Q128.578 586.5 127.282 586.5 Q128.557 588.1 131.626 588.1 Q132.729 588.1 133.831 587.603 Q134.933 587.084 136.122 585.852 Q137.333 584.598 138.068 581.983 Q138.803 579.367 138.803 575.693 L138.803 574.288 Q137.03 578.719 133.269 578.719 Q129.551 578.719 126.979 575.865 Q124.407 573.012 124.407 568.84 M128.384 568.884 Q128.384 573.272 129.184 574.893 Q130.545 577.681 133.312 577.681 Q136.014 577.681 137.354 575.282 Q138.716 572.861 138.716 569.727 Q138.716 565.382 138.003 563.48 Q136.684 559.978 133.745 559.978 Q130.826 559.978 129.313 562.766 Q128.384 564.409 128.384 568.884 Z" fill="#000000" fill-rule="evenodd" fill-opacity="1" /><path clip-path="url(#clip860)" d="M387.873 563.091 L387.873 561.707 Q393.19 561.707 395.935 558.876 Q396.692 558.876 396.822 559.049 Q396.951 559.222 396.951 560.021 L396.951 584.857 Q396.951 586.176 397.6 586.587 Q398.248 586.997 401.08 586.997 L402.485 586.997 L402.485 588.359 Q400.928 588.229 395.308 588.229 Q389.688 588.229 388.154 588.359 L388.154 586.997 L389.559 586.997 Q392.347 586.997 393.017 586.608 Q393.687 586.198 393.687 584.857 L393.687 561.923 Q391.374 563.091 387.873 563.091 Z" fill="#000000" fill-rule="evenodd" fill-opacity="1" /><path clip-path="url(#clip860)" d="M410.504 587.646 Q409.834 586.933 409.834 586.003 Q409.834 585.074 410.504 584.404 Q411.174 583.712 412.19 583.712 Q413.163 583.712 413.811 584.36 Q414.481 584.987 414.481 586.025 Q414.481 587.041 413.768 587.711 Q413.076 588.359 412.19 588.359 Q411.174 588.359 410.504 587.646 Z" fill="#000000" fill-rule="evenodd" fill-opacity="1" /><path clip-path="url(#clip860)" d="M420.101 574.201 Q420.101 567.695 421.744 564.15 Q424.035 558.876 429.439 558.876 Q430.585 558.876 431.774 559.2 Q432.984 559.503 434.497 560.691 Q436.032 561.88 436.961 563.826 Q438.734 567.587 438.734 574.201 Q438.734 580.664 437.091 584.187 Q434.692 589.332 429.396 589.332 Q427.407 589.332 425.376 588.316 Q423.365 587.3 422.09 584.857 Q420.101 581.204 420.101 574.201 M423.776 573.661 Q423.776 580.34 424.252 582.999 Q424.792 585.873 426.262 587.127 Q427.753 588.359 429.396 588.359 Q431.168 588.359 432.638 587.041 Q434.13 585.7 434.584 582.826 Q435.081 579.994 435.059 573.661 Q435.059 567.5 434.627 565.036 Q434.043 562.161 432.487 561.016 Q430.952 559.848 429.396 559.848 Q428.812 559.848 428.186 560.021 Q427.58 560.194 426.694 560.691 Q425.808 561.189 425.116 562.421 Q424.446 563.653 424.122 565.512 Q423.776 567.911 423.776 573.661 Z" fill="#000000" fill-rule="evenodd" fill-opacity="1" /><path clip-path="url(#clip860)" d="M685.772 563.091 L685.772 561.707 Q691.09 561.707 693.835 558.876 Q694.591 558.876 694.721 559.049 Q694.851 559.222 694.851 560.021 L694.851 584.857 Q694.851 586.176 695.499 586.587 Q696.148 586.997 698.979 586.997 L700.384 586.997 L700.384 588.359 Q698.828 588.229 693.208 588.229 Q687.588 588.229 686.053 588.359 L686.053 586.997 L687.458 586.997 Q690.247 586.997 690.917 586.608 Q691.587 586.198 691.587 584.857 L691.587 561.923 Q689.274 563.091 685.772 563.091 Z" fill="#000000" fill-rule="evenodd" fill-opacity="1" /><path clip-path="url(#clip860)" d="M708.404 587.646 Q707.733 586.933 707.733 586.003 Q707.733 585.074 708.404 584.404 Q709.074 583.712 710.09 583.712 Q711.062 583.712 711.711 584.36 Q712.381 584.987 712.381 586.025 Q712.381 587.041 711.667 587.711 Q710.976 588.359 710.09 588.359 Q709.074 588.359 708.404 587.646 Z" fill="#000000" fill-rule="evenodd" fill-opacity="1" /><path clip-path="url(#clip860)" d="M720.206 563.091 L720.206 561.707 Q725.523 561.707 728.268 558.876 Q729.025 558.876 729.154 559.049 Q729.284 559.222 729.284 560.021 L729.284 584.857 Q729.284 586.176 729.933 586.587 Q730.581 586.997 733.413 586.997 L734.818 586.997 L734.818 588.359 Q733.261 588.229 727.641 588.229 Q722.021 588.229 720.487 588.359 L720.487 586.997 L721.892 586.997 Q724.68 586.997 725.35 586.608 Q726.02 586.198 726.02 584.857 L726.02 561.923 Q723.707 563.091 720.206 563.091 Z" fill="#000000" fill-rule="evenodd" fill-opacity="1" /><path clip-path="url(#clip860)" d="M982.094 563.091 L982.094 561.707 Q987.411 561.707 990.156 558.876 Q990.913 558.876 991.043 559.049 Q991.172 559.222 991.172 560.021 L991.172 584.857 Q991.172 586.176 991.821 586.587 Q992.469 586.997 995.301 586.997 L996.706 586.997 L996.706 588.359 Q995.149 588.229 989.529 588.229 Q983.909 588.229 982.375 588.359 L982.375 586.997 L983.78 586.997 Q986.568 586.997 987.238 586.608 Q987.908 586.198 987.908 584.857 L987.908 561.923 Q985.595 563.091 982.094 563.091 Z" fill="#000000" fill-rule="evenodd" fill-opacity="1" /><path clip-path="url(#clip860)" d="M1004.73 587.646 Q1004.05 586.933 1004.05 586.003 Q1004.05 585.074 1004.73 584.404 Q1005.4 583.712 1006.41 583.712 Q1007.38 583.712 1008.03 584.36 Q1008.7 584.987 1008.7 586.025 Q1008.7 587.041 1007.99 587.711 Q1007.3 588.359 1006.41 588.359 Q1005.4 588.359 1004.73 587.646 Z" fill="#000000" fill-rule="evenodd" fill-opacity="1" /><path clip-path="url(#clip860)" d="M1014.8 588.359 Q1014.8 587.559 1014.86 587.322 Q1014.95 587.084 1015.3 586.716 L1023.79 577.249 Q1028.44 572.018 1028.44 567.457 Q1028.44 564.496 1026.88 562.377 Q1025.35 560.259 1022.51 560.259 Q1020.57 560.259 1018.93 561.448 Q1017.28 562.637 1016.53 564.755 Q1016.66 564.712 1017.11 564.712 Q1018.21 564.712 1018.82 565.404 Q1019.45 566.095 1019.45 567.025 Q1019.45 568.214 1018.67 568.797 Q1017.91 569.359 1017.15 569.359 Q1016.85 569.359 1016.44 569.294 Q1016.05 569.229 1015.42 568.624 Q1014.8 567.997 1014.8 566.895 Q1014.8 563.804 1017.13 561.34 Q1019.49 558.876 1023.08 558.876 Q1027.14 558.876 1029.8 561.297 Q1032.48 563.696 1032.48 567.457 Q1032.48 568.776 1032.07 569.986 Q1031.68 571.175 1031.14 572.104 Q1030.62 573.034 1029.19 574.525 Q1027.77 576.017 1026.62 577.076 Q1025.48 578.135 1022.9 580.383 L1018.21 584.944 L1026.19 584.944 Q1030.08 584.944 1030.38 584.598 Q1030.81 583.971 1031.36 580.664 L1032.48 580.664 L1031.23 588.359 L1014.8 588.359 Z" fill="#000000" fill-rule="evenodd" fill-opacity="1" /><polyline clip-path="url(#clip860)" style="stroke:#000000; stroke-linecap:butt; stroke-linejoin:round; stroke-width:4; stroke-opacity:1; fill:none" points="
  1034.02,541.279 1034.02,47.2441 
  "/>
<polyline clip-path="url(#clip860)" style="stroke:#000000; stroke-linecap:butt; stroke-linejoin:round; stroke-width:4; stroke-opacity:1; fill:none" points="
  89.5825,541.279 89.5825,47.2441 
  "/>
<polyline clip-path="url(#clip860)" style="stroke:#000000; stroke-linecap:butt; stroke-linejoin:round; stroke-width:4; stroke-opacity:1; fill:none" points="
  1034.02,541.279 1015.12,541.279 
  "/>
<polyline clip-path="url(#clip860)" style="stroke:#000000; stroke-linecap:butt; stroke-linejoin:round; stroke-width:4; stroke-opacity:1; fill:none" points="
  1034.02,442.472 1015.12,442.472 
  "/>
<polyline clip-path="url(#clip860)" style="stroke:#000000; stroke-linecap:butt; stroke-linejoin:round; stroke-width:4; stroke-opacity:1; fill:none" points="
  1034.02,343.665 1015.12,343.665 
  "/>
<polyline clip-path="url(#clip860)" style="stroke:#000000; stroke-linecap:butt; stroke-linejoin:round; stroke-width:4; stroke-opacity:1; fill:none" points="
  1034.02,244.858 1015.12,244.858 
  "/>
<polyline clip-path="url(#clip860)" style="stroke:#000000; stroke-linecap:butt; stroke-linejoin:round; stroke-width:4; stroke-opacity:1; fill:none" points="
  1034.02,146.051 1015.12,146.051 
  "/>
<polyline clip-path="url(#clip860)" style="stroke:#000000; stroke-linecap:butt; stroke-linejoin:round; stroke-width:4; stroke-opacity:1; fill:none" points="
  1034.02,47.2441 1015.12,47.2441 
  "/>
<path clip-path="url(#clip860)" d="M1051.42 542.241 Q1051.42 535.735 1053.06 532.19 Q1055.35 526.916 1060.75 526.916 Q1061.9 526.916 1063.09 527.24 Q1064.3 527.543 1065.81 528.731 Q1067.35 529.92 1068.28 531.866 Q1070.05 535.627 1070.05 542.241 Q1070.05 548.704 1068.41 552.227 Q1066.01 557.372 1060.71 557.372 Q1058.72 557.372 1056.69 556.356 Q1054.68 555.34 1053.4 552.897 Q1051.42 549.244 1051.42 542.241 M1055.09 541.701 Q1055.09 548.38 1055.57 551.039 Q1056.11 553.913 1057.58 555.167 Q1059.07 556.399 1060.71 556.399 Q1062.48 556.399 1063.95 555.081 Q1065.44 553.74 1065.9 550.866 Q1066.4 548.034 1066.37 541.701 Q1066.37 535.54 1065.94 533.076 Q1065.36 530.201 1063.8 529.056 Q1062.27 527.888 1060.71 527.888 Q1060.13 527.888 1059.5 528.061 Q1058.89 528.234 1058.01 528.731 Q1057.12 529.229 1056.43 530.461 Q1055.76 531.693 1055.44 533.552 Q1055.09 535.951 1055.09 541.701 Z" fill="#000000" fill-rule="evenodd" fill-opacity="1" /><path clip-path="url(#clip860)" d="M1076.25 555.686 Q1075.58 554.973 1075.58 554.043 Q1075.58 553.114 1076.25 552.444 Q1076.92 551.752 1077.94 551.752 Q1078.91 551.752 1079.56 552.4 Q1080.23 553.027 1080.23 554.065 Q1080.23 555.081 1079.52 555.751 Q1078.82 556.399 1077.94 556.399 Q1076.92 556.399 1076.25 555.686 Z" fill="#000000" fill-rule="evenodd" fill-opacity="1" /><path clip-path="url(#clip860)" d="M1085.85 542.241 Q1085.85 535.735 1087.49 532.19 Q1089.78 526.916 1095.19 526.916 Q1096.33 526.916 1097.52 527.24 Q1098.73 527.543 1100.25 528.731 Q1101.78 529.92 1102.71 531.866 Q1104.48 535.627 1104.48 542.241 Q1104.48 548.704 1102.84 552.227 Q1100.44 557.372 1095.14 557.372 Q1093.16 557.372 1091.12 556.356 Q1089.11 555.34 1087.84 552.897 Q1085.85 549.244 1085.85 542.241 M1089.52 541.701 Q1089.52 548.38 1090 551.039 Q1090.54 553.913 1092.01 555.167 Q1093.5 556.399 1095.14 556.399 Q1096.92 556.399 1098.39 555.081 Q1099.88 553.74 1100.33 550.866 Q1100.83 548.034 1100.81 541.701 Q1100.81 535.54 1100.37 533.076 Q1099.79 530.201 1098.23 529.056 Q1096.7 527.888 1095.14 527.888 Q1094.56 527.888 1093.93 528.061 Q1093.33 528.234 1092.44 528.731 Q1091.56 529.229 1090.86 530.461 Q1090.19 531.693 1089.87 533.552 Q1089.52 535.951 1089.52 541.701 Z" fill="#000000" fill-rule="evenodd" fill-opacity="1" /><path clip-path="url(#clip860)" d="M1051.42 443.434 Q1051.42 436.928 1053.06 433.383 Q1055.35 428.109 1060.75 428.109 Q1061.9 428.109 1063.09 428.433 Q1064.3 428.736 1065.81 429.924 Q1067.35 431.113 1068.28 433.059 Q1070.05 436.82 1070.05 443.434 Q1070.05 449.897 1068.41 453.42 Q1066.01 458.565 1060.71 458.565 Q1058.72 458.565 1056.69 457.549 Q1054.68 456.533 1053.4 454.09 Q1051.42 450.437 1051.42 443.434 M1055.09 442.894 Q1055.09 449.573 1055.57 452.232 Q1056.11 455.106 1057.58 456.36 Q1059.07 457.592 1060.71 457.592 Q1062.48 457.592 1063.95 456.274 Q1065.44 454.933 1065.9 452.059 Q1066.4 449.227 1066.37 442.894 Q1066.37 436.733 1065.94 434.269 Q1065.36 431.394 1063.8 430.249 Q1062.27 429.081 1060.71 429.081 Q1060.13 429.081 1059.5 429.254 Q1058.89 429.427 1058.01 429.924 Q1057.12 430.422 1056.43 431.654 Q1055.76 432.886 1055.44 434.745 Q1055.09 437.144 1055.09 442.894 Z" fill="#000000" fill-rule="evenodd" fill-opacity="1" /><path clip-path="url(#clip860)" d="M1076.25 456.879 Q1075.58 456.166 1075.58 455.236 Q1075.58 454.307 1076.25 453.637 Q1076.92 452.945 1077.94 452.945 Q1078.91 452.945 1079.56 453.593 Q1080.23 454.22 1080.23 455.258 Q1080.23 456.274 1079.52 456.944 Q1078.82 457.592 1077.94 457.592 Q1076.92 457.592 1076.25 456.879 Z" fill="#000000" fill-rule="evenodd" fill-opacity="1" /><path clip-path="url(#clip860)" d="M1086.32 457.592 Q1086.32 456.792 1086.39 456.555 Q1086.48 456.317 1086.82 455.949 L1095.32 446.482 Q1099.96 441.251 1099.96 436.69 Q1099.96 433.729 1098.41 431.61 Q1096.87 429.492 1094.04 429.492 Q1092.1 429.492 1090.45 430.681 Q1088.81 431.87 1088.05 433.988 Q1088.18 433.945 1088.64 433.945 Q1089.74 433.945 1090.35 434.637 Q1090.97 435.328 1090.97 436.258 Q1090.97 437.447 1090.19 438.03 Q1089.44 438.592 1088.68 438.592 Q1088.38 438.592 1087.97 438.527 Q1087.58 438.462 1086.95 437.857 Q1086.32 437.23 1086.32 436.128 Q1086.32 433.037 1088.66 430.573 Q1091.02 428.109 1094.6 428.109 Q1098.67 428.109 1101.33 430.53 Q1104.01 432.929 1104.01 436.69 Q1104.01 438.009 1103.6 439.219 Q1103.21 440.408 1102.67 441.337 Q1102.15 442.267 1100.72 443.758 Q1099.29 445.25 1098.15 446.309 Q1097 447.368 1094.43 449.616 L1089.74 454.177 L1097.72 454.177 Q1101.61 454.177 1101.91 453.831 Q1102.34 453.204 1102.88 449.897 L1104.01 449.897 L1102.75 457.592 L1086.32 457.592 Z" fill="#000000" fill-rule="evenodd" fill-opacity="1" /><path clip-path="url(#clip860)" d="M1051.42 344.627 Q1051.42 338.121 1053.06 334.576 Q1055.35 329.302 1060.75 329.302 Q1061.9 329.302 1063.09 329.626 Q1064.3 329.929 1065.81 331.117 Q1067.35 332.306 1068.28 334.252 Q1070.05 338.013 1070.05 344.627 Q1070.05 351.09 1068.41 354.613 Q1066.01 359.758 1060.71 359.758 Q1058.72 359.758 1056.69 358.742 Q1054.68 357.726 1053.4 355.283 Q1051.42 351.63 1051.42 344.627 M1055.09 344.087 Q1055.09 350.766 1055.57 353.425 Q1056.11 356.299 1057.58 357.553 Q1059.07 358.785 1060.71 358.785 Q1062.48 358.785 1063.95 357.467 Q1065.44 356.126 1065.9 353.252 Q1066.4 350.42 1066.37 344.087 Q1066.37 337.926 1065.94 335.462 Q1065.36 332.587 1063.8 331.442 Q1062.27 330.274 1060.71 330.274 Q1060.13 330.274 1059.5 330.447 Q1058.89 330.62 1058.01 331.117 Q1057.12 331.615 1056.43 332.847 Q1055.76 334.079 1055.44 335.938 Q1055.09 338.337 1055.09 344.087 Z" fill="#000000" fill-rule="evenodd" fill-opacity="1" /><path clip-path="url(#clip860)" d="M1076.25 358.072 Q1075.58 357.359 1075.58 356.429 Q1075.58 355.5 1076.25 354.83 Q1076.92 354.138 1077.94 354.138 Q1078.91 354.138 1079.56 354.786 Q1080.23 355.413 1080.23 356.451 Q1080.23 357.467 1079.52 358.137 Q1078.82 358.785 1077.94 358.785 Q1076.92 358.785 1076.25 358.072 Z" fill="#000000" fill-rule="evenodd" fill-opacity="1" /><path clip-path="url(#clip860)" d="M1085.35 351.479 L1085.35 350.117 L1098.95 329.345 Q1099.29 328.805 1099.83 328.826 Q1100.33 328.826 1100.44 329.021 Q1100.55 329.215 1100.55 329.972 L1100.55 350.117 L1104.98 350.117 L1104.98 351.479 L1100.55 351.479 L1100.55 355.327 Q1100.55 356.602 1101.07 357.013 Q1101.61 357.423 1103.9 357.423 L1104.83 357.423 L1104.83 358.785 Q1103.01 358.655 1098.82 358.655 Q1094.65 358.655 1092.83 358.785 L1092.83 357.423 L1093.76 357.423 Q1096.05 357.423 1096.59 357.034 Q1097.13 356.624 1097.13 355.327 L1097.13 351.479 L1085.35 351.479 M1086.61 350.117 L1097.39 350.117 L1097.39 333.603 L1086.61 350.117 Z" fill="#000000" fill-rule="evenodd" fill-opacity="1" /><path clip-path="url(#clip860)" d="M1051.42 245.82 Q1051.42 239.314 1053.06 235.769 Q1055.35 230.495 1060.75 230.495 Q1061.9 230.495 1063.09 230.819 Q1064.3 231.122 1065.81 232.31 Q1067.35 233.499 1068.28 235.445 Q1070.05 239.206 1070.05 245.82 Q1070.05 252.283 1068.41 255.806 Q1066.01 260.951 1060.71 260.951 Q1058.72 260.951 1056.69 259.935 Q1054.68 258.919 1053.4 256.476 Q1051.42 252.823 1051.42 245.82 M1055.09 245.28 Q1055.09 251.959 1055.57 254.617 Q1056.11 257.492 1057.58 258.746 Q1059.07 259.978 1060.71 259.978 Q1062.48 259.978 1063.95 258.66 Q1065.44 257.319 1065.9 254.445 Q1066.4 251.613 1066.37 245.28 Q1066.37 239.119 1065.94 236.655 Q1065.36 233.78 1063.8 232.635 Q1062.27 231.467 1060.71 231.467 Q1060.13 231.467 1059.5 231.64 Q1058.89 231.813 1058.01 232.31 Q1057.12 232.808 1056.43 234.04 Q1055.76 235.272 1055.44 237.131 Q1055.09 239.53 1055.09 245.28 Z" fill="#000000" fill-rule="evenodd" fill-opacity="1" /><path clip-path="url(#clip860)" d="M1076.25 259.265 Q1075.58 258.551 1075.58 257.622 Q1075.58 256.693 1076.25 256.022 Q1076.92 255.331 1077.94 255.331 Q1078.91 255.331 1079.56 255.979 Q1080.23 256.606 1080.23 257.644 Q1080.23 258.66 1079.52 259.33 Q1078.82 259.978 1077.94 259.978 Q1076.92 259.978 1076.25 259.265 Z" fill="#000000" fill-rule="evenodd" fill-opacity="1" /><path clip-path="url(#clip860)" d="M1085.98 245.993 Q1085.98 239.033 1089.52 234.775 Q1093.07 230.495 1097.63 230.495 Q1100.29 230.495 1101.76 231.856 Q1103.25 233.197 1103.25 235.272 Q1103.25 236.417 1102.58 236.914 Q1101.91 237.412 1101.22 237.412 Q1100.42 237.412 1099.79 236.871 Q1099.16 236.331 1099.16 235.358 Q1099.16 233.37 1101.61 233.37 Q1100.46 231.597 1097.72 231.597 Q1096.87 231.597 1096.01 231.856 Q1095.14 232.094 1094.02 232.916 Q1092.9 233.737 1092.03 235.034 Q1091.17 236.331 1090.56 238.773 Q1089.96 241.216 1089.96 244.393 L1089.96 245.453 Q1091.77 241.065 1095.49 241.086 Q1099.21 241.086 1101.78 243.918 Q1104.35 246.749 1104.35 250.943 Q1104.35 255.244 1101.67 258.098 Q1098.99 260.951 1095.23 260.951 Q1093.54 260.951 1092.01 260.238 Q1090.5 259.546 1089.07 257.946 Q1087.66 256.347 1086.82 253.277 Q1085.98 250.208 1085.98 245.993 M1090.04 249.97 Q1090.04 254.315 1090.84 256.39 Q1090.97 256.736 1091.25 257.211 Q1091.56 257.687 1092.05 258.314 Q1092.57 258.919 1093.41 259.33 Q1094.26 259.719 1095.23 259.719 Q1098.19 259.719 1099.62 256.844 Q1100.37 255.244 1100.37 250.9 Q1100.37 246.468 1099.57 244.847 Q1098.21 242.102 1095.45 242.102 Q1093.59 242.102 1092.29 243.377 Q1091.02 244.653 1090.52 246.36 Q1090.04 248.068 1090.04 249.97 Z" fill="#000000" fill-rule="evenodd" fill-opacity="1" /><path clip-path="url(#clip860)" d="M1051.42 147.013 Q1051.42 140.507 1053.06 136.962 Q1055.35 131.688 1060.75 131.688 Q1061.9 131.688 1063.09 132.012 Q1064.3 132.314 1065.81 133.503 Q1067.35 134.692 1068.28 136.638 Q1070.05 140.399 1070.05 147.013 Q1070.05 153.476 1068.41 156.999 Q1066.01 162.144 1060.71 162.144 Q1058.72 162.144 1056.69 161.128 Q1054.68 160.112 1053.4 157.669 Q1051.42 154.016 1051.42 147.013 M1055.09 146.473 Q1055.09 153.152 1055.57 155.81 Q1056.11 158.685 1057.58 159.939 Q1059.07 161.171 1060.71 161.171 Q1062.48 161.171 1063.95 159.853 Q1065.44 158.512 1065.9 155.638 Q1066.4 152.806 1066.37 146.473 Q1066.37 140.312 1065.94 137.848 Q1065.36 134.973 1063.8 133.828 Q1062.27 132.66 1060.71 132.66 Q1060.13 132.66 1059.5 132.833 Q1058.89 133.006 1058.01 133.503 Q1057.12 134 1056.43 135.233 Q1055.76 136.465 1055.44 138.324 Q1055.09 140.723 1055.09 146.473 Z" fill="#000000" fill-rule="evenodd" fill-opacity="1" /><path clip-path="url(#clip860)" d="M1076.25 160.458 Q1075.58 159.744 1075.58 158.815 Q1075.58 157.886 1076.25 157.215 Q1076.92 156.524 1077.94 156.524 Q1078.91 156.524 1079.56 157.172 Q1080.23 157.799 1080.23 158.837 Q1080.23 159.853 1079.52 160.523 Q1078.82 161.171 1077.94 161.171 Q1076.92 161.171 1076.25 160.458 Z" fill="#000000" fill-rule="evenodd" fill-opacity="1" /><path clip-path="url(#clip860)" d="M1085.98 154.492 Q1085.98 149.542 1092.36 146.343 Q1089.61 144.484 1089.11 143.944 Q1087.17 141.782 1087.17 139.08 Q1087.17 135.989 1089.5 133.849 Q1091.86 131.688 1095.19 131.688 Q1098.36 131.688 1100.76 133.525 Q1103.16 135.362 1103.16 138.28 Q1103.16 142.387 1097.8 145.154 Q1101.35 147.359 1102.19 148.288 Q1104.35 150.688 1104.35 153.735 Q1104.35 157.28 1101.63 159.723 Q1098.9 162.144 1095.14 162.144 Q1091.47 162.144 1088.72 160.004 Q1085.98 157.864 1085.98 154.492 M1088.18 154.492 Q1088.18 157.237 1090.24 159.074 Q1092.31 160.912 1095.19 160.912 Q1097.98 160.912 1100.05 159.312 Q1102.15 157.713 1102.15 155.335 Q1102.15 154.405 1101.82 153.606 Q1101.52 152.806 1100.89 152.179 Q1100.29 151.531 1099.9 151.25 Q1099.53 150.947 1098.82 150.45 L1093.37 147.013 Q1088.18 149.888 1088.18 154.492 M1089.11 137.351 Q1089.11 139.469 1091.34 140.939 L1096.83 144.484 Q1101.22 141.912 1101.22 138.28 Q1101.22 135.924 1099.42 134.368 Q1097.63 132.79 1095.14 132.79 Q1092.7 132.79 1090.91 134.087 Q1089.11 135.362 1089.11 137.351 Z" fill="#000000" fill-rule="evenodd" fill-opacity="1" /><path clip-path="url(#clip860)" d="M1051.42 37.0956 L1051.42 35.7123 Q1056.73 35.7123 1059.48 32.8806 Q1060.23 32.8806 1060.36 33.0536 Q1060.49 33.2265 1060.49 34.0263 L1060.49 58.8624 Q1060.49 60.1809 1061.14 60.5916 Q1061.79 61.0023 1064.62 61.0023 L1066.03 61.0023 L1066.03 62.3641 Q1064.47 62.2344 1058.85 62.2344 Q1053.23 62.2344 1051.7 62.3641 L1051.7 61.0023 L1053.1 61.0023 Q1055.89 61.0023 1056.56 60.6132 Q1057.23 60.2026 1057.23 58.8624 L1057.23 35.9284 Q1054.92 37.0956 1051.42 37.0956 Z" fill="#000000" fill-rule="evenodd" fill-opacity="1" /><path clip-path="url(#clip860)" d="M1074.05 61.6508 Q1073.38 60.9375 1073.38 60.008 Q1073.38 59.0785 1074.05 58.4085 Q1074.72 57.7168 1075.73 57.7168 Q1076.71 57.7168 1077.35 58.3652 Q1078.02 58.9921 1078.02 60.0296 Q1078.02 61.0456 1077.31 61.7156 Q1076.62 62.3641 1075.73 62.3641 Q1074.72 62.3641 1074.05 61.6508 Z" fill="#000000" fill-rule="evenodd" fill-opacity="1" /><path clip-path="url(#clip860)" d="M1083.64 48.206 Q1083.64 41.6997 1085.29 38.1548 Q1087.58 32.8806 1092.98 32.8806 Q1094.13 32.8806 1095.32 33.2049 Q1096.53 33.5075 1098.04 34.6963 Q1099.57 35.8852 1100.5 37.8306 Q1102.28 41.5917 1102.28 48.206 Q1102.28 54.669 1100.63 58.1923 Q1098.23 63.3368 1092.94 63.3368 Q1090.95 63.3368 1088.92 62.3209 Q1086.91 61.3049 1085.63 58.8624 Q1083.64 55.2094 1083.64 48.206 M1087.32 47.6656 Q1087.32 54.3448 1087.79 57.0035 Q1088.33 59.8783 1089.8 61.132 Q1091.3 62.3641 1092.94 62.3641 Q1094.71 62.3641 1096.18 61.0456 Q1097.67 59.7054 1098.13 56.8305 Q1098.62 53.9989 1098.6 47.6656 Q1098.6 41.5052 1098.17 39.041 Q1097.59 36.1662 1096.03 35.0206 Q1094.5 33.8533 1092.94 33.8533 Q1092.36 33.8533 1091.73 34.0263 Q1091.12 34.1992 1090.24 34.6963 Q1089.35 35.1935 1088.66 36.4256 Q1087.99 37.6576 1087.66 39.5166 Q1087.32 41.9159 1087.32 47.6656 Z" fill="#000000" fill-rule="evenodd" fill-opacity="1" /><path clip-path="url(#clip860)" d="M1133.86 273.991 Q1135.44 273.991 1138.92 274.851 Q1142.41 275.712 1144.78 276.757 Q1149.95 278.991 1149.95 282.844 Q1149.95 283.316 1149.91 283.787 Q1149.87 284.238 1149.68 284.914 Q1149.5 285.591 1149.21 286.144 Q1148.9 286.697 1148.33 287.251 Q1147.75 287.784 1147 288.091 Q1149.95 289.792 1149.95 292.456 Q1149.95 295.039 1148.64 296.74 Q1147.32 298.42 1144.64 298.42 Q1143.43 298.42 1141.65 297.928 Q1139.86 297.437 1136.17 296.063 Q1134.27 295.305 1133.22 295.305 Q1132.75 295.305 1132.44 295.408 Q1132.14 295.51 1132.03 295.715 Q1131.91 295.899 1131.89 296.022 Q1131.85 296.145 1131.85 296.35 Q1131.85 297.58 1133.1 298.687 Q1134.33 299.793 1137.06 300.593 Q1137.57 300.757 1137.69 300.859 Q1137.81 300.962 1137.81 301.269 Q1137.79 301.781 1137.38 301.781 Q1137.22 301.781 1136.58 301.597 Q1135.93 301.412 1134.97 300.982 Q1133.98 300.531 1133.1 299.916 Q1132.2 299.302 1131.56 298.338 Q1130.93 297.355 1130.93 296.227 Q1130.93 294.711 1131.93 293.748 Q1132.94 292.784 1134.37 292.784 Q1134.78 292.784 1135.23 292.887 Q1135.66 292.989 1135.95 293.092 Q1136.22 293.174 1137.06 293.502 Q1140.6 294.854 1142.3 295.285 Q1144 295.694 1145.19 295.694 Q1145.58 295.694 1145.89 295.674 Q1146.2 295.654 1146.83 295.49 Q1147.47 295.305 1147.9 294.977 Q1148.31 294.649 1148.66 293.973 Q1149 293.276 1149 292.333 Q1149 289.976 1145.48 288.46 Q1145.27 288.501 1144.74 288.501 Q1143.55 288.501 1141.95 288.132 Q1141.59 288.029 1139.23 287.435 Q1136.85 286.841 1134.78 286.328 Q1132.69 285.796 1132.57 285.734 Q1131.99 285.529 1131.69 285.078 Q1131.38 284.627 1131.38 284.177 Q1131.38 283.664 1131.69 283.316 Q1131.99 282.967 1132.53 282.967 Q1132.63 282.967 1133.1 283.09 Q1133.55 283.193 1134.23 283.357 Q1134.9 283.521 1135.25 283.603 L1142.3 285.365 Q1143.94 285.816 1145.36 285.816 Q1147.14 285.816 1148.08 285.017 Q1149 284.217 1149 282.721 Q1149 279.914 1145.32 278.11 Q1143.72 277.29 1141.22 276.553 Q1138.72 275.794 1137.63 275.794 Q1135.58 275.794 1134.06 277.311 Q1133.78 277.639 1133.55 277.782 Q1133.31 277.926 1132.94 277.926 Q1132.24 277.926 1131.58 277.27 Q1130.93 276.614 1130.93 275.835 Q1130.93 275.138 1131.62 274.565 Q1132.3 273.991 1133.86 273.991 Z" fill="#000000" fill-rule="evenodd" fill-opacity="1" /><polyline clip-path="url(#clip862)" style="stroke:#c271d2; stroke-linecap:butt; stroke-linejoin:round; stroke-width:4.8; stroke-opacity:1; fill:none" stroke-dasharray="2, 5" points="
  116.312,308.879 118.545,306.87 120.778,304.843 123.011,302.799 125.244,300.739 127.477,298.661 129.71,296.567 131.943,294.456 134.176,292.327 136.409,290.182 
  138.642,288.021 140.875,285.842 143.108,283.647 145.341,281.435 147.574,279.207 149.807,276.963 152.04,274.702 154.273,272.425 156.506,270.132 158.739,267.823 
  160.972,265.499 163.205,263.159 165.438,260.803 167.671,258.433 169.904,256.047 172.137,253.647 174.37,251.232 176.603,248.802 178.836,246.359 181.069,243.902 
  183.302,241.432 185.535,238.948 187.768,236.452 190.001,233.943 192.234,231.422 194.467,228.889 196.7,226.345 198.933,223.79 201.166,221.225 203.399,218.649 
  205.632,216.064 207.866,213.47 210.099,210.867 212.332,208.256 214.565,205.637 216.798,203.012 219.031,200.38 221.264,197.742 223.497,195.099 225.73,192.452 
  227.963,189.801 230.196,187.147 232.429,184.49 234.662,181.832 236.895,179.172 239.128,176.513 241.361,173.854 243.594,171.197 245.827,168.542 248.06,165.89 
  250.293,163.242 252.526,160.599 254.759,157.962 256.992,155.332 259.225,152.709 261.458,150.095 263.691,147.491 265.924,144.898 268.157,142.317 270.39,139.748 
  272.623,137.194 274.856,134.654 277.089,132.131 279.322,129.624 281.555,127.136 283.788,124.668 286.021,122.22 288.254,119.794 290.487,117.391 292.72,115.013 
  294.953,112.659 297.186,110.332 299.419,108.033 301.652,105.763 303.885,103.523 306.118,101.314 308.351,99.1379 310.584,96.9955 312.817,94.8881 315.05,92.8168 
  317.283,90.7829 319.516,88.7875 321.75,86.8317 323.983,84.9169 326.216,83.044 328.449,81.2142 330.682,79.4287 332.915,77.6885 335.148,75.9948 337.381,74.3485 
  339.614,72.7506 341.847,71.2023 344.08,69.7045 346.313,68.2582 348.546,66.8642 350.779,65.5234 353.012,64.2368 355.245,63.0051 357.478,61.8292 359.711,60.7098 
  361.944,59.6476 364.177,58.6433 366.41,57.6975 368.643,56.8109 370.876,55.984 373.109,55.2173 375.342,54.5112 377.575,53.8663 379.808,53.2828 382.041,52.7612 
  384.274,52.3016 386.507,51.9043 388.74,51.5696 390.973,51.2975 393.206,51.0882 395.439,50.9417 397.672,50.858 399.905,50.837 402.138,50.8786 404.371,50.9828 
  406.604,51.1492 408.837,51.3777 411.07,51.6679 413.303,52.0195 415.536,52.4322 417.769,52.9055 420.002,53.439 422.235,54.0321 424.468,54.6843 426.701,55.3949 
  428.934,56.1634 431.167,56.9891 433.4,57.8713 435.634,58.8092 437.867,59.8021 440.1,60.8491 442.333,61.9494 444.566,63.1021 446.799,64.3063 449.032,65.5612 
  451.265,66.8657 453.498,68.2188 455.731,69.6196 457.964,71.0671 460.197,72.5602 462.43,74.0978 464.663,75.6789 466.896,77.3025 469.129,78.9673 471.362,80.6722 
  473.595,82.4163 475.828,84.1983 478.061,86.0171 480.294,87.8716 482.527,89.7606 484.76,91.6829 486.993,93.6375 489.226,95.6232 491.459,97.6388 493.692,99.6833 
  495.925,101.755 498.158,103.854 500.391,105.978 502.624,108.126 504.857,110.298 507.09,112.491 509.323,114.706 511.556,116.941 513.789,119.194 516.022,121.465 
  518.255,123.753 520.488,126.057 522.721,128.375 524.954,130.707 527.187,133.052 529.42,135.408 531.653,137.776 533.886,140.153 536.119,142.54 538.352,144.934 
  540.585,147.336 542.818,149.744 545.051,152.158 547.284,154.576 549.518,156.998 551.751,159.424 553.984,161.852 556.217,164.282 558.45,166.712 560.683,169.143 
  562.916,171.573 565.149,174.003 567.382,176.43 569.615,178.855 571.848,181.278 574.081,183.696 576.314,186.111 578.547,188.521 580.78,190.926 583.013,193.325 
  585.246,195.718 587.479,198.104 589.712,200.483 591.945,202.855 594.178,205.219 596.411,207.574 598.644,209.921 600.877,212.258 603.11,214.586 605.343,216.904 
  607.576,219.212 609.809,221.51 612.042,223.796 614.275,226.072 616.508,228.336 618.741,230.589 620.974,232.83 623.207,235.059 625.44,237.276 627.673,239.48 
  629.906,241.671 632.139,243.85 634.372,246.015 636.605,248.168 638.838,250.307 641.071,252.433 643.304,254.545 645.537,256.643 647.77,258.728 650.003,260.798 
  652.236,262.855 654.469,264.897 656.702,266.926 658.935,268.94 661.168,270.94 663.401,272.925 665.635,274.896 667.868,276.853 670.101,278.795 672.334,280.722 
  674.567,282.636 676.8,284.534 679.033,286.418 681.266,288.288 683.499,290.143 685.732,291.984 687.965,293.81 690.198,295.621 692.431,297.419 694.664,299.201 
  696.897,300.97 699.13,302.724 701.363,304.463 703.596,306.189 705.829,307.9 708.062,309.597 710.295,311.28 712.528,312.948 714.761,314.603 716.994,316.244 
  719.227,317.871 721.46,319.484 723.693,321.084 725.926,322.669 728.159,324.242 730.392,325.8 732.625,327.345 734.858,328.877 737.091,330.396 739.324,331.901 
  741.557,333.393 743.79,334.872 746.023,336.338 748.256,337.792 750.489,339.232 752.722,340.66 754.955,342.075 757.188,343.478 759.421,344.868 761.654,346.246 
  763.887,347.612 766.12,348.965 768.353,350.307 770.586,351.636 772.819,352.954 775.052,354.26 777.285,355.554 779.519,356.837 781.752,358.108 783.985,359.368 
  786.218,360.616 788.451,361.854 790.684,363.08 792.917,364.295 795.15,365.499 797.383,366.693 799.616,367.875 801.849,369.048 804.082,370.209 806.315,371.36 
  808.548,372.501 810.781,373.631 813.014,374.752 815.247,375.862 817.48,376.962 819.713,378.053 821.946,379.133 824.179,380.204 826.412,381.266 828.645,382.317 
  830.878,383.36 833.111,384.393 835.344,385.417 837.577,386.431 839.81,387.437 842.043,388.433 844.276,389.421 846.509,390.4 848.742,391.37 850.975,392.331 
  853.208,393.284 855.441,394.228 857.674,395.164 859.907,396.092 862.14,397.011 864.373,397.922 866.606,398.826 868.839,399.721 871.072,400.608 873.305,401.487 
  875.538,402.359 877.771,403.223 880.004,404.079 882.237,404.928 884.47,405.77 886.703,406.604 888.936,407.43 891.169,408.25 893.403,409.062 895.636,409.867 
  897.869,410.665 900.102,411.457 902.335,412.241 904.568,413.019 906.801,413.789 909.034,414.554 911.267,415.311 913.5,416.062 915.733,416.806 917.966,417.545 
  920.199,418.276 922.432,419.002 924.665,419.721 926.898,420.434 929.131,421.141 931.364,421.842 933.597,422.537 935.83,423.226 938.063,423.909 940.296,424.587 
  942.529,425.258 944.762,425.924 946.995,426.585 949.228,427.24 951.461,427.889 953.694,428.533 955.927,429.171 958.16,429.804 960.393,430.432 962.626,431.055 
  964.859,431.672 967.092,432.285 969.325,432.892 971.558,433.494 973.791,434.091 976.024,434.683 978.257,435.271 980.49,435.853 982.723,436.431 984.956,437.004 
  987.189,437.572 989.422,438.136 991.655,438.695 993.888,439.25 996.121,439.8 998.354,440.346 1000.59,440.887 1002.82,441.424 1005.05,441.956 1007.29,442.484 
  
  "/>
<polyline clip-path="url(#clip862)" style="stroke:#3da44d; stroke-linecap:butt; stroke-linejoin:round; stroke-width:4.8; stroke-opacity:1; fill:none" stroke-dasharray="2, 5" points="
  116.312,264.16 118.545,262.149 120.778,260.126 123.011,258.091 125.244,256.043 127.477,253.984 129.71,251.913 131.943,249.83 134.176,247.736 136.409,245.631 
  138.642,243.514 140.875,241.386 143.108,239.248 145.341,237.099 147.574,234.939 149.807,232.77 152.04,230.59 154.273,228.4 156.506,226.201 158.739,223.993 
  160.972,221.776 163.205,219.55 165.438,217.315 167.671,215.072 169.904,212.822 172.137,210.564 174.37,208.299 176.603,206.027 178.836,203.748 181.069,201.463 
  183.302,199.173 185.535,196.877 187.768,194.577 190.001,192.271 192.234,189.962 194.467,187.649 196.7,185.333 198.933,183.015 201.166,180.694 203.399,178.372 
  205.632,176.048 207.866,173.724 210.099,171.399 212.332,169.076 214.565,166.753 216.798,164.432 219.031,162.113 221.264,159.797 223.497,157.485 225.73,155.177 
  227.963,152.873 230.196,150.575 232.429,148.284 234.662,145.999 236.895,143.722 239.128,141.453 241.361,139.193 243.594,136.943 245.827,134.703 248.06,132.475 
  250.293,130.259 252.526,128.056 254.759,125.867 256.992,123.692 259.225,121.533 261.458,119.39 263.691,117.263 265.924,115.155 268.157,113.066 270.39,110.996 
  272.623,108.946 274.856,106.918 277.089,104.913 279.322,102.93 281.555,100.971 283.788,99.0375 286.021,97.1295 288.254,95.2482 290.487,93.3944 292.72,91.5691 
  294.953,89.7731 297.186,88.0074 299.419,86.2727 301.652,84.5701 303.885,82.9003 306.118,81.2641 308.351,79.6626 310.584,78.0964 312.817,76.5665 315.05,75.0737 
  317.283,73.6187 319.516,72.2025 321.75,70.8256 323.983,69.4891 326.216,68.1935 328.449,66.9397 330.682,65.7283 332.915,64.5601 335.148,63.4358 337.381,62.3559 
  339.614,61.3212 341.847,60.3322 344.08,59.3897 346.313,58.494 348.546,57.6458 350.779,56.8456 353.012,56.0939 355.245,55.3912 357.478,54.7378 359.711,54.1342 
  361.944,53.5808 364.177,53.0779 366.41,52.6258 368.643,52.2249 370.876,51.8753 373.109,51.5774 375.342,51.3312 377.575,51.1369 379.808,50.9947 382.041,50.9047 
  384.274,50.8669 386.507,50.8813 388.74,50.948 390.973,51.0669 393.206,51.2378 395.439,51.4608 397.672,51.7356 399.905,52.0622 402.138,52.4402 404.371,52.8694 
  406.604,53.3496 408.837,53.8805 411.07,54.4617 413.303,55.0929 415.536,55.7737 417.769,56.5036 420.002,57.2823 422.235,58.1091 424.468,58.9837 426.701,59.9054 
  428.934,60.8738 431.167,61.8883 433.4,62.9481 435.634,64.0528 437.867,65.2016 440.1,66.3939 442.333,67.629 444.566,68.9062 446.799,70.2247 449.032,71.5838 
  451.265,72.9828 453.498,74.4208 455.731,75.897 457.964,77.4107 460.197,78.9611 462.43,80.5472 464.663,82.1683 466.896,83.8234 469.129,85.5119 471.362,87.2327 
  473.595,88.985 475.828,90.7679 478.061,92.5806 480.294,94.4222 482.527,96.2917 484.76,98.1883 486.993,100.111 489.226,102.059 491.459,104.032 493.692,106.028 
  495.925,108.047 498.158,110.087 500.391,112.148 502.624,114.23 504.857,116.33 507.09,118.449 509.323,120.585 511.556,122.738 513.789,124.907 516.022,127.09 
  518.255,129.288 520.488,131.499 522.721,133.722 524.954,135.957 527.187,138.203 529.42,140.46 531.653,142.725 533.886,144.999 536.119,147.282 538.352,149.571 
  540.585,151.867 542.818,154.169 545.051,156.475 547.284,158.787 549.518,161.102 551.751,163.42 553.984,165.741 556.217,168.064 558.45,170.388 560.683,172.713 
  562.916,175.038 565.149,177.363 567.382,179.686 569.615,182.009 571.848,184.329 574.081,186.647 576.314,188.962 578.547,191.274 580.78,193.582 583.013,195.885 
  585.246,198.184 587.479,200.477 589.712,202.765 591.945,205.048 594.178,207.323 596.411,209.592 598.644,211.854 600.877,214.109 603.11,216.356 605.343,218.595 
  607.576,220.826 609.809,223.048 612.042,225.261 614.275,227.465 616.508,229.659 618.741,231.844 620.974,234.019 623.207,236.184 625.44,238.338 627.673,240.482 
  629.906,242.615 632.139,244.738 634.372,246.849 636.605,248.949 638.838,251.037 641.071,253.114 643.304,255.179 645.537,257.232 647.77,259.274 650.003,261.303 
  652.236,263.32 654.469,265.325 656.702,267.317 658.935,269.297 661.168,271.264 663.401,273.219 665.635,275.161 667.868,277.09 670.101,279.006 672.334,280.91 
  674.567,282.801 676.8,284.678 679.033,286.543 681.266,288.395 683.499,290.233 685.732,292.059 687.965,293.872 690.198,295.671 692.431,297.457 694.664,299.231 
  696.897,300.991 699.13,302.738 701.363,304.473 703.596,306.194 705.829,307.902 708.062,309.597 710.295,311.28 712.528,312.949 714.761,314.606 716.994,316.249 
  719.227,317.88 721.46,319.498 723.693,321.103 725.926,322.696 728.159,324.276 730.392,325.843 732.625,327.398 734.858,328.941 737.091,330.471 739.324,331.988 
  741.557,333.494 743.79,334.987 746.023,336.467 748.256,337.936 750.489,339.393 752.722,340.838 754.955,342.27 757.188,343.691 759.421,345.1 761.654,346.498 
  763.887,347.884 766.12,349.258 768.353,350.621 770.586,351.972 772.819,353.312 775.052,354.641 777.285,355.958 779.519,357.265 781.752,358.56 783.985,359.845 
  786.218,361.118 788.451,362.381 790.684,363.633 792.917,364.875 795.15,366.106 797.383,367.326 799.616,368.536 801.849,369.736 804.082,370.925 806.315,372.104 
  808.548,373.274 810.781,374.433 813.014,375.582 815.247,376.722 817.48,377.851 819.713,378.971 821.946,380.082 824.179,381.183 826.412,382.274 828.645,383.356 
  830.878,384.429 833.111,385.493 835.344,386.547 837.577,387.593 839.81,388.629 842.043,389.657 844.276,390.676 846.509,391.686 848.742,392.687 850.975,393.68 
  853.208,394.664 855.441,395.64 857.674,396.608 859.907,397.567 862.14,398.518 864.373,399.461 866.606,400.396 868.839,401.323 871.072,402.242 873.305,403.153 
  875.538,404.056 877.771,404.952 880.004,405.84 882.237,406.721 884.47,407.594 886.703,408.459 888.936,409.317 891.169,410.168 893.403,411.012 895.636,411.849 
  897.869,412.678 900.102,413.501 902.335,414.316 904.568,415.125 906.801,415.927 909.034,416.722 911.267,417.51 913.5,418.292 915.733,419.067 917.966,419.836 
  920.199,420.598 922.432,421.354 924.665,422.104 926.898,422.847 929.131,423.584 931.364,424.315 933.597,425.04 935.83,425.759 938.063,426.472 940.296,427.179 
  942.529,427.88 944.762,428.575 946.995,429.264 949.228,429.948 951.461,430.627 953.694,431.299 955.927,431.966 958.16,432.628 960.393,433.284 962.626,433.935 
  964.859,434.581 967.092,435.221 969.325,435.856 971.558,436.486 973.791,437.11 976.024,437.73 978.257,438.345 980.49,438.954 982.723,439.559 984.956,440.159 
  987.189,440.754 989.422,441.344 991.655,441.93 993.888,442.511 996.121,443.087 998.354,443.658 1000.59,444.225 1002.82,444.788 1005.05,445.346 1007.29,445.899 
  
  "/>
<circle clip-path="url(#clip862)" cx="116.312" cy="307.377" r="10" fill="#ff0000" fill-rule="evenodd" fill-opacity="0.5" stroke="#000000" stroke-opacity="0.5" stroke-width="1.36"/>
<circle clip-path="url(#clip862)" cx="147.574" cy="275.84" r="10" fill="#ff0000" fill-rule="evenodd" fill-opacity="0.5" stroke="#000000" stroke-opacity="0.5" stroke-width="1.36"/>
<circle clip-path="url(#clip862)" cx="178.836" cy="248.157" r="10" fill="#ff0000" fill-rule="evenodd" fill-opacity="0.5" stroke="#000000" stroke-opacity="0.5" stroke-width="1.36"/>
<circle clip-path="url(#clip862)" cx="210.099" cy="209.507" r="10" fill="#ff0000" fill-rule="evenodd" fill-opacity="0.5" stroke="#000000" stroke-opacity="0.5" stroke-width="1.36"/>
<circle clip-path="url(#clip862)" cx="241.361" cy="177.497" r="10" fill="#ff0000" fill-rule="evenodd" fill-opacity="0.5" stroke="#000000" stroke-opacity="0.5" stroke-width="1.36"/>
<circle clip-path="url(#clip862)" cx="272.623" cy="137.451" r="10" fill="#ff0000" fill-rule="evenodd" fill-opacity="0.5" stroke="#000000" stroke-opacity="0.5" stroke-width="1.36"/>
<circle clip-path="url(#clip862)" cx="303.885" cy="107.15" r="10" fill="#ff0000" fill-rule="evenodd" fill-opacity="0.5" stroke="#000000" stroke-opacity="0.5" stroke-width="1.36"/>
<circle clip-path="url(#clip862)" cx="335.148" cy="77.6328" r="10" fill="#ff0000" fill-rule="evenodd" fill-opacity="0.5" stroke="#000000" stroke-opacity="0.5" stroke-width="1.36"/>
<circle clip-path="url(#clip862)" cx="366.41" cy="60.8643" r="10" fill="#ff0000" fill-rule="evenodd" fill-opacity="0.5" stroke="#000000" stroke-opacity="0.5" stroke-width="1.36"/>
<circle clip-path="url(#clip862)" cx="397.672" cy="53.5475" r="10" fill="#ff0000" fill-rule="evenodd" fill-opacity="0.5" stroke="#000000" stroke-opacity="0.5" stroke-width="1.36"/>
<circle clip-path="url(#clip862)" cx="428.934" cy="59.1318" r="10" fill="#ff0000" fill-rule="evenodd" fill-opacity="0.5" stroke="#000000" stroke-opacity="0.5" stroke-width="1.36"/>
<circle clip-path="url(#clip862)" cx="460.197" cy="75.1022" r="10" fill="#ff0000" fill-rule="evenodd" fill-opacity="0.5" stroke="#000000" stroke-opacity="0.5" stroke-width="1.36"/>
<circle clip-path="url(#clip862)" cx="491.459" cy="99.9433" r="10" fill="#ff0000" fill-rule="evenodd" fill-opacity="0.5" stroke="#000000" stroke-opacity="0.5" stroke-width="1.36"/>
<circle clip-path="url(#clip862)" cx="522.721" cy="129.83" r="10" fill="#ff0000" fill-rule="evenodd" fill-opacity="0.5" stroke="#000000" stroke-opacity="0.5" stroke-width="1.36"/>
<circle clip-path="url(#clip862)" cx="553.984" cy="163.083" r="10" fill="#ff0000" fill-rule="evenodd" fill-opacity="0.5" stroke="#000000" stroke-opacity="0.5" stroke-width="1.36"/>
<circle clip-path="url(#clip862)" cx="585.246" cy="196.343" r="10" fill="#ff0000" fill-rule="evenodd" fill-opacity="0.5" stroke="#000000" stroke-opacity="0.5" stroke-width="1.36"/>
<circle clip-path="url(#clip862)" cx="616.508" cy="228.768" r="10" fill="#ff0000" fill-rule="evenodd" fill-opacity="0.5" stroke="#000000" stroke-opacity="0.5" stroke-width="1.36"/>
<circle clip-path="url(#clip862)" cx="647.77" cy="259.054" r="10" fill="#ff0000" fill-rule="evenodd" fill-opacity="0.5" stroke="#000000" stroke-opacity="0.5" stroke-width="1.36"/>
<circle clip-path="url(#clip862)" cx="679.033" cy="286.392" r="10" fill="#ff0000" fill-rule="evenodd" fill-opacity="0.5" stroke="#000000" stroke-opacity="0.5" stroke-width="1.36"/>
<circle clip-path="url(#clip862)" cx="735.044" cy="328.358" r="10" fill="#ff0000" fill-rule="evenodd" fill-opacity="0.5" stroke="#000000" stroke-opacity="0.5" stroke-width="1.36"/>
<circle clip-path="url(#clip862)" cx="747.419" cy="336.573" r="10" fill="#ff0000" fill-rule="evenodd" fill-opacity="0.5" stroke="#000000" stroke-opacity="0.5" stroke-width="1.36"/>
<circle clip-path="url(#clip862)" cx="759.794" cy="344.734" r="10" fill="#ff0000" fill-rule="evenodd" fill-opacity="0.5" stroke="#000000" stroke-opacity="0.5" stroke-width="1.36"/>
<circle clip-path="url(#clip862)" cx="772.168" cy="352.265" r="10" fill="#ff0000" fill-rule="evenodd" fill-opacity="0.5" stroke="#000000" stroke-opacity="0.5" stroke-width="1.36"/>
<circle clip-path="url(#clip862)" cx="784.543" cy="359.136" r="10" fill="#ff0000" fill-rule="evenodd" fill-opacity="0.5" stroke="#000000" stroke-opacity="0.5" stroke-width="1.36"/>
<circle clip-path="url(#clip862)" cx="796.917" cy="366" r="10" fill="#ff0000" fill-rule="evenodd" fill-opacity="0.5" stroke="#000000" stroke-opacity="0.5" stroke-width="1.36"/>
<circle clip-path="url(#clip862)" cx="809.292" cy="372.439" r="10" fill="#ff0000" fill-rule="evenodd" fill-opacity="0.5" stroke="#000000" stroke-opacity="0.5" stroke-width="1.36"/>
<circle clip-path="url(#clip862)" cx="821.667" cy="378.542" r="10" fill="#ff0000" fill-rule="evenodd" fill-opacity="0.5" stroke="#000000" stroke-opacity="0.5" stroke-width="1.36"/>
<circle clip-path="url(#clip862)" cx="834.041" cy="384.329" r="10" fill="#ff0000" fill-rule="evenodd" fill-opacity="0.5" stroke="#000000" stroke-opacity="0.5" stroke-width="1.36"/>
<circle clip-path="url(#clip862)" cx="846.416" cy="389.842" r="10" fill="#ff0000" fill-rule="evenodd" fill-opacity="0.5" stroke="#000000" stroke-opacity="0.5" stroke-width="1.36"/>
<circle clip-path="url(#clip862)" cx="858.791" cy="395.131" r="10" fill="#ff0000" fill-rule="evenodd" fill-opacity="0.5" stroke="#000000" stroke-opacity="0.5" stroke-width="1.36"/>
<circle clip-path="url(#clip862)" cx="871.165" cy="400.166" r="10" fill="#ff0000" fill-rule="evenodd" fill-opacity="0.5" stroke="#000000" stroke-opacity="0.5" stroke-width="1.36"/>
<circle clip-path="url(#clip862)" cx="883.54" cy="404.829" r="10" fill="#ff0000" fill-rule="evenodd" fill-opacity="0.5" stroke="#000000" stroke-opacity="0.5" stroke-width="1.36"/>
<circle clip-path="url(#clip862)" cx="895.915" cy="409.22" r="10" fill="#ff0000" fill-rule="evenodd" fill-opacity="0.5" stroke="#000000" stroke-opacity="0.5" stroke-width="1.36"/>
<circle clip-path="url(#clip862)" cx="908.289" cy="413.802" r="10" fill="#ff0000" fill-rule="evenodd" fill-opacity="0.5" stroke="#000000" stroke-opacity="0.5" stroke-width="1.36"/>
<circle clip-path="url(#clip862)" cx="920.664" cy="417.86" r="10" fill="#ff0000" fill-rule="evenodd" fill-opacity="0.5" stroke="#000000" stroke-opacity="0.5" stroke-width="1.36"/>
<circle clip-path="url(#clip862)" cx="933.039" cy="421.72" r="10" fill="#ff0000" fill-rule="evenodd" fill-opacity="0.5" stroke="#000000" stroke-opacity="0.5" stroke-width="1.36"/>
<circle clip-path="url(#clip862)" cx="945.413" cy="425.388" r="10" fill="#ff0000" fill-rule="evenodd" fill-opacity="0.5" stroke="#000000" stroke-opacity="0.5" stroke-width="1.36"/>
<circle clip-path="url(#clip862)" cx="957.788" cy="428.75" r="10" fill="#ff0000" fill-rule="evenodd" fill-opacity="0.5" stroke="#000000" stroke-opacity="0.5" stroke-width="1.36"/>
<circle clip-path="url(#clip862)" cx="970.163" cy="432.635" r="10" fill="#ff0000" fill-rule="evenodd" fill-opacity="0.5" stroke="#000000" stroke-opacity="0.5" stroke-width="1.36"/>
<circle clip-path="url(#clip862)" cx="982.537" cy="435.74" r="10" fill="#ff0000" fill-rule="evenodd" fill-opacity="0.5" stroke="#000000" stroke-opacity="0.5" stroke-width="1.36"/>
<circle clip-path="url(#clip862)" cx="994.912" cy="438.618" r="10" fill="#ff0000" fill-rule="evenodd" fill-opacity="0.5" stroke="#000000" stroke-opacity="0.5" stroke-width="1.36"/>
<circle clip-path="url(#clip862)" cx="1007.29" cy="441.633" r="10" fill="#ff0000" fill-rule="evenodd" fill-opacity="0.5" stroke="#000000" stroke-opacity="0.5" stroke-width="1.36"/>
</svg>
