<?xml version="1.0" encoding="utf-8"?>
<svg xmlns="http://www.w3.org/2000/svg" xmlns:xlink="http://www.w3.org/1999/xlink" width="220" height="120" viewBox="0 0 880 480">
<defs>
  <clipPath id="clip580">
    <rect x="0" y="0" width="880" height="480"/>
  </clipPath>
</defs>
<path clip-path="url(#clip580)" d="
M0 480 L880 480 L880 0 L0 0  Z
  " fill="#ffffff" fill-rule="evenodd" fill-opacity="1"/>
<defs>
  <clipPath id="clip581">
    <rect x="176" y="0" width="617" height="480"/>
  </clipPath>
</defs>
<defs>
  <clipPath id="clip582">
    <rect x="165" y="47" width="668" height="348"/>
  </clipPath>
</defs>
<path clip-path="url(#clip580)" d="
M165.845 394.22 L832.756 394.22 L832.756 47.2441 L165.845 47.2441  Z
  " fill="#ffffff" fill-rule="evenodd" fill-opacity="1"/>
<polyline clip-path="url(#clip580)" style="stroke:#000000; stroke-linecap:butt; stroke-linejoin:round; stroke-width:4; stroke-opacity:1; fill:none" points="
  165.845,394.22 832.756,394.22 
  "/>
<polyline clip-path="url(#clip580)" style="stroke:#000000; stroke-linecap:butt; stroke-linejoin:round; stroke-width:4; stroke-opacity:1; fill:none" points="
  165.845,47.2441 832.756,47.2441 
  "/>
<polyline clip-path="url(#clip580)" style="stroke:#000000; stroke-linecap:butt; stroke-linejoin:round; stroke-width:4; stroke-opacity:1; fill:none" points="
  184.72,394.22 184.72,375.323 
  "/>
<polyline clip-path="url(#clip580)" style="stroke:#000000; stroke-linecap:butt; stroke-linejoin:round; stroke-width:4; stroke-opacity:1; fill:none" points="
  394.44,394.22 394.44,375.323 
  "/>
<polyline clip-path="url(#clip580)" style="stroke:#000000; stroke-linecap:butt; stroke-linejoin:round; stroke-width:4; stroke-opacity:1; fill:none" points="
  604.161,394.22 604.161,375.323 
  "/>
<polyline clip-path="url(#clip580)" style="stroke:#000000; stroke-linecap:butt; stroke-linejoin:round; stroke-width:4; stroke-opacity:1; fill:none" points="
  813.881,394.22 813.881,375.323 
  "/>
<path clip-path="url(#clip580)" d="M158.252 424.902 Q158.252 418.396 159.895 414.851 Q162.186 409.577 167.59 409.577 Q168.735 409.577 169.924 409.901 Q171.135 410.204 172.648 411.393 Q174.182 412.581 175.112 414.527 Q176.884 418.288 176.884 424.902 Q176.884 431.365 175.242 434.889 Q172.842 440.033 167.546 440.033 Q165.558 440.033 163.526 439.017 Q161.516 438.001 160.24 435.559 Q158.252 431.906 158.252 424.902 M161.926 424.362 Q161.926 431.041 162.402 433.7 Q162.942 436.575 164.412 437.828 Q165.904 439.06 167.546 439.06 Q169.319 439.06 170.789 437.742 Q172.28 436.402 172.734 433.527 Q173.231 430.695 173.21 424.362 Q173.21 418.201 172.777 415.737 Q172.194 412.862 170.637 411.717 Q169.103 410.55 167.546 410.55 Q166.963 410.55 166.336 410.722 Q165.731 410.895 164.844 411.393 Q163.958 411.89 163.267 413.122 Q162.596 414.354 162.272 416.213 Q161.926 418.612 161.926 424.362 Z" fill="#000000" fill-rule="evenodd" fill-opacity="1" /><path clip-path="url(#clip580)" d="M183.088 438.347 Q182.418 437.634 182.418 436.704 Q182.418 435.775 183.088 435.105 Q183.758 434.413 184.774 434.413 Q185.747 434.413 186.395 435.061 Q187.065 435.688 187.065 436.726 Q187.065 437.742 186.352 438.412 Q185.66 439.06 184.774 439.06 Q183.758 439.06 183.088 438.347 Z" fill="#000000" fill-rule="evenodd" fill-opacity="1" /><path clip-path="url(#clip580)" d="M192.815 419.542 Q192.815 417.185 193.507 415.586 Q194.198 413.965 195.646 412.365 Q198.305 409.577 202.153 409.577 Q203.795 409.577 205.244 410.269 Q206.714 410.96 208.097 412.538 Q209.502 414.094 210.345 417.185 Q211.188 420.255 211.188 424.491 Q211.188 431.344 207.859 435.688 Q204.552 440.033 200.078 440.033 Q197.246 440.033 195.582 438.758 Q193.917 437.461 193.917 435.256 Q193.917 434.11 194.566 433.635 Q195.214 433.138 195.949 433.138 Q196.749 433.138 197.376 433.678 Q198.003 434.197 198.003 435.17 Q198.003 435.969 197.484 436.596 Q196.987 437.201 195.69 437.201 Q196.965 438.801 200.034 438.801 Q201.137 438.801 202.239 438.304 Q203.342 437.785 204.53 436.553 Q205.741 435.299 206.476 432.684 Q207.211 430.068 207.211 426.394 L207.211 424.989 Q205.438 429.42 201.677 429.42 Q197.959 429.42 195.387 426.567 Q192.815 423.713 192.815 419.542 M196.792 419.585 Q196.792 423.973 197.592 425.594 Q198.954 428.382 201.72 428.382 Q204.422 428.382 205.763 425.983 Q207.124 423.562 207.124 420.428 Q207.124 416.083 206.411 414.181 Q205.092 410.679 202.153 410.679 Q199.235 410.679 197.722 413.468 Q196.792 415.11 196.792 419.585 Z" fill="#000000" fill-rule="evenodd" fill-opacity="1" /><path clip-path="url(#clip580)" d="M369.01 413.792 L369.01 412.408 Q374.327 412.408 377.072 409.577 Q377.829 409.577 377.958 409.75 Q378.088 409.923 378.088 410.722 L378.088 435.559 Q378.088 436.877 378.737 437.288 Q379.385 437.699 382.217 437.699 L383.622 437.699 L383.622 439.06 Q382.065 438.931 376.445 438.931 Q370.825 438.931 369.291 439.06 L369.291 437.699 L370.696 437.699 Q373.484 437.699 374.154 437.309 Q374.824 436.899 374.824 435.559 L374.824 412.625 Q372.511 413.792 369.01 413.792 Z" fill="#000000" fill-rule="evenodd" fill-opacity="1" /><path clip-path="url(#clip580)" d="M391.641 438.347 Q390.971 437.634 390.971 436.704 Q390.971 435.775 391.641 435.105 Q392.311 434.413 393.327 434.413 Q394.3 434.413 394.948 435.061 Q395.618 435.688 395.618 436.726 Q395.618 437.742 394.905 438.412 Q394.213 439.06 393.327 439.06 Q392.311 439.06 391.641 438.347 Z" fill="#000000" fill-rule="evenodd" fill-opacity="1" /><path clip-path="url(#clip580)" d="M401.238 424.902 Q401.238 418.396 402.881 414.851 Q405.172 409.577 410.576 409.577 Q411.722 409.577 412.911 409.901 Q414.121 410.204 415.634 411.393 Q417.169 412.581 418.098 414.527 Q419.871 418.288 419.871 424.902 Q419.871 431.365 418.228 434.889 Q415.829 440.033 410.533 440.033 Q408.544 440.033 406.512 439.017 Q404.502 438.001 403.227 435.559 Q401.238 431.906 401.238 424.902 M404.913 424.362 Q404.913 431.041 405.388 433.7 Q405.929 436.575 407.399 437.828 Q408.89 439.06 410.533 439.06 Q412.305 439.06 413.775 437.742 Q415.267 436.402 415.721 433.527 Q416.218 430.695 416.196 424.362 Q416.196 418.201 415.764 415.737 Q415.18 412.862 413.624 411.717 Q412.089 410.55 410.533 410.55 Q409.949 410.55 409.323 410.722 Q408.717 410.895 407.831 411.393 Q406.945 411.89 406.253 413.122 Q405.583 414.354 405.259 416.213 Q404.913 418.612 404.913 424.362 Z" fill="#000000" fill-rule="evenodd" fill-opacity="1" /><path clip-path="url(#clip580)" d="M579.638 413.792 L579.638 412.408 Q584.955 412.408 587.701 409.577 Q588.457 409.577 588.587 409.75 Q588.716 409.923 588.716 410.722 L588.716 435.559 Q588.716 436.877 589.365 437.288 Q590.013 437.699 592.845 437.699 L594.25 437.699 L594.25 439.06 Q592.694 438.931 587.074 438.931 Q581.454 438.931 579.919 439.06 L579.919 437.699 L581.324 437.699 Q584.112 437.699 584.782 437.309 Q585.453 436.899 585.453 435.559 L585.453 412.625 Q583.14 413.792 579.638 413.792 Z" fill="#000000" fill-rule="evenodd" fill-opacity="1" /><path clip-path="url(#clip580)" d="M602.269 438.347 Q601.599 437.634 601.599 436.704 Q601.599 435.775 602.269 435.105 Q602.939 434.413 603.955 434.413 Q604.928 434.413 605.576 435.061 Q606.247 435.688 606.247 436.726 Q606.247 437.742 605.533 438.412 Q604.842 439.06 603.955 439.06 Q602.939 439.06 602.269 438.347 Z" fill="#000000" fill-rule="evenodd" fill-opacity="1" /><path clip-path="url(#clip580)" d="M614.071 413.792 L614.071 412.408 Q619.389 412.408 622.134 409.577 Q622.89 409.577 623.02 409.75 Q623.15 409.923 623.15 410.722 L623.15 435.559 Q623.15 436.877 623.798 437.288 Q624.447 437.699 627.278 437.699 L628.683 437.699 L628.683 439.06 Q627.127 438.931 621.507 438.931 Q615.887 438.931 614.352 439.06 L614.352 437.699 L615.757 437.699 Q618.546 437.699 619.216 437.309 Q619.886 436.899 619.886 435.559 L619.886 412.625 Q617.573 413.792 614.071 413.792 Z" fill="#000000" fill-rule="evenodd" fill-opacity="1" /><path clip-path="url(#clip580)" d="M788.688 413.792 L788.688 412.408 Q794.006 412.408 796.751 409.577 Q797.507 409.577 797.637 409.75 Q797.767 409.923 797.767 410.722 L797.767 435.559 Q797.767 436.877 798.415 437.288 Q799.064 437.699 801.895 437.699 L803.3 437.699 L803.3 439.06 Q801.744 438.931 796.124 438.931 Q790.504 438.931 788.969 439.06 L788.969 437.699 L790.374 437.699 Q793.163 437.699 793.833 437.309 Q794.503 436.899 794.503 435.559 L794.503 412.625 Q792.19 413.792 788.688 413.792 Z" fill="#000000" fill-rule="evenodd" fill-opacity="1" /><path clip-path="url(#clip580)" d="M811.32 438.347 Q810.65 437.634 810.65 436.704 Q810.65 435.775 811.32 435.105 Q811.99 434.413 813.006 434.413 Q813.978 434.413 814.627 435.061 Q815.297 435.688 815.297 436.726 Q815.297 437.742 814.584 438.412 Q813.892 439.06 813.006 439.06 Q811.99 439.06 811.32 438.347 Z" fill="#000000" fill-rule="evenodd" fill-opacity="1" /><path clip-path="url(#clip580)" d="M821.392 439.06 Q821.392 438.261 821.457 438.023 Q821.544 437.785 821.89 437.418 L830.384 427.95 Q835.032 422.719 835.032 418.158 Q835.032 415.197 833.475 413.079 Q831.941 410.96 829.109 410.96 Q827.164 410.96 825.521 412.149 Q823.878 413.338 823.122 415.456 Q823.251 415.413 823.705 415.413 Q824.808 415.413 825.413 416.105 Q826.04 416.796 826.04 417.726 Q826.04 418.915 825.262 419.498 Q824.505 420.06 823.749 420.06 Q823.446 420.06 823.035 419.995 Q822.646 419.931 822.019 419.325 Q821.392 418.699 821.392 417.596 Q821.392 414.505 823.727 412.041 Q826.083 409.577 829.671 409.577 Q833.735 409.577 836.394 411.998 Q839.074 414.397 839.074 418.158 Q839.074 419.477 838.663 420.687 Q838.274 421.876 837.734 422.805 Q837.215 423.735 835.788 425.226 Q834.362 426.718 833.216 427.777 Q832.07 428.836 829.498 431.084 L824.808 435.645 L832.784 435.645 Q836.675 435.645 836.977 435.299 Q837.409 434.672 837.95 431.365 L839.074 431.365 L837.82 439.06 L821.392 439.06 Z" fill="#000000" fill-rule="evenodd" fill-opacity="1" /><path clip-path="url(#clip580)" d="M511.179 464.259 Q511.179 466.165 510.216 469.854 Q509.826 471.453 509.294 472.908 Q508.781 474.343 508.023 475.736 Q507.265 477.13 506.383 478.134 Q505.502 479.118 504.354 479.733 Q503.207 480.348 501.936 480.348 Q499.928 480.348 498.739 479.159 Q497.571 477.95 497.202 475.88 Q494.456 480.348 490.787 480.348 Q488.512 480.348 487.446 478.728 Q486.381 477.089 486.381 474.343 Q486.381 472.027 486.995 469.629 Q488.164 465.079 490.439 461.902 Q490.746 461.533 491.197 461.533 Q491.463 461.533 491.586 461.615 Q491.955 461.841 491.955 462.21 Q491.955 462.476 491.75 462.743 Q490.316 464.731 489.373 466.432 Q488.43 468.133 488 469.854 Q487.672 471.33 487.672 472.58 Q487.672 474.691 488.574 476.003 Q489.496 477.314 491.32 477.314 Q493 477.314 494.476 476.269 Q495.952 475.203 497.038 473.42 Q497.099 471.473 497.571 469.629 Q498.001 467.661 499.005 467.661 Q499.805 467.661 499.805 468.748 Q499.805 469.116 499.641 469.854 Q499.19 471.801 498.37 473.543 Q498.657 475.244 499.723 476.29 Q500.788 477.314 502.489 477.314 Q504.068 477.314 505.461 476.167 Q506.875 475.019 507.777 473.338 Q508.699 471.637 509.212 469.629 Q509.376 468.952 509.376 468.092 Q509.376 465.796 507.777 464.382 Q507.326 463.931 507.326 463.337 Q507.326 462.64 507.9 462.005 Q508.576 461.328 509.376 461.328 Q509.97 461.328 510.339 461.697 Q511.179 462.435 511.179 464.259 Z" fill="#000000" fill-rule="evenodd" fill-opacity="1" /><polyline clip-path="url(#clip580)" style="stroke:#000000; stroke-linecap:butt; stroke-linejoin:round; stroke-width:4; stroke-opacity:1; fill:none" points="
  165.845,394.22 165.845,47.2441 
  "/>
<polyline clip-path="url(#clip580)" style="stroke:#000000; stroke-linecap:butt; stroke-linejoin:round; stroke-width:4; stroke-opacity:1; fill:none" points="
  832.756,394.22 832.756,47.2441 
  "/>
<polyline clip-path="url(#clip580)" style="stroke:#000000; stroke-linecap:butt; stroke-linejoin:round; stroke-width:4; stroke-opacity:1; fill:none" points="
  165.845,296.346 184.743,296.346 
  "/>
<polyline clip-path="url(#clip580)" style="stroke:#000000; stroke-linecap:butt; stroke-linejoin:round; stroke-width:4; stroke-opacity:1; fill:none" points="
  165.845,196.992 184.743,196.992 
  "/>
<polyline clip-path="url(#clip580)" style="stroke:#000000; stroke-linecap:butt; stroke-linejoin:round; stroke-width:4; stroke-opacity:1; fill:none" points="
  165.845,97.6375 184.743,97.6375 
  "/>
<path clip-path="url(#clip580)" d="M100.055 297.308 Q100.055 290.802 101.697 287.257 Q103.989 281.983 109.393 281.983 Q110.538 281.983 111.727 282.307 Q112.937 282.609 114.451 283.798 Q115.985 284.987 116.915 286.933 Q118.687 290.694 118.687 297.308 Q118.687 303.771 117.044 307.294 Q114.645 312.439 109.349 312.439 Q107.361 312.439 105.329 311.423 Q103.319 310.407 102.043 307.964 Q100.055 304.311 100.055 297.308 M103.729 296.768 Q103.729 303.447 104.205 306.105 Q104.745 308.98 106.215 310.234 Q107.707 311.466 109.349 311.466 Q111.122 311.466 112.592 310.148 Q114.083 308.807 114.537 305.933 Q115.034 303.101 115.013 296.768 Q115.013 290.607 114.58 288.143 Q113.997 285.268 112.44 284.123 Q110.906 282.955 109.349 282.955 Q108.766 282.955 108.139 283.128 Q107.534 283.301 106.647 283.798 Q105.761 284.295 105.069 285.528 Q104.399 286.76 104.075 288.619 Q103.729 291.018 103.729 296.768 Z" fill="#000000" fill-rule="evenodd" fill-opacity="1" /><path clip-path="url(#clip580)" d="M124.891 310.753 Q124.221 310.039 124.221 309.11 Q124.221 308.181 124.891 307.51 Q125.561 306.819 126.577 306.819 Q127.55 306.819 128.198 307.467 Q128.868 308.094 128.868 309.132 Q128.868 310.148 128.155 310.818 Q127.463 311.466 126.577 311.466 Q125.561 311.466 124.891 310.753 Z" fill="#000000" fill-rule="evenodd" fill-opacity="1" /><path clip-path="url(#clip580)" d="M134.964 311.466 Q134.964 310.666 135.028 310.429 Q135.115 310.191 135.461 309.823 L143.956 300.356 Q148.603 295.125 148.603 290.564 Q148.603 287.603 147.047 285.484 Q145.512 283.366 142.68 283.366 Q140.735 283.366 139.092 284.555 Q137.449 285.744 136.693 287.862 Q136.823 287.819 137.276 287.819 Q138.379 287.819 138.984 288.51 Q139.611 289.202 139.611 290.132 Q139.611 291.321 138.833 291.904 Q138.076 292.466 137.32 292.466 Q137.017 292.466 136.606 292.401 Q136.217 292.336 135.59 291.731 Q134.964 291.104 134.964 290.002 Q134.964 286.911 137.298 284.447 Q139.654 281.983 143.242 281.983 Q147.306 281.983 149.965 284.404 Q152.645 286.803 152.645 290.564 Q152.645 291.883 152.234 293.093 Q151.845 294.282 151.305 295.211 Q150.786 296.141 149.359 297.632 Q147.933 299.124 146.787 300.183 Q145.642 301.242 143.069 303.49 L138.379 308.051 L146.355 308.051 Q150.246 308.051 150.548 307.705 Q150.981 307.078 151.521 303.771 L152.645 303.771 L151.391 311.466 L134.964 311.466 Z" fill="#000000" fill-rule="evenodd" fill-opacity="1" /><path clip-path="url(#clip580)" d="M99.082 197.954 Q99.082 191.447 100.725 187.902 Q103.016 182.628 108.42 182.628 Q109.565 182.628 110.754 182.953 Q111.965 183.255 113.478 184.444 Q115.013 185.633 115.942 187.578 Q117.714 191.339 117.714 197.954 Q117.714 204.417 116.072 207.94 Q113.672 213.084 108.377 213.084 Q106.388 213.084 104.356 212.069 Q102.346 211.053 101.071 208.61 Q99.082 204.957 99.082 197.954 M102.757 197.413 Q102.757 204.092 103.232 206.751 Q103.773 209.626 105.242 210.88 Q106.734 212.112 108.377 212.112 Q110.149 212.112 111.619 210.793 Q113.11 209.453 113.564 206.578 Q114.061 203.747 114.04 197.413 Q114.04 191.253 113.608 188.789 Q113.024 185.914 111.468 184.768 Q109.933 183.601 108.377 183.601 Q107.793 183.601 107.166 183.774 Q106.561 183.947 105.675 184.444 Q104.788 184.941 104.097 186.173 Q103.427 187.405 103.102 189.264 Q102.757 191.664 102.757 197.413 Z" fill="#000000" fill-rule="evenodd" fill-opacity="1" /><path clip-path="url(#clip580)" d="M123.918 211.398 Q123.248 210.685 123.248 209.756 Q123.248 208.826 123.918 208.156 Q124.588 207.464 125.604 207.464 Q126.577 207.464 127.225 208.113 Q127.895 208.74 127.895 209.777 Q127.895 210.793 127.182 211.463 Q126.49 212.112 125.604 212.112 Q124.588 212.112 123.918 211.398 Z" fill="#000000" fill-rule="evenodd" fill-opacity="1" /><path clip-path="url(#clip580)" d="M133.018 204.806 L133.018 203.444 L146.614 182.672 Q146.96 182.131 147.501 182.153 Q147.998 182.153 148.106 182.347 Q148.214 182.542 148.214 183.298 L148.214 203.444 L152.645 203.444 L152.645 204.806 L148.214 204.806 L148.214 208.653 Q148.214 209.929 148.733 210.339 Q149.273 210.75 151.564 210.75 L152.494 210.75 L152.494 212.112 Q150.678 211.982 146.485 211.982 Q142.313 211.982 140.497 212.112 L140.497 210.75 L141.427 210.75 Q143.718 210.75 144.258 210.361 Q144.799 209.95 144.799 208.653 L144.799 204.806 L133.018 204.806 M134.272 203.444 L145.058 203.444 L145.058 186.93 L134.272 203.444 Z" fill="#000000" fill-rule="evenodd" fill-opacity="1" /><path clip-path="url(#clip580)" d="M99.7088 98.5994 Q99.7088 92.0931 101.352 88.5482 Q103.643 83.274 109.047 83.274 Q110.192 83.274 111.381 83.5982 Q112.592 83.9009 114.105 85.0897 Q115.639 86.2786 116.569 88.2239 Q118.341 91.985 118.341 98.5994 Q118.341 105.062 116.699 108.586 Q114.299 113.73 109.003 113.73 Q107.015 113.73 104.983 112.714 Q102.973 111.698 101.697 109.256 Q99.7088 105.603 99.7088 98.5994 M103.383 98.059 Q103.383 104.738 103.859 107.397 Q104.399 110.272 105.869 111.525 Q107.361 112.757 109.003 112.757 Q110.776 112.757 112.246 111.439 Q113.737 110.099 114.191 107.224 Q114.688 104.392 114.667 98.059 Q114.667 91.8986 114.234 89.4344 Q113.651 86.5596 112.094 85.4139 Q110.56 84.2467 109.003 84.2467 Q108.42 84.2467 107.793 84.4196 Q107.188 84.5926 106.302 85.0897 Q105.415 85.5869 104.724 86.8189 Q104.054 88.051 103.729 89.91 Q103.383 92.3093 103.383 98.059 Z" fill="#000000" fill-rule="evenodd" fill-opacity="1" /><path clip-path="url(#clip580)" d="M124.545 112.044 Q123.875 111.331 123.875 110.401 Q123.875 109.472 124.545 108.802 Q125.215 108.11 126.231 108.11 Q127.204 108.11 127.852 108.759 Q128.522 109.385 128.522 110.423 Q128.522 111.439 127.809 112.109 Q127.117 112.757 126.231 112.757 Q125.215 112.757 124.545 112.044 Z" fill="#000000" fill-rule="evenodd" fill-opacity="1" /><path clip-path="url(#clip580)" d="M134.272 98.7723 Q134.272 91.8121 137.817 87.5539 Q141.362 83.274 145.923 83.274 Q148.581 83.274 150.051 84.6358 Q151.543 85.9759 151.543 88.051 Q151.543 89.1966 150.873 89.6938 Q150.202 90.191 149.511 90.191 Q148.711 90.191 148.084 89.6506 Q147.457 89.1102 147.457 88.1375 Q147.457 86.1489 149.9 86.1489 Q148.754 84.3764 146.009 84.3764 Q145.166 84.3764 144.301 84.6358 Q143.437 84.8736 142.313 85.6949 Q141.189 86.5163 140.324 87.8133 Q139.46 89.1102 138.854 91.5527 Q138.249 93.9953 138.249 97.1727 L138.249 98.2319 Q140.065 93.844 143.783 93.8656 Q147.501 93.8656 150.073 96.6972 Q152.645 99.5288 152.645 103.722 Q152.645 108.024 149.965 110.877 Q147.284 113.73 143.523 113.73 Q141.837 113.73 140.303 113.017 Q138.79 112.325 137.363 110.726 Q135.958 109.126 135.115 106.057 Q134.272 102.987 134.272 98.7723 M138.336 102.75 Q138.336 107.094 139.135 109.169 Q139.265 109.515 139.546 109.991 Q139.849 110.466 140.346 111.093 Q140.865 111.698 141.708 112.109 Q142.551 112.498 143.523 112.498 Q146.485 112.498 147.911 109.623 Q148.668 108.024 148.668 103.679 Q148.668 99.2478 147.868 97.6267 Q146.506 94.8815 143.739 94.8815 Q141.881 94.8815 140.584 96.1568 Q139.308 97.4321 138.811 99.1397 Q138.336 100.847 138.336 102.75 Z" fill="#000000" fill-rule="evenodd" fill-opacity="1" /><path clip-path="url(#clip580)" d="M72.595 316.154 Q68.8339 316.154 66.8453 311.722 Q65.5699 309.064 65.2457 303.573 L63.6246 303.573 Q60.8794 303.573 59.4312 305.022 Q57.9613 306.448 57.9613 308.264 Q57.9613 311.506 59.9932 313.063 Q60.0364 311.744 60.7065 311.268 Q61.3549 310.793 62.025 310.793 Q62.9112 310.793 63.4949 311.355 Q64.0569 311.895 64.0569 312.825 Q64.0569 313.711 63.5165 314.295 Q62.9545 314.878 61.9818 314.878 Q59.8202 314.878 58.3936 312.933 Q56.967 310.966 56.967 308.177 Q56.967 304.546 59.4095 302.125 Q60.1661 301.369 61.1388 301.001 Q62.1115 300.612 62.7599 300.569 Q63.3868 300.526 64.6405 300.526 L73.4812 300.526 Q73.7406 300.526 74.1729 300.439 Q74.6052 300.353 75.1672 299.964 Q75.7076 299.553 75.7076 298.883 Q75.7076 297.283 72.876 297.305 L70.3902 297.305 L70.3902 296.181 L72.876 296.181 Q75.232 296.181 76.1615 297.435 Q77.0694 298.667 77.0694 299.812 Q77.0694 301.282 75.9886 302.212 Q74.9078 303.141 73.438 303.271 Q75.124 303.941 76.2264 305.476 Q77.3071 306.989 77.3071 309.064 Q77.3071 310.663 76.8964 312.176 Q76.5074 313.668 75.405 314.921 Q74.281 316.154 72.595 316.154 M72.5517 312.738 Q74.1945 312.738 75.2537 311.571 Q76.3128 310.404 76.3128 308.761 Q76.3128 306.902 74.8862 305.238 Q73.438 303.573 70.6063 303.573 L66.1752 303.573 Q66.3481 308.48 68.3151 310.62 Q70.2605 312.738 72.5517 312.738 Z" fill="#000000" fill-rule="evenodd" fill-opacity="1" /><path clip-path="url(#clip580)" d="M76.81 294.452 L75.4482 294.452 Q75.4482 292.096 75.1672 291.555 Q74.8646 291.015 73.438 291.015 L61.5711 291.015 Q59.9283 291.015 59.5176 291.598 Q59.1069 292.16 59.1069 294.452 L57.7235 294.452 L57.248 288.226 L61.8953 288.226 Q57.248 286.151 57.248 281.677 Q57.248 276.489 61.5711 275.776 Q59.8851 275.019 58.5665 273.441 Q57.248 271.842 57.248 269.356 Q57.248 266.027 58.8908 264.709 Q59.9932 263.736 61.2252 263.542 Q62.4573 263.347 65.6564 263.347 L74.108 263.347 Q75.0375 263.304 75.2537 262.59 Q75.4482 261.877 75.4482 259.889 L76.81 259.889 Q76.6803 264.406 76.6803 264.839 Q76.6803 265.184 76.81 269.853 L75.4482 269.853 Q75.4482 267.497 75.1672 266.957 Q74.8646 266.395 73.438 266.395 L63.1274 266.395 Q60.8794 266.395 59.5609 267.087 Q58.2207 267.778 58.2207 269.68 Q58.2207 271.972 60.1445 273.809 Q62.0682 275.646 65.3106 275.646 L73.438 275.646 Q74.8646 275.646 75.1672 275.106 Q75.4482 274.544 75.4482 272.188 L76.81 272.188 Q76.6803 276.705 76.6803 277.159 Q76.6803 277.505 76.81 282.152 L75.4482 282.152 Q75.4482 279.796 75.1672 279.256 Q74.8646 278.694 73.438 278.694 L63.1274 278.694 Q60.8794 278.694 59.5609 279.386 Q58.2207 280.077 58.2207 281.98 Q58.2207 284.271 60.1445 286.108 Q62.0682 287.945 65.3106 287.945 L73.438 287.945 Q74.8646 287.945 75.1672 287.405 Q75.4482 286.843 75.4482 284.509 L76.81 284.509 Q76.6803 289.026 76.6803 289.458 Q76.6803 289.804 76.81 294.452 Z" fill="#000000" fill-rule="evenodd" fill-opacity="1" /><path clip-path="url(#clip580)" d="M84.0295 257.792 Q84.0295 255.436 83.7269 254.895 Q83.4459 254.333 82.0409 254.333 L61.3117 254.333 Q59.8419 254.333 59.4744 254.895 Q59.1069 255.436 59.1069 257.792 L57.7235 257.792 L57.248 251.415 L60.1661 251.415 Q57.248 248.757 57.248 245.212 Q57.248 241.451 60.1661 238.705 Q63.0842 235.96 67.256 235.96 Q71.471 235.96 74.389 238.878 Q77.3071 241.796 77.3071 245.839 Q77.3071 248.043 76.1831 249.535 Q75.0375 251.005 74.1945 251.286 L74.6052 251.286 L82.0409 251.286 Q83.4675 251.286 83.7485 250.724 Q84.0295 250.162 84.0295 247.827 L85.3913 247.827 Q85.2616 252.474 85.2616 252.82 Q85.2616 253.253 85.3913 257.792 L84.0295 257.792 M71.7736 251.286 Q72.4437 251.286 72.6814 251.199 Q72.9192 251.091 73.6325 250.659 Q76.3128 248.908 76.3128 246.055 Q76.3128 246.033 76.3128 246.011 Q76.3128 243.482 73.7406 241.559 Q71.1467 239.635 67.256 239.635 Q63.5381 239.635 60.9442 241.386 Q58.3504 243.137 58.3504 245.558 Q58.3504 247.287 59.2799 248.8 Q60.2093 250.313 61.8953 251.286 L71.7736 251.286 Z" fill="#000000" fill-rule="evenodd" fill-opacity="1" /><path clip-path="url(#clip580)" d="M76.81 232.999 L75.4482 232.999 Q75.4482 230.643 75.1672 230.102 Q74.8646 229.562 73.438 229.562 L50.4175 229.562 Q48.7748 229.562 48.3641 230.146 Q47.9534 230.708 47.9534 232.999 L46.57 232.999 L46.0944 226.644 L73.438 226.644 Q74.8646 226.644 75.1672 226.082 Q75.4482 225.52 75.4482 223.186 L76.81 223.186 Q76.81 223.726 76.7667 224.85 Q76.7235 225.974 76.7019 226.795 Q76.6803 227.617 76.6803 228.092 Q76.6803 228.611 76.81 232.999 Z" fill="#000000" fill-rule="evenodd" fill-opacity="1" /><path clip-path="url(#clip580)" d="M76.81 220.743 L75.4482 220.743 Q75.4482 218.387 75.1672 217.847 Q74.8646 217.306 73.438 217.306 L61.5279 217.306 Q59.8851 217.306 59.496 217.868 Q59.1069 218.409 59.1069 220.57 L57.7235 220.57 L57.248 214.388 L73.4812 214.388 Q74.7997 214.388 75.124 213.913 Q75.4482 213.437 75.4482 211.275 L76.81 211.275 Q76.6803 215.793 76.6803 215.88 Q76.6803 216.485 76.81 220.743 M49.5313 218.884 Q48.6451 218.884 47.9317 218.214 Q47.1968 217.522 47.1968 216.55 Q47.1968 215.577 47.8669 214.885 Q48.5154 214.194 49.5529 214.194 Q50.5688 214.194 51.2389 214.885 Q51.8874 215.577 51.8874 216.55 Q51.8874 217.566 51.1741 218.236 Q50.4608 218.884 49.5313 218.884 Z" fill="#000000" fill-rule="evenodd" fill-opacity="1" /><path clip-path="url(#clip580)" d="M59.1069 209.114 L58.1342 209.114 Q58.0478 207.082 56.6212 205.742 Q55.1729 204.38 53.4005 203.926 Q51.628 203.451 49.5745 203.407 L49.5745 202.305 L57.7235 202.305 L57.7235 195.972 L59.1069 195.972 L59.1069 202.305 L71.4061 202.305 Q76.1831 202.305 76.1831 199.322 Q76.1831 198.047 74.8862 197.204 Q73.5677 196.361 71.2332 196.361 L68.7906 196.361 L68.7906 195.258 L71.3197 195.258 Q73.719 195.258 75.513 196.361 Q77.3071 197.463 77.3071 199.646 Q77.3071 200.446 77.091 201.246 Q76.8964 202.024 76.3777 203.062 Q75.8373 204.078 74.5404 204.726 Q73.2218 205.353 71.3197 205.353 L59.1069 205.353 L59.1069 209.114 Z" fill="#000000" fill-rule="evenodd" fill-opacity="1" /><path clip-path="url(#clip580)" d="M59.1069 191.368 L57.7235 191.368 L57.248 184.861 L71.9465 184.861 Q73.0057 184.861 73.6325 184.775 Q74.2377 184.688 74.951 184.343 Q75.6644 183.975 75.9886 183.154 Q76.3128 182.311 76.3128 180.971 Q76.3128 178.571 74.3458 177.101 Q72.3788 175.61 69.4607 175.61 L61.5711 175.61 Q59.9283 175.61 59.5176 176.194 Q59.1069 176.777 59.1069 179.068 L57.7235 179.068 L57.248 172.562 L72.9624 172.562 Q74.6052 172.562 75.0375 172 Q75.4482 171.417 75.4482 169.104 L76.81 169.104 L77.3071 175.48 L73.3083 175.48 Q77.2855 177.339 77.3071 181.187 Q77.3071 183.132 76.81 184.472 Q76.3128 185.791 75.7076 186.461 Q75.0807 187.131 73.8919 187.498 Q72.703 187.844 71.9681 187.888 Q71.2332 187.931 69.8066 187.931 L63.1706 187.931 Q60.1661 187.931 59.6473 188.363 Q59.1069 188.795 59.1069 191.368 Z" fill="#000000" fill-rule="evenodd" fill-opacity="1" /><path clip-path="url(#clip580)" d="M67.2992 166.726 Q63.0842 166.726 60.1661 163.786 Q57.248 160.847 57.248 156.869 Q57.248 153.497 59.9932 151.293 L50.4175 151.293 Q48.7748 151.293 48.3641 151.876 Q47.9534 152.438 47.9534 154.729 L46.57 154.729 L46.0944 148.353 L72.9624 148.353 Q74.6052 148.353 75.0375 147.791 Q75.4482 147.207 75.4482 144.916 L76.81 144.916 L77.3071 151.422 L74.3674 151.422 Q77.2855 153.714 77.3071 157.345 Q77.3071 161.149 74.389 163.938 Q71.471 166.726 67.2992 166.726 M67.3424 163.051 Q71.4493 163.051 73.4812 161.776 Q76.3128 160.004 76.3128 157.129 Q76.3128 153.843 73.2218 151.898 Q72.4653 151.401 71.579 151.422 L62.5006 151.422 Q61.6143 151.422 60.8794 151.898 Q58.2207 153.714 58.2207 156.675 Q58.2207 159.766 61.0523 161.69 Q63.1706 163.051 67.3424 163.051 Z" fill="#000000" fill-rule="evenodd" fill-opacity="1" /><path clip-path="url(#clip580)" d="M67.0614 142.452 Q62.8896 142.452 59.9283 139.772 Q56.967 137.091 56.967 133.244 Q56.967 129.353 59.496 127.343 Q62.025 125.311 65.6564 125.311 Q66.3265 125.311 66.4562 125.484 Q66.5859 125.657 66.5859 126.413 L66.5859 138.777 Q71.1035 138.777 73.2218 137.437 Q76.1831 135.578 76.1831 132.444 Q76.1831 132.012 76.0967 131.493 Q76.0102 130.974 75.6427 129.915 Q75.2537 128.856 74.2377 127.926 Q73.2218 126.997 71.6223 126.456 Q70.9954 126.327 71.017 125.894 Q71.017 125.311 71.5358 125.311 Q71.9249 125.311 72.8111 125.743 Q73.6757 126.154 74.7133 126.954 Q75.7508 127.753 76.529 129.31 Q77.3071 130.844 77.3071 132.703 Q77.3071 136.594 74.3674 139.534 Q71.4061 142.452 67.0614 142.452 M65.6564 138.734 L65.6564 128.229 Q64.7269 128.229 63.6894 128.402 Q62.6519 128.553 61.2252 129.029 Q59.777 129.483 58.8692 130.563 Q57.9613 131.644 57.9613 133.244 Q57.9613 133.957 58.2639 134.735 Q58.5665 135.492 59.3015 136.421 Q60.0364 137.351 61.7008 137.999 Q63.3652 138.648 65.6564 138.734 Z" fill="#000000" fill-rule="evenodd" fill-opacity="1" /><polyline clip-path="url(#clip582)" style="stroke:#009af9; stroke-linecap:butt; stroke-linejoin:round; stroke-width:4.8; stroke-opacity:1; fill:none" points="
  184.72,369.832 186.297,369.652 187.874,369.47 189.45,369.285 191.027,369.097 192.604,368.906 194.181,368.713 195.758,368.517 197.335,368.318 198.911,368.116 
  200.488,367.91 202.065,367.702 203.642,367.491 205.219,367.276 206.796,367.058 208.373,366.836 209.949,366.611 211.526,366.383 213.103,366.15 214.68,365.915 
  216.257,365.675 217.834,365.431 219.41,365.183 220.987,364.932 222.564,364.676 224.141,364.416 225.718,364.151 227.295,363.882 228.872,363.608 230.448,363.33 
  232.025,363.047 233.602,362.759 235.179,362.466 236.756,362.167 238.333,361.864 239.909,361.555 241.486,361.24 243.063,360.92 244.64,360.594 246.217,360.262 
  247.794,359.924 249.371,359.58 250.947,359.229 252.524,358.871 254.101,358.507 255.678,358.136 257.255,357.758 258.832,357.373 260.408,356.98 261.985,356.579 
  263.562,356.171 265.139,355.755 266.716,355.33 268.293,354.897 269.87,354.455 271.446,354.005 273.023,353.545 274.6,353.076 276.177,352.598 277.754,352.11 
  279.331,351.612 280.907,351.103 282.484,350.584 284.061,350.054 285.638,349.514 287.215,348.962 288.792,348.398 290.368,347.823 291.945,347.235 293.522,346.636 
  295.099,346.023 296.676,345.398 298.253,344.76 299.83,344.108 301.406,343.442 302.983,342.763 304.56,342.069 306.137,341.361 307.714,340.638 309.291,339.9 
  310.867,339.147 312.444,338.378 314.021,337.593 315.598,336.793 317.175,335.976 318.752,335.143 320.329,334.294 321.905,333.428 323.482,332.545 325.059,331.645 
  326.636,330.728 328.213,329.793 329.79,328.842 331.366,327.874 332.943,326.888 334.52,325.885 336.097,324.865 337.674,323.827 339.251,322.773 340.828,321.702 
  342.404,320.614 343.981,319.51 345.558,318.39 347.135,317.254 348.712,316.102 350.289,314.935 351.865,313.753 353.442,312.556 355.019,311.345 356.596,310.121 
  358.173,308.883 359.75,307.632 361.327,306.37 362.903,305.095 364.48,303.809 366.057,302.512 367.634,301.206 369.211,299.889 370.788,298.564 372.364,297.23 
  373.941,295.888 375.518,294.539 377.095,293.183 378.672,291.82 380.249,290.452 381.826,289.079 383.402,287.701 384.979,286.319 386.556,284.933 388.133,283.545 
  389.71,282.153 391.287,280.759 392.863,279.364 394.44,277.967 396.017,276.569 397.594,275.17 399.171,273.771 400.748,272.373 402.324,270.975 403.901,269.577 
  405.478,268.181 407.055,266.786 408.632,265.393 410.209,264.002 411.786,262.613 413.362,261.226 414.939,259.842 416.516,258.46 418.093,257.082 419.67,255.707 
  421.247,254.335 422.823,252.966 424.4,251.601 425.977,250.24 427.554,248.883 429.131,247.53 430.708,246.18 432.285,244.835 433.861,243.494 435.438,242.157 
  437.015,240.825 438.592,239.497 440.169,238.173 441.746,236.854 443.322,235.54 444.899,234.23 446.476,232.925 448.053,231.624 449.63,230.328 451.207,229.037 
  452.784,227.751 454.36,226.469 455.937,225.192 457.514,223.92 459.091,222.652 460.668,221.389 462.245,220.131 463.821,218.877 465.398,217.629 466.975,216.384 
  468.552,215.145 470.129,213.91 471.706,212.68 473.283,211.455 474.859,210.234 476.436,209.018 478.013,207.806 479.59,206.599 481.167,205.396 482.744,204.198 
  484.32,203.004 485.897,201.815 487.474,200.63 489.051,199.449 490.628,198.273 492.205,197.102 493.782,195.934 495.358,194.771 496.935,193.612 498.512,192.457 
  500.089,191.307 501.666,190.16 503.243,189.018 504.819,187.88 506.396,186.746 507.973,185.616 509.55,184.49 511.127,183.367 512.704,182.249 514.28,181.135 
  515.857,180.025 517.434,178.918 519.011,177.816 520.588,176.717 522.165,175.622 523.742,174.53 525.318,173.443 526.895,172.359 528.472,171.278 530.049,170.202 
  531.626,169.128 533.203,168.059 534.779,166.993 536.356,165.93 537.933,164.871 539.51,163.816 541.087,162.764 542.664,161.715 544.241,160.67 545.817,159.628 
  547.394,158.589 548.971,157.554 550.548,156.522 552.125,155.493 553.702,154.467 555.278,153.445 556.855,152.426 558.432,151.41 560.009,150.397 561.586,149.387 
  563.163,148.38 564.74,147.376 566.316,146.376 567.893,145.378 569.47,144.384 571.047,143.392 572.624,142.403 574.201,141.418 575.777,140.435 577.354,139.455 
  578.931,138.478 580.508,137.504 582.085,136.532 583.662,135.564 585.239,134.598 586.815,133.635 588.392,132.675 589.969,131.718 591.546,130.763 593.123,129.811 
  594.7,128.862 596.276,127.915 597.853,126.971 599.43,126.03 601.007,125.092 602.584,124.156 604.161,123.222 605.738,122.291 607.314,121.363 608.891,120.438 
  610.468,119.515 612.045,118.594 613.622,117.676 615.199,116.761 616.775,115.848 618.352,114.937 619.929,114.029 621.506,113.124 623.083,112.221 624.66,111.321 
  626.237,110.422 627.813,109.527 629.39,108.634 630.967,107.743 632.544,106.855 634.121,105.969 635.698,105.085 637.274,104.204 638.851,103.326 640.428,102.449 
  642.005,101.575 643.582,100.704 645.159,99.8348 646.735,98.9681 648.312,98.1038 649.889,97.2419 651.466,96.3824 653.043,95.5253 654.62,94.6706 656.197,93.8183 
  657.773,92.9684 659.35,92.1209 660.927,91.2758 662.504,90.4332 664.081,89.593 665.658,88.7553 667.234,87.92 668.811,87.0872 670.388,86.2569 671.965,85.4291 
  673.542,84.6039 675.119,83.7812 676.696,82.9611 678.272,82.1436 679.849,81.3288 681.426,80.5167 683.003,79.7072 684.58,78.9005 686.157,78.0967 687.733,77.2957 
  689.31,76.4976 690.887,75.7025 692.464,74.9104 694.041,74.1215 695.618,73.3358 697.195,72.5534 698.771,71.7745 700.348,70.9991 701.925,70.2274 703.502,69.4596 
  705.079,68.6959 706.656,67.9364 708.232,67.1814 709.809,66.4313 711.386,65.6862 712.963,64.9468 714.54,64.2134 716.117,63.4867 717.694,62.7674 719.27,62.0564 
  720.847,61.355 722.424,60.6648 724.001,59.9882 725.578,59.3284 727.155,58.6905 728.731,58.0834 730.308,57.525 731.885,57.0642 
  "/>
<polyline clip-path="url(#clip582)" style="stroke:#e26f46; stroke-linecap:butt; stroke-linejoin:round; stroke-width:4.8; stroke-opacity:1; fill:none" points="
  476.436,304.708 478.013,314.858 479.59,319.584 481.167,323.083 482.744,325.939 484.32,328.382 485.897,330.53 487.474,332.455 489.051,334.204 490.628,335.808 
  492.205,337.291 493.782,338.671 495.358,339.962 496.935,341.175 498.512,342.319 500.089,343.401 501.666,344.428 503.243,345.406 504.819,346.337 506.396,347.227 
  507.973,348.079 509.55,348.896 511.127,349.68 512.704,350.433 514.28,351.158 515.857,351.857 517.434,352.531 519.011,353.182 520.588,353.812 522.165,354.42 
  523.742,355.009 525.318,355.58 526.895,356.134 528.472,356.671 530.049,357.192 531.626,357.698 533.203,358.191 534.779,358.669 536.356,359.135 537.933,359.589 
  539.51,360.031 541.087,360.461 542.664,360.881 544.241,361.29 545.817,361.689 547.394,362.079 548.971,362.459 550.548,362.831 552.125,363.194 553.702,363.549 
  555.278,363.896 556.855,364.235 558.432,364.567 560.009,364.892 561.586,365.21 563.163,365.522 564.74,365.827 566.316,366.126 567.893,366.419 569.47,366.706 
  571.047,366.987 572.624,367.263 574.201,367.534 575.777,367.799 577.354,368.06 578.931,368.315 580.508,368.566 582.085,368.813 583.662,369.055 585.239,369.293 
  586.815,369.526 588.392,369.756 589.969,369.981 591.546,370.203 593.123,370.421 594.7,370.635 596.276,370.846 597.853,371.053 599.43,371.257 601.007,371.457 
  602.584,371.654 604.161,371.849 605.738,372.04 607.314,372.228 608.891,372.413 610.468,372.595 612.045,372.775 613.622,372.952 615.199,373.126 616.775,373.298 
  618.352,373.467 619.929,373.634 621.506,373.798 623.083,373.96 624.66,374.119 626.237,374.276 627.813,374.432 629.39,374.584 630.967,374.735 632.544,374.884 
  634.121,375.031 635.698,375.175 637.274,375.318 638.851,375.459 640.428,375.598 642.005,375.735 643.582,375.87 645.159,376.004 646.735,376.136 648.312,376.266 
  649.889,376.394 651.466,376.521 653.043,376.647 654.62,376.77 656.197,376.893 657.773,377.013 659.35,377.132 660.927,377.25 662.504,377.367 664.081,377.481 
  665.658,377.595 667.234,377.707 668.811,377.818 670.388,377.928 671.965,378.036 673.542,378.143 675.119,378.249 676.696,378.353 678.272,378.457 679.849,378.559 
  681.426,378.66 683.003,378.76 684.58,378.859 686.157,378.957 687.733,379.054 689.31,379.149 690.887,379.244 692.464,379.337 694.041,379.43 695.618,379.521 
  697.195,379.612 698.771,379.702 700.348,379.79 701.925,379.878 703.502,379.965 705.079,380.051 706.656,380.136 708.232,380.22 709.809,380.304 711.386,380.386 
  712.963,380.468 714.54,380.549 716.117,380.629 717.694,380.708 719.27,380.786 720.847,380.864 722.424,380.941 724.001,381.017 725.578,381.093 727.155,381.167 
  728.731,381.241 730.308,381.315 731.885,381.387 733.462,381.459 735.039,381.53 736.616,381.601 738.193,381.671 739.769,381.74 741.346,381.809 742.923,381.877 
  744.5,381.944 746.077,382.011 747.654,382.077 749.23,382.143 750.807,382.208 752.384,382.272 753.961,382.336 755.538,382.399 757.115,382.462 758.691,382.524 
  760.268,382.585 761.845,382.646 763.422,382.707 764.999,382.767 766.576,382.826 768.153,382.885 769.729,382.944 771.306,383.002 772.883,383.059 774.46,383.116 
  776.037,383.173 777.614,383.229 779.19,383.284 780.767,383.34 782.344,383.394 783.921,383.448 785.498,383.502 787.075,383.556 788.652,383.609 790.228,383.661 
  791.805,383.713 793.382,383.765 794.959,383.816 796.536,383.867 798.113,383.917 799.689,383.967 801.266,384.017 802.843,384.066 804.42,384.115 805.997,384.163 
  807.574,384.211 809.151,384.259 810.727,384.307 812.304,384.354 813.881,384.4 
  "/>
</svg>
