<?xml version="1.0" encoding="utf-8"?>
<svg xmlns="http://www.w3.org/2000/svg" xmlns:xlink="http://www.w3.org/1999/xlink" width="200" height="130" viewBox="0 0 800 520">
<defs>
  <clipPath id="clip400">
    <rect x="0" y="0" width="800" height="520"/>
  </clipPath>
</defs>
<path clip-path="url(#clip400)" d="
M0 520 L800 520 L800 0 L0 0  Z
  " fill="#ffffff" fill-rule="evenodd" fill-opacity="1"/>
<defs>
  <clipPath id="clip401">
    <rect x="160" y="0" width="561" height="520"/>
  </clipPath>
</defs>
<defs>
  <clipPath id="clip402">
    <rect x="123" y="47" width="630" height="378"/>
  </clipPath>
</defs>
<path clip-path="url(#clip400)" d="
M123.591 424.336 L752.756 424.336 L752.756 47.2441 L123.591 47.2441  Z
  " fill="#ffffff" fill-rule="evenodd" fill-opacity="1"/>
<polyline clip-path="url(#clip400)" style="stroke:#000000; stroke-linecap:butt; stroke-linejoin:round; stroke-width:4; stroke-opacity:1; fill:none" points="
  123.591,424.336 752.756,424.336 
  "/>
<polyline clip-path="url(#clip400)" style="stroke:#000000; stroke-linecap:butt; stroke-linejoin:round; stroke-width:4; stroke-opacity:1; fill:none" points="
  123.591,47.2441 752.756,47.2441 
  "/>
<polyline clip-path="url(#clip400)" style="stroke:#000000; stroke-linecap:butt; stroke-linejoin:round; stroke-width:4; stroke-opacity:1; fill:none" points="
  141.397,424.336 141.397,405.438 
  "/>
<polyline clip-path="url(#clip400)" style="stroke:#000000; stroke-linecap:butt; stroke-linejoin:round; stroke-width:4; stroke-opacity:1; fill:none" points="
  339.248,424.336 339.248,405.438 
  "/>
<polyline clip-path="url(#clip400)" style="stroke:#000000; stroke-linecap:butt; stroke-linejoin:round; stroke-width:4; stroke-opacity:1; fill:none" points="
  537.099,424.336 537.099,405.438 
  "/>
<polyline clip-path="url(#clip400)" style="stroke:#000000; stroke-linecap:butt; stroke-linejoin:round; stroke-width:4; stroke-opacity:1; fill:none" points="
  734.949,424.336 734.949,405.438 
  "/>
<path clip-path="url(#clip400)" d="M114.929 454.378 Q114.929 447.872 116.572 444.327 Q118.863 439.052 124.267 439.052 Q125.413 439.052 126.601 439.377 Q127.812 439.679 129.325 440.868 Q130.86 442.057 131.789 444.002 Q133.562 447.763 133.562 454.378 Q133.562 460.841 131.919 464.364 Q129.519 469.509 124.224 469.509 Q122.235 469.509 120.203 468.493 Q118.193 467.477 116.918 465.034 Q114.929 461.381 114.929 454.378 M118.604 453.837 Q118.604 460.517 119.079 463.175 Q119.62 466.05 121.089 467.304 Q122.581 468.536 124.224 468.536 Q125.996 468.536 127.466 467.217 Q128.957 465.877 129.411 463.002 Q129.909 460.171 129.887 453.837 Q129.887 447.677 129.455 445.213 Q128.871 442.338 127.315 441.192 Q125.78 440.025 124.224 440.025 Q123.64 440.025 123.013 440.198 Q122.408 440.371 121.522 440.868 Q120.636 441.365 119.944 442.597 Q119.274 443.829 118.95 445.688 Q118.604 448.088 118.604 453.837 Z" fill="#000000" fill-rule="evenodd" fill-opacity="1" /><path clip-path="url(#clip400)" d="M139.765 467.823 Q139.095 467.109 139.095 466.18 Q139.095 465.25 139.765 464.58 Q140.435 463.889 141.451 463.889 Q142.424 463.889 143.072 464.537 Q143.742 465.164 143.742 466.201 Q143.742 467.217 143.029 467.887 Q142.337 468.536 141.451 468.536 Q140.435 468.536 139.765 467.823 Z" fill="#000000" fill-rule="evenodd" fill-opacity="1" /><path clip-path="url(#clip400)" d="M149.492 449.017 Q149.492 446.661 150.184 445.062 Q150.876 443.44 152.324 441.841 Q154.982 439.052 158.83 439.052 Q160.473 439.052 161.921 439.744 Q163.391 440.436 164.774 442.014 Q166.179 443.57 167.022 446.661 Q167.865 449.731 167.865 453.967 Q167.865 460.819 164.537 465.164 Q161.229 469.509 156.755 469.509 Q153.923 469.509 152.259 468.233 Q150.595 466.936 150.595 464.732 Q150.595 463.586 151.243 463.11 Q151.891 462.613 152.626 462.613 Q153.426 462.613 154.053 463.154 Q154.68 463.672 154.68 464.645 Q154.68 465.445 154.161 466.072 Q153.664 466.677 152.367 466.677 Q153.642 468.277 156.712 468.277 Q157.814 468.277 158.916 467.779 Q160.019 467.261 161.208 466.029 Q162.418 464.775 163.153 462.159 Q163.888 459.544 163.888 455.869 L163.888 454.464 Q162.116 458.895 158.354 458.895 Q154.637 458.895 152.064 456.042 Q149.492 453.189 149.492 449.017 M153.469 449.06 Q153.469 453.448 154.269 455.07 Q155.631 457.858 158.398 457.858 Q161.1 457.858 162.44 455.459 Q163.802 453.038 163.802 449.903 Q163.802 445.559 163.088 443.657 Q161.77 440.155 158.83 440.155 Q155.912 440.155 154.399 442.943 Q153.469 444.586 153.469 449.06 Z" fill="#000000" fill-rule="evenodd" fill-opacity="1" /><path clip-path="url(#clip400)" d="M313.817 443.267 L313.817 441.884 Q319.135 441.884 321.88 439.052 Q322.636 439.052 322.766 439.225 Q322.896 439.398 322.896 440.198 L322.896 465.034 Q322.896 466.353 323.544 466.763 Q324.193 467.174 327.024 467.174 L328.429 467.174 L328.429 468.536 Q326.873 468.406 321.253 468.406 Q315.633 468.406 314.098 468.536 L314.098 467.174 L315.503 467.174 Q318.292 467.174 318.962 466.785 Q319.632 466.374 319.632 465.034 L319.632 442.1 Q317.319 443.267 313.817 443.267 Z" fill="#000000" fill-rule="evenodd" fill-opacity="1" /><path clip-path="url(#clip400)" d="M336.449 467.823 Q335.779 467.109 335.779 466.18 Q335.779 465.25 336.449 464.58 Q337.119 463.889 338.135 463.889 Q339.107 463.889 339.756 464.537 Q340.426 465.164 340.426 466.201 Q340.426 467.217 339.713 467.887 Q339.021 468.536 338.135 468.536 Q337.119 468.536 336.449 467.823 Z" fill="#000000" fill-rule="evenodd" fill-opacity="1" /><path clip-path="url(#clip400)" d="M346.046 454.378 Q346.046 447.872 347.689 444.327 Q349.98 439.052 355.384 439.052 Q356.529 439.052 357.718 439.377 Q358.929 439.679 360.442 440.868 Q361.977 442.057 362.906 444.002 Q364.678 447.763 364.678 454.378 Q364.678 460.841 363.036 464.364 Q360.636 469.509 355.341 469.509 Q353.352 469.509 351.32 468.493 Q349.31 467.477 348.035 465.034 Q346.046 461.381 346.046 454.378 M349.721 453.837 Q349.721 460.517 350.196 463.175 Q350.737 466.05 352.206 467.304 Q353.698 468.536 355.341 468.536 Q357.113 468.536 358.583 467.217 Q360.074 465.877 360.528 463.002 Q361.025 460.171 361.004 453.837 Q361.004 447.677 360.572 445.213 Q359.988 442.338 358.432 441.192 Q356.897 440.025 355.341 440.025 Q354.757 440.025 354.13 440.198 Q353.525 440.371 352.639 440.868 Q351.752 441.365 351.061 442.597 Q350.391 443.829 350.066 445.688 Q349.721 448.088 349.721 453.837 Z" fill="#000000" fill-rule="evenodd" fill-opacity="1" /><path clip-path="url(#clip400)" d="M512.576 443.267 L512.576 441.884 Q517.893 441.884 520.638 439.052 Q521.395 439.052 521.525 439.225 Q521.654 439.398 521.654 440.198 L521.654 465.034 Q521.654 466.353 522.303 466.763 Q522.951 467.174 525.783 467.174 L527.188 467.174 L527.188 468.536 Q525.632 468.406 520.012 468.406 Q514.392 468.406 512.857 468.536 L512.857 467.174 L514.262 467.174 Q517.05 467.174 517.72 466.785 Q518.39 466.374 518.39 465.034 L518.39 442.1 Q516.078 443.267 512.576 443.267 Z" fill="#000000" fill-rule="evenodd" fill-opacity="1" /><path clip-path="url(#clip400)" d="M535.207 467.823 Q534.537 467.109 534.537 466.18 Q534.537 465.25 535.207 464.58 Q535.877 463.889 536.893 463.889 Q537.866 463.889 538.514 464.537 Q539.185 465.164 539.185 466.201 Q539.185 467.217 538.471 467.887 Q537.78 468.536 536.893 468.536 Q535.877 468.536 535.207 467.823 Z" fill="#000000" fill-rule="evenodd" fill-opacity="1" /><path clip-path="url(#clip400)" d="M547.009 443.267 L547.009 441.884 Q552.327 441.884 555.072 439.052 Q555.828 439.052 555.958 439.225 Q556.088 439.398 556.088 440.198 L556.088 465.034 Q556.088 466.353 556.736 466.763 Q557.385 467.174 560.216 467.174 L561.621 467.174 L561.621 468.536 Q560.065 468.406 554.445 468.406 Q548.825 468.406 547.29 468.536 L547.29 467.174 L548.695 467.174 Q551.484 467.174 552.154 466.785 Q552.824 466.374 552.824 465.034 L552.824 442.1 Q550.511 443.267 547.009 443.267 Z" fill="#000000" fill-rule="evenodd" fill-opacity="1" /><path clip-path="url(#clip400)" d="M709.757 443.267 L709.757 441.884 Q715.074 441.884 717.819 439.052 Q718.576 439.052 718.705 439.225 Q718.835 439.398 718.835 440.198 L718.835 465.034 Q718.835 466.353 719.483 466.763 Q720.132 467.174 722.964 467.174 L724.369 467.174 L724.369 468.536 Q722.812 468.406 717.192 468.406 Q711.572 468.406 710.038 468.536 L710.038 467.174 L711.443 467.174 Q714.231 467.174 714.901 466.785 Q715.571 466.374 715.571 465.034 L715.571 442.1 Q713.258 443.267 709.757 443.267 Z" fill="#000000" fill-rule="evenodd" fill-opacity="1" /><path clip-path="url(#clip400)" d="M732.388 467.823 Q731.718 467.109 731.718 466.18 Q731.718 465.25 732.388 464.58 Q733.058 463.889 734.074 463.889 Q735.047 463.889 735.695 464.537 Q736.365 465.164 736.365 466.201 Q736.365 467.217 735.652 467.887 Q734.96 468.536 734.074 468.536 Q733.058 468.536 732.388 467.823 Z" fill="#000000" fill-rule="evenodd" fill-opacity="1" /><path clip-path="url(#clip400)" d="M742.461 468.536 Q742.461 467.736 742.526 467.498 Q742.612 467.261 742.958 466.893 L751.453 457.426 Q756.1 452.195 756.1 447.634 Q756.1 444.672 754.544 442.554 Q753.009 440.436 750.177 440.436 Q748.232 440.436 746.589 441.625 Q744.946 442.814 744.19 444.932 Q744.32 444.889 744.774 444.889 Q745.876 444.889 746.481 445.58 Q747.108 446.272 747.108 447.201 Q747.108 448.39 746.33 448.974 Q745.573 449.536 744.817 449.536 Q744.514 449.536 744.103 449.471 Q743.714 449.406 743.088 448.801 Q742.461 448.174 742.461 447.072 Q742.461 443.981 744.795 441.517 Q747.151 439.052 750.739 439.052 Q754.803 439.052 757.462 441.473 Q760.142 443.873 760.142 447.634 Q760.142 448.952 759.731 450.163 Q759.342 451.352 758.802 452.281 Q758.283 453.211 756.857 454.702 Q755.43 456.194 754.284 457.253 Q753.139 458.312 750.566 460.56 L745.876 465.121 L753.852 465.121 Q757.743 465.121 758.045 464.775 Q758.478 464.148 759.018 460.841 L760.142 460.841 L758.888 468.536 L742.461 468.536 Z" fill="#000000" fill-rule="evenodd" fill-opacity="1" /><path clip-path="url(#clip400)" d="M450.051 493.174 Q450.051 495.08 449.088 498.769 Q448.699 500.367 448.166 501.822 Q447.653 503.257 446.895 504.651 Q446.137 506.044 445.256 507.048 Q444.374 508.032 443.227 508.647 Q442.079 509.262 440.808 509.262 Q438.8 509.262 437.611 508.073 Q436.443 506.864 436.074 504.794 Q433.328 509.262 429.659 509.262 Q427.384 509.262 426.318 507.643 Q425.253 506.003 425.253 503.257 Q425.253 500.941 425.868 498.543 Q427.036 493.993 429.311 490.817 Q429.618 490.448 430.069 490.448 Q430.335 490.448 430.458 490.53 Q430.827 490.755 430.827 491.124 Q430.827 491.391 430.622 491.657 Q429.188 493.645 428.245 495.346 Q427.302 497.047 426.872 498.769 Q426.544 500.244 426.544 501.494 Q426.544 503.605 427.446 504.917 Q428.368 506.229 430.192 506.229 Q431.873 506.229 433.348 505.183 Q434.824 504.118 435.91 502.335 Q435.971 500.388 436.443 498.543 Q436.873 496.576 437.877 496.576 Q438.677 496.576 438.677 497.662 Q438.677 498.031 438.513 498.769 Q438.062 500.716 437.242 502.458 Q437.529 504.159 438.595 505.204 Q439.661 506.229 441.362 506.229 Q442.94 506.229 444.333 505.081 Q445.747 503.933 446.649 502.253 Q447.571 500.552 448.084 498.543 Q448.248 497.867 448.248 497.006 Q448.248 494.711 446.649 493.297 Q446.198 492.846 446.198 492.251 Q446.198 491.554 446.772 490.919 Q447.448 490.243 448.248 490.243 Q448.842 490.243 449.211 490.612 Q450.051 491.35 450.051 493.174 Z" fill="#000000" fill-rule="evenodd" fill-opacity="1" /><polyline clip-path="url(#clip400)" style="stroke:#000000; stroke-linecap:butt; stroke-linejoin:round; stroke-width:4; stroke-opacity:1; fill:none" points="
  123.591,424.336 123.591,47.2441 
  "/>
<polyline clip-path="url(#clip400)" style="stroke:#000000; stroke-linecap:butt; stroke-linejoin:round; stroke-width:4; stroke-opacity:1; fill:none" points="
  752.756,424.336 752.756,47.2441 
  "/>
<polyline clip-path="url(#clip400)" style="stroke:#000000; stroke-linecap:butt; stroke-linejoin:round; stroke-width:4; stroke-opacity:1; fill:none" points="
  123.591,329.303 142.488,329.303 
  "/>
<polyline clip-path="url(#clip400)" style="stroke:#000000; stroke-linecap:butt; stroke-linejoin:round; stroke-width:4; stroke-opacity:1; fill:none" points="
  123.591,234.12 142.488,234.12 
  "/>
<polyline clip-path="url(#clip400)" style="stroke:#000000; stroke-linecap:butt; stroke-linejoin:round; stroke-width:4; stroke-opacity:1; fill:none" points="
  123.591,138.937 142.488,138.937 
  "/>
<path clip-path="url(#clip400)" d="M59.0002 330.264 Q59.0002 323.758 60.643 320.213 Q62.9343 314.939 68.3381 314.939 Q69.4837 314.939 70.6726 315.263 Q71.883 315.566 73.3961 316.755 Q74.9308 317.944 75.8603 319.889 Q77.6328 323.65 77.6328 330.264 Q77.6328 336.727 75.99 340.251 Q73.5907 345.395 68.2949 345.395 Q66.3063 345.395 64.2744 344.379 Q62.2642 343.363 60.9889 340.921 Q59.0002 337.268 59.0002 330.264 M62.6749 329.724 Q62.6749 336.403 63.1504 339.062 Q63.6908 341.937 65.1606 343.191 Q66.6521 344.423 68.2949 344.423 Q70.0674 344.423 71.5372 343.104 Q73.0287 341.764 73.4826 338.889 Q73.9797 336.057 73.9581 329.724 Q73.9581 323.564 73.5258 321.1 Q72.9422 318.225 71.3859 317.079 Q69.8512 315.912 68.2949 315.912 Q67.7113 315.912 67.0844 316.085 Q66.4792 316.258 65.593 316.755 Q64.7067 317.252 64.015 318.484 Q63.345 319.716 63.0207 321.575 Q62.6749 323.974 62.6749 329.724 Z" fill="#000000" fill-rule="evenodd" fill-opacity="1" /><path clip-path="url(#clip400)" d="M83.8364 343.709 Q83.1663 342.996 83.1663 342.067 Q83.1663 341.137 83.8364 340.467 Q84.5065 339.775 85.5224 339.775 Q86.4951 339.775 87.1436 340.424 Q87.8136 341.051 87.8136 342.088 Q87.8136 343.104 87.1003 343.774 Q86.4086 344.423 85.5224 344.423 Q84.5065 344.423 83.8364 343.709 Z" fill="#000000" fill-rule="evenodd" fill-opacity="1" /><path clip-path="url(#clip400)" d="M93.9092 344.423 Q93.9092 343.623 93.974 343.385 Q94.0605 343.147 94.4063 342.78 L102.901 333.312 Q107.549 328.081 107.549 323.52 Q107.549 320.559 105.992 318.441 Q104.458 316.323 101.626 316.323 Q99.6805 316.323 98.0377 317.511 Q96.395 318.7 95.6384 320.819 Q95.7681 320.775 96.222 320.775 Q97.3244 320.775 97.9297 321.467 Q98.5565 322.159 98.5565 323.088 Q98.5565 324.277 97.7783 324.861 Q97.0218 325.423 96.2653 325.423 Q95.9626 325.423 95.552 325.358 Q95.1629 325.293 94.536 324.688 Q93.9092 324.061 93.9092 322.958 Q93.9092 319.867 96.2437 317.403 Q98.5997 314.939 102.188 314.939 Q106.252 314.939 108.91 317.36 Q111.591 319.759 111.591 323.52 Q111.591 324.839 111.18 326.049 Q110.791 327.238 110.25 328.168 Q109.732 329.097 108.305 330.589 Q106.878 332.08 105.733 333.139 Q104.587 334.198 102.015 336.446 L97.3244 341.007 L105.301 341.007 Q109.191 341.007 109.494 340.662 Q109.926 340.035 110.467 336.727 L111.591 336.727 L110.337 344.423 L93.9092 344.423 Z" fill="#000000" fill-rule="evenodd" fill-opacity="1" /><path clip-path="url(#clip400)" d="M58.0276 235.082 Q58.0276 228.576 59.6703 225.031 Q61.9616 219.756 67.3654 219.756 Q68.511 219.756 69.6999 220.081 Q70.9104 220.383 72.4234 221.572 Q73.9581 222.761 74.8876 224.706 Q76.6601 228.468 76.6601 235.082 Q76.6601 241.545 75.0173 245.068 Q72.618 250.213 67.3222 250.213 Q65.3336 250.213 63.3017 249.197 Q61.2915 248.181 60.0162 245.738 Q58.0276 242.085 58.0276 235.082 M61.7022 234.541 Q61.7022 241.221 62.1777 243.879 Q62.7181 246.754 64.188 248.008 Q65.6794 249.24 67.3222 249.24 Q69.0947 249.24 70.5645 247.921 Q72.056 246.581 72.5099 243.706 Q73.0071 240.875 72.9854 234.541 Q72.9854 228.381 72.5531 225.917 Q71.9695 223.042 70.4132 221.896 Q68.8785 220.729 67.3222 220.729 Q66.7386 220.729 66.1117 220.902 Q65.5065 221.075 64.6203 221.572 Q63.734 222.069 63.0423 223.301 Q62.3723 224.533 62.048 226.392 Q61.7022 228.792 61.7022 234.541 Z" fill="#000000" fill-rule="evenodd" fill-opacity="1" /><path clip-path="url(#clip400)" d="M82.8637 248.527 Q82.1936 247.813 82.1936 246.884 Q82.1936 245.954 82.8637 245.284 Q83.5338 244.593 84.5497 244.593 Q85.5224 244.593 86.1709 245.241 Q86.8409 245.868 86.8409 246.905 Q86.8409 247.921 86.1276 248.591 Q85.4359 249.24 84.5497 249.24 Q83.5338 249.24 82.8637 248.527 Z" fill="#000000" fill-rule="evenodd" fill-opacity="1" /><path clip-path="url(#clip400)" d="M91.9638 241.934 L91.9638 240.572 L105.56 219.8 Q105.906 219.259 106.446 219.281 Q106.943 219.281 107.051 219.475 Q107.159 219.67 107.159 220.427 L107.159 240.572 L111.591 240.572 L111.591 241.934 L107.159 241.934 L107.159 245.781 Q107.159 247.057 107.678 247.467 Q108.219 247.878 110.51 247.878 L111.439 247.878 L111.439 249.24 Q109.624 249.11 105.43 249.11 Q101.258 249.11 99.4427 249.24 L99.4427 247.878 L100.372 247.878 Q102.663 247.878 103.204 247.489 Q103.744 247.078 103.744 245.781 L103.744 241.934 L91.9638 241.934 M93.2175 240.572 L104.004 240.572 L104.004 224.058 L93.2175 240.572 Z" fill="#000000" fill-rule="evenodd" fill-opacity="1" /><path clip-path="url(#clip400)" d="M58.6544 139.899 Q58.6544 133.393 60.2972 129.848 Q62.5884 124.574 67.9923 124.574 Q69.1379 124.574 70.3267 124.898 Q71.5372 125.201 73.0503 126.39 Q74.585 127.578 75.5144 129.524 Q77.2869 133.285 77.2869 139.899 Q77.2869 146.362 75.6441 149.886 Q73.2448 155.03 67.949 155.03 Q65.9604 155.03 63.9286 154.014 Q61.9183 152.998 60.643 150.556 Q58.6544 146.903 58.6544 139.899 M62.329 139.359 Q62.329 146.038 62.8046 148.697 Q63.345 151.572 64.8148 152.825 Q66.3063 154.057 67.949 154.057 Q69.7215 154.057 71.1914 152.739 Q72.6828 151.399 73.1367 148.524 Q73.6339 145.692 73.6123 139.359 Q73.6123 133.198 73.18 130.734 Q72.5964 127.859 71.04 126.714 Q69.5054 125.547 67.949 125.547 Q67.3654 125.547 66.7386 125.719 Q66.1333 125.892 65.2471 126.39 Q64.3609 126.887 63.6692 128.119 Q62.9991 129.351 62.6749 131.21 Q62.329 133.609 62.329 139.359 Z" fill="#000000" fill-rule="evenodd" fill-opacity="1" /><path clip-path="url(#clip400)" d="M83.4905 153.344 Q82.8205 152.631 82.8205 151.701 Q82.8205 150.772 83.4905 150.102 Q84.1606 149.41 85.1765 149.41 Q86.1492 149.41 86.7977 150.058 Q87.4678 150.685 87.4678 151.723 Q87.4678 152.739 86.7545 153.409 Q86.0628 154.057 85.1765 154.057 Q84.1606 154.057 83.4905 153.344 Z" fill="#000000" fill-rule="evenodd" fill-opacity="1" /><path clip-path="url(#clip400)" d="M93.2175 140.072 Q93.2175 133.112 96.7624 128.854 Q100.307 124.574 104.868 124.574 Q107.527 124.574 108.997 125.936 Q110.488 127.276 110.488 129.351 Q110.488 130.496 109.818 130.994 Q109.148 131.491 108.456 131.491 Q107.657 131.491 107.03 130.95 Q106.403 130.41 106.403 129.437 Q106.403 127.449 108.845 127.449 Q107.7 125.676 104.955 125.676 Q104.112 125.676 103.247 125.936 Q102.382 126.173 101.258 126.995 Q100.134 127.816 99.2698 129.113 Q98.4052 130.41 97.8 132.853 Q97.1947 135.295 97.1947 138.473 L97.1947 139.532 Q99.0104 135.144 102.728 135.165 Q106.446 135.165 109.018 137.997 Q111.591 140.829 111.591 145.022 Q111.591 149.324 108.91 152.177 Q106.23 155.03 102.469 155.03 Q100.783 155.03 99.2482 154.317 Q97.7351 153.625 96.3085 152.025 Q94.9035 150.426 94.0605 147.357 Q93.2175 144.287 93.2175 140.072 M97.2812 144.049 Q97.2812 148.394 98.081 150.469 Q98.2107 150.815 98.4917 151.291 Q98.7943 151.766 99.2914 152.393 Q99.8102 152.998 100.653 153.409 Q101.496 153.798 102.469 153.798 Q105.43 153.798 106.857 150.923 Q107.613 149.324 107.613 144.979 Q107.613 140.548 106.814 138.926 Q105.452 136.181 102.685 136.181 Q100.826 136.181 99.5292 137.457 Q98.2539 138.732 97.7567 140.44 Q97.2812 142.147 97.2812 144.049 Z" fill="#000000" fill-rule="evenodd" fill-opacity="1" /><path clip-path="url(#clip400)" d="M37.2819 321.551 L27.3338 315.101 L40.5342 312.477 L42.9392 311.985 Q42.3106 311.876 41.2448 311.548 Q40.1516 311.193 39.8783 311.138 L6.61769 302.474 Q6.39905 302.42 6.04376 302.338 Q5.66114 302.228 5.52449 302.174 Q5.38784 302.119 5.11454 302.037 Q4.84125 301.955 4.75926 301.9 Q4.64994 301.846 4.45863 301.764 Q4.26732 301.682 4.21266 301.572 Q4.158 301.463 4.04868 301.326 Q3.93936 301.19 3.91203 301.026 Q3.8847 300.835 3.85737 300.643 Q3.83004 300.452 3.83004 300.179 L3.83004 295.287 Q3.83004 293.565 4.95057 293.565 Q6.07109 293.565 6.07109 295.232 L6.07109 300.015 L49.2251 311.302 Q49.8537 311.466 50.0997 311.603 Q50.3457 311.712 50.5643 312.095 Q50.7829 312.477 50.7829 313.16 L50.7829 313.707 L32.9911 317.287 L38.1838 320.649 L37.2819 321.551 Z" fill="#000000" fill-rule="evenodd" fill-opacity="1" /><path clip-path="url(#clip400)" d="
M6.07851 295.402 L6.07851 150.029 L3.75318 150.029 L3.75318 295.402  Z
  " fill="#000000" fill-rule="evenodd" fill-opacity="1"/>
<path clip-path="url(#clip400)" d="M41.3436 269.341 Q43.9874 269.874 45.504 270.591 Q47.8199 271.759 47.8199 273.706 Q47.8199 275.059 47.0616 276.084 Q46.2828 277.088 44.9916 277.436 Q45.504 277.826 45.8524 278.174 Q46.2008 278.502 46.7337 279.138 Q47.246 279.773 47.533 280.634 Q47.8199 281.474 47.8199 282.437 Q47.8199 283.175 47.6764 283.851 Q47.5535 284.528 47.205 285.245 Q46.8361 285.942 46.2828 286.454 Q45.7294 286.946 44.8277 287.274 Q43.9259 287.602 42.7782 287.602 Q41.3436 287.602 39.3966 287.048 Q37.4496 286.475 33.9655 285.163 Q32.121 284.446 31.0963 284.446 Q30.6249 284.446 30.3175 284.548 Q30.01 284.651 29.9076 284.856 Q29.7846 285.04 29.7641 285.163 Q29.7231 285.286 29.7231 285.491 Q29.7231 286.762 31.0143 287.868 Q32.3054 288.975 34.9288 289.733 Q35.4411 289.897 35.5641 290 Q35.6871 290.102 35.6871 290.41 Q35.6666 290.922 35.2567 290.922 Q35.0927 290.922 34.4574 290.737 Q33.8015 290.553 32.8383 290.123 Q31.8546 289.672 30.9733 289.057 Q30.0715 288.442 29.4362 287.479 Q28.8009 286.495 28.8009 285.368 Q28.8009 283.831 29.8051 282.888 Q30.7888 281.925 32.244 281.925 Q33.1457 281.925 34.8878 282.642 Q40.9337 284.917 43.4545 284.917 Q46.8771 284.917 46.8771 282.314 Q46.8771 281.453 46.5287 280.654 Q46.1803 279.834 45.6884 279.301 Q45.1966 278.769 44.6637 278.359 Q44.1308 277.928 43.7824 277.744 Q43.434 277.539 43.3521 277.518 L30.7274 274.383 Q30.2355 274.26 29.9076 274.034 Q29.5592 273.788 29.4362 273.501 Q29.3132 273.215 29.2927 273.051 Q29.2517 272.887 29.2517 272.743 Q29.2517 272.231 29.5592 271.882 Q29.8666 271.514 30.3994 271.514 Q30.5019 271.514 30.9938 271.636 Q31.4652 271.739 32.162 271.903 Q32.8383 272.067 33.2072 272.149 Q35.7895 272.805 36.056 272.866 L40.5853 274.034 Q40.8517 274.096 41.7125 274.301 Q42.5733 274.485 43.0241 274.588 Q43.4545 274.69 44.0489 274.793 Q44.6227 274.875 44.9506 274.875 Q45.9754 274.875 46.4262 274.567 Q46.8771 274.26 46.8771 273.583 Q46.8771 272.948 46.4467 272.456 Q45.9959 271.944 45.1351 271.554 Q44.2538 271.165 43.5365 270.94 Q42.8192 270.714 41.692 270.427 Q41.2001 270.325 41.0771 270.243 Q40.9337 270.14 40.9337 269.853 Q40.9337 269.341 41.3436 269.341 Z" fill="#000000" fill-rule="evenodd" fill-opacity="1" /><path clip-path="url(#clip400)" d="M34.7931 265.067 Q34.2623 265.067 34.1045 265.024 Q33.9467 264.967 33.7028 264.737 L27.4191 259.099 Q23.9473 256.014 20.9203 256.014 Q18.9548 256.014 17.5489 257.047 Q16.143 258.066 16.143 259.945 Q16.143 261.236 16.932 262.327 Q17.7211 263.417 19.127 263.919 Q19.0983 263.833 19.0983 263.532 Q19.0983 262.8 19.5574 262.399 Q20.0165 261.982 20.6333 261.982 Q21.4224 261.982 21.8097 262.499 Q22.1827 263.001 22.1827 263.503 Q22.1827 263.704 22.1397 263.977 Q22.0967 264.235 21.695 264.651 Q21.2789 265.067 20.5473 265.067 Q18.4958 265.067 16.8603 263.518 Q15.2248 261.954 15.2248 259.572 Q15.2248 256.875 16.8316 255.111 Q18.424 253.332 20.9203 253.332 Q21.7954 253.332 22.5988 253.604 Q23.3878 253.863 24.0047 254.221 Q24.6216 254.565 25.6115 255.512 Q26.6014 256.459 27.3043 257.22 Q28.0073 257.98 29.4993 259.687 L32.5264 262.8 L32.5264 257.506 Q32.5264 254.924 32.2968 254.723 Q31.8808 254.436 29.6858 254.078 L29.6858 253.332 L34.7931 254.164 L34.7931 265.067 Z" fill="#000000" fill-rule="evenodd" fill-opacity="1" /><path clip-path="url(#clip400)" d="M37.3676 236.356 Q37.3676 237.319 36.8552 237.319 Q36.3429 237.319 36.3429 236.315 Q36.3429 236.192 36.3634 235.987 Q36.3839 235.761 36.3839 235.72 L36.3839 223.895 L24.5175 223.895 Q24.4765 223.895 24.292 223.915 Q24.0871 223.936 23.9641 223.936 Q22.9599 223.936 22.9599 223.444 Q22.9599 222.932 23.9641 222.932 L36.3839 222.932 L36.3839 211.086 Q36.3839 211.045 36.3634 210.84 Q36.3429 210.635 36.3429 210.512 Q36.3429 209.549 36.8552 209.549 Q37.3676 209.528 37.3676 210.553 Q37.3676 210.676 37.3471 210.86 Q37.3266 211.045 37.3266 211.086 L37.3266 222.932 L49.7874 222.932 Q50.7506 222.932 50.7506 223.444 Q50.7506 223.936 49.7464 223.936 Q49.6234 223.936 49.4185 223.915 Q49.234 223.895 49.193 223.895 L37.3266 223.895 L37.3266 235.72 Q37.3266 235.761 37.3471 236.007 Q37.3676 236.233 37.3676 236.356 Z" fill="#000000" fill-rule="evenodd" fill-opacity="1" /><path clip-path="url(#clip400)" d="M31.7316 174.912 Q32.2645 174.912 33.3097 175.056 Q34.3549 175.199 35.8715 175.548 Q37.3881 175.896 38.9867 176.408 Q40.5853 176.9 42.1839 177.679 Q43.7619 178.458 45.0121 179.38 Q46.2623 180.302 47.0411 181.594 Q47.8199 182.885 47.8199 184.34 Q47.8199 185.016 47.7174 185.672 Q47.6149 186.328 47.287 187.148 Q46.9591 187.967 46.4262 188.562 Q45.8729 189.156 44.8891 189.566 Q43.9054 189.976 42.6142 189.976 Q41.2821 189.976 39.4991 189.484 Q37.6955 188.972 34.0065 187.578 Q32.1005 186.861 31.0553 186.861 Q30.5839 186.861 30.297 186.963 Q29.9895 187.066 29.8871 187.271 Q29.7641 187.476 29.7436 187.599 Q29.7231 187.701 29.7231 187.906 Q29.7231 189.033 30.8913 190.181 Q32.0595 191.329 34.9288 192.148 Q35.4411 192.312 35.5641 192.415 Q35.6871 192.517 35.6871 192.825 Q35.6666 193.337 35.2567 193.337 Q35.1337 193.337 34.6623 193.194 Q34.1705 193.05 33.4326 192.784 Q32.6743 192.517 31.8955 192.046 Q31.0963 191.575 30.3994 191.001 Q29.7026 190.406 29.2517 189.566 Q28.8009 188.726 28.8009 187.783 Q28.8009 186.246 29.8051 185.303 Q30.7888 184.34 32.244 184.34 Q33.0432 184.34 34.3344 184.852 Q36.6708 185.713 37.798 186.102 Q38.9252 186.492 40.5238 186.902 Q42.1224 187.291 43.2291 187.291 Q44.9096 187.291 45.8934 186.512 Q46.8771 185.734 46.8771 184.176 Q46.8771 182.782 45.8729 181.532 Q44.8482 180.261 43.393 179.421 Q41.9174 178.581 40.2779 177.946 Q38.6178 177.31 37.3676 177.023 Q36.0969 176.716 35.5026 176.716 Q33.4326 176.716 32.08 178.13 Q31.6906 178.519 31.4447 178.663 Q31.1987 178.806 30.8093 178.806 Q30.092 178.806 29.4567 178.171 Q28.8009 177.515 28.8009 176.757 Q28.8009 176.06 29.4977 175.486 Q30.1945 174.912 31.7316 174.912 Z" fill="#000000" fill-rule="evenodd" fill-opacity="1" /><path clip-path="url(#clip400)" d="M34.7931 170.612 Q34.2623 170.612 34.1045 170.569 Q33.9467 170.512 33.7028 170.282 L27.4191 164.644 Q23.9473 161.56 20.9203 161.56 Q18.9548 161.56 17.5489 162.593 Q16.143 163.611 16.143 165.491 Q16.143 166.782 16.932 167.872 Q17.7211 168.962 19.127 169.465 Q19.0983 169.378 19.0983 169.077 Q19.0983 168.346 19.5574 167.944 Q20.0165 167.528 20.6333 167.528 Q21.4224 167.528 21.8097 168.044 Q22.1827 168.546 22.1827 169.049 Q22.1827 169.249 22.1397 169.522 Q22.0967 169.78 21.695 170.196 Q21.2789 170.612 20.5473 170.612 Q18.4958 170.612 16.8603 169.063 Q15.2248 167.499 15.2248 165.118 Q15.2248 162.421 16.8316 160.656 Q18.424 158.877 20.9203 158.877 Q21.7954 158.877 22.5988 159.15 Q23.3878 159.408 24.0047 159.767 Q24.6216 160.111 25.6115 161.058 Q26.6014 162.005 27.3043 162.765 Q28.0073 163.525 29.4993 165.232 L32.5264 168.346 L32.5264 163.052 Q32.5264 160.469 32.2968 160.269 Q31.8808 159.982 29.6858 159.623 L29.6858 158.877 L34.7931 159.709 L34.7931 170.612 Z" fill="#000000" fill-rule="evenodd" fill-opacity="1" /><polyline clip-path="url(#clip402)" style="stroke:#009af9; stroke-linecap:butt; stroke-linejoin:round; stroke-width:4.8; stroke-opacity:1; fill:none" points="
  141.397,399.729 147.393,399.022 153.388,398.272 159.384,397.476 165.379,396.629 171.375,395.727 177.37,394.765 183.366,393.736 189.361,392.635 195.356,391.453 
  201.352,390.184 207.347,388.817 213.343,387.343 219.338,385.751 225.334,384.028 231.329,382.161 237.325,380.136 243.32,377.936 249.316,375.545 255.311,372.947 
  261.307,370.126 267.302,367.066 273.298,363.756 279.293,360.187 285.289,356.354 291.284,352.263 297.28,347.923 303.275,343.352 309.271,338.574 315.266,333.62 
  321.261,328.522 327.257,323.314 333.252,318.029 339.248,312.696 345.243,307.343 351.239,301.992 357.234,296.662 363.23,291.368 369.225,286.12 375.221,280.927 
  381.216,275.796 387.212,270.731 393.207,265.734 399.203,260.806 405.198,255.949 411.194,251.162 417.189,246.443 423.185,241.793 429.18,237.209 435.176,232.69 
  441.171,228.234 447.166,223.839 453.162,219.503 459.157,215.225 465.153,211.003 471.148,206.834 477.144,202.717 483.139,198.651 489.135,194.633 495.13,190.662 
  501.126,186.736 507.121,182.854 513.117,179.015 519.112,175.216 525.108,171.457 531.103,167.736 537.099,164.053 543.094,160.406 549.09,156.793 555.085,153.214 
  561.081,149.668 567.076,146.154 573.071,142.671 579.067,139.218 585.062,135.794 591.058,132.398 597.053,129.03 603.049,125.689 609.044,122.374 615.04,119.084 
  621.035,115.82 627.031,112.579 633.026,109.363 639.022,106.169 645.017,102.999 651.013,99.8501 657.008,96.7233 663.004,93.6178 668.999,90.5333 674.995,87.4694 
  680.99,84.4257 686.986,81.402 692.981,78.398 698.976,75.4136 704.972,72.4486 710.967,69.503 716.963,66.5768 722.958,63.6701 728.954,60.7832 734.949,57.9165 
  
  "/>
<polyline clip-path="url(#clip402)" style="stroke:#e26f46; stroke-linecap:butt; stroke-linejoin:round; stroke-width:4.8; stroke-opacity:1; fill:none" points="
  417.189,346.737 423.185,359.747 429.18,366.913 435.176,372.094 441.171,376.179 447.166,379.548 453.162,382.406 459.157,384.879 465.153,387.049 471.148,388.977 
  477.144,390.704 483.139,392.263 489.135,393.679 495.13,394.973 501.126,396.161 507.121,397.256 513.117,398.269 519.112,399.209 525.108,400.084 531.103,400.902 
  537.099,401.667 543.094,402.385 549.09,403.06 555.085,403.696 561.081,404.296 567.076,404.864 573.071,405.401 579.067,405.911 585.062,406.395 591.058,406.856 
  597.053,407.294 603.049,407.712 609.044,408.112 615.04,408.493 621.035,408.858 627.031,409.207 633.026,409.542 639.022,409.863 645.017,410.172 651.013,410.468 
  657.008,410.753 663.004,411.028 668.999,411.292 674.995,411.547 680.99,411.792 686.986,412.029 692.981,412.258 698.976,412.479 704.972,412.693 710.967,412.9 
  716.963,413.1 722.958,413.294 728.954,413.482 734.949,413.664 
  "/>
<polyline clip-path="url(#clip402)" style="stroke:#3da44d; stroke-linecap:butt; stroke-linejoin:round; stroke-width:4.8; stroke-opacity:1; fill:none" stroke-dasharray="2, 5" points="
  417.189,320.658 423.185,302.968 429.18,291.187 435.176,281.456 441.171,272.883 447.166,265.088 453.162,257.862 459.157,251.078 465.153,244.651 471.148,238.521 
  477.144,232.643 483.139,226.983 489.135,221.513 495.13,216.211 501.126,211.061 507.121,206.047 513.117,201.156 519.112,196.379 525.108,191.705 531.103,187.126 
  537.099,182.637 543.094,178.229 549.09,173.899 555.085,169.641 561.081,165.45 567.076,161.323 573.071,157.256 579.067,153.245 585.062,149.288 591.058,145.382 
  597.053,141.524 603.049,137.712 609.044,133.944 615.04,130.218 621.035,126.532 627.031,122.883 633.026,119.271 639.022,115.695 645.017,112.151 651.013,108.64 
  657.008,105.159 663.004,101.708 668.999,98.2847 674.995,94.8888 680.99,91.519 686.986,88.1741 692.981,84.8531 698.976,81.5549 704.972,78.2785 710.967,75.0227 
  716.963,71.7866 722.958,68.5689 728.954,65.3683 734.949,62.1835 
  "/>
</svg>
