<?xml version="1.0" encoding="UTF-8" standalone="no"?>
<svg
   xmlns:dc="http://purl.org/dc/elements/1.1/"
   xmlns:cc="http://creativecommons.org/ns#"
   xmlns:rdf="http://www.w3.org/1999/02/22-rdf-syntax-ns#"
   xmlns:svg="http://www.w3.org/2000/svg"
   xmlns="http://www.w3.org/2000/svg"
   xmlns:sodipodi="http://sodipodi.sourceforge.net/DTD/sodipodi-0.dtd"
   xmlns:inkscape="http://www.inkscape.org/namespaces/inkscape"
   width="333.29303"
   height="116.1857"
   viewBox="0 0 1333.1721 464.7428"
   version="1.1"
   id="svg264"
   sodipodi:docname="geophase.svg"
   inkscape:version="0.92.5 (2060ec1f9f, 2020-04-08)">
  <metadata
     id="metadata268">
    <rdf:RDF>
      <cc:Work
         rdf:about="">
        <dc:format>image/svg+xml</dc:format>
        <dc:type
           rdf:resource="http://purl.org/dc/dcmitype/StillImage" />
      </cc:Work>
    </rdf:RDF>
  </metadata>
  <sodipodi:namedview
     pagecolor="#ffffff"
     bordercolor="#666666"
     borderopacity="1"
     objecttolerance="10"
     gridtolerance="10"
     guidetolerance="10"
     inkscape:pageopacity="0"
     inkscape:pageshadow="2"
     inkscape:window-width="2006"
     inkscape:window-height="1133"
     id="namedview266"
     showgrid="false"
     inkscape:zoom="2.1900107"
     inkscape:cx="226.90055"
     inkscape:cy="48.605884"
     inkscape:window-x="0"
     inkscape:window-y="0"
     inkscape:window-maximized="0"
     inkscape:current-layer="svg264" />
  <defs
     id="defs5">
    <clipPath
       id="clip050">
      <rect
         x="0"
         y="0"
         width="1400"
         height="520"
         id="rect2" />
    </clipPath>
  </defs>
  <defs
     id="defs12">
    <clipPath
       id="clip051">
      <rect
         x="280"
         y="0"
         width="981"
         height="520"
         id="rect9" />
    </clipPath>
  </defs>
  <defs
     id="defs17">
    <clipPath
       id="clip052">
      <rect
         x="887"
         y="47"
         width="467"
         height="356"
         id="rect14" />
    </clipPath>
  </defs>
  <path
     clip-path="url(#clip050)"
     d="M 152.76,402.364 H 618.386 V 47.2441 H 152.76 Z"
     id="path19"
     inkscape:connector-curvature="0"
     style="fill:#ffffff;fill-opacity:1;fill-rule:evenodd"
     transform="translate(-21.5879,-42.9312)" />
  <defs
     id="defs24">
    <clipPath
       id="clip053">
      <rect
         x="152"
         y="47"
         width="467"
         height="356"
         id="rect21" />
    </clipPath>
  </defs>
  <polyline
     clip-path="url(#clip050)"
     style="fill:none;stroke:#000000;stroke-width:4;stroke-linecap:butt;stroke-linejoin:round;stroke-opacity:1"
     points="   152.76,402.364 618.386,402.364    "
     id="polyline26"
     transform="translate(-21.5879,-42.9312)" />
  <polyline
     clip-path="url(#clip050)"
     style="fill:none;stroke:#000000;stroke-width:4;stroke-linecap:butt;stroke-linejoin:round;stroke-opacity:1"
     points="   152.76,47.2441 618.386,47.2441    "
     id="polyline28"
     transform="translate(-21.5879,-42.9312)" />
  <polyline
     clip-path="url(#clip050)"
     style="fill:none;stroke:#000000;stroke-width:4;stroke-linecap:butt;stroke-linejoin:round;stroke-opacity:1"
     points="   152.76,402.364 152.76,383.466    "
     id="polyline30"
     transform="translate(-21.5879,-42.9312)" />
  <polyline
     clip-path="url(#clip050)"
     style="fill:none;stroke:#000000;stroke-width:4;stroke-linecap:butt;stroke-linejoin:round;stroke-opacity:1"
     points="   307.968,402.364 307.968,383.466    "
     id="polyline32"
     transform="translate(-21.5879,-42.9312)" />
  <polyline
     clip-path="url(#clip050)"
     style="fill:none;stroke:#000000;stroke-width:4;stroke-linecap:butt;stroke-linejoin:round;stroke-opacity:1"
     points="   463.177,402.364 463.177,383.466    "
     id="polyline34"
     transform="translate(-21.5879,-42.9312)" />
  <polyline
     clip-path="url(#clip050)"
     style="fill:none;stroke:#000000;stroke-width:4;stroke-linecap:butt;stroke-linejoin:round;stroke-opacity:1"
     points="   618.386,402.364 618.386,383.466    "
     id="polyline36"
     transform="translate(-21.5879,-42.9312)" />
  <path
     clip-path="url(#clip050)"
     d="m 105.433,426.095 v -1.383 q 5.317,0 8.062,-2.832 0.757,0 0.887,0.173 0.129,0.173 0.129,0.973 v 24.836 q 0,1.319 0.649,1.729 0.648,0.411 3.48,0.411 h 1.405 v 1.362 q -1.557,-0.13 -7.177,-0.13 -5.62,0 -7.154,0.13 v -1.362 h 1.405 q 2.788,0 3.458,-0.389 0.67,-0.411 0.67,-1.751 v -22.934 q -2.313,1.167 -5.814,1.167 z"
     id="path38"
     inkscape:connector-curvature="0"
     style="fill:#000000;fill-opacity:1;fill-rule:evenodd"
     transform="translate(-21.5879,-42.9312)" />
  <path
     clip-path="url(#clip050)"
     d="m 128.064,450.651 q -0.67,-0.714 -0.67,-1.643 0,-0.93 0.67,-1.6 0.67,-0.691 1.686,-0.691 0.973,0 1.621,0.648 0.67,0.627 0.67,1.664 0,1.016 -0.713,1.686 -0.692,0.649 -1.578,0.649 -1.016,0 -1.686,-0.713 z"
     id="path40"
     inkscape:connector-curvature="0"
     style="fill:#000000;fill-opacity:1;fill-rule:evenodd"
     transform="translate(-21.5879,-42.9312)" />
  <path
     clip-path="url(#clip050)"
     d="m 137.661,437.206 q 0,-6.507 1.643,-10.051 2.291,-5.275 7.695,-5.275 1.146,0 2.335,0.325 1.21,0.302 2.723,1.491 1.535,1.189 2.464,3.134 1.773,3.761 1.773,10.376 0,6.463 -1.643,9.986 -2.399,5.145 -7.695,5.145 -1.989,0 -4.021,-1.016 -2.01,-1.016 -3.285,-3.459 -1.989,-3.653 -1.989,-10.656 m 3.675,-0.541 q 0,6.68 0.475,9.338 0.541,2.875 2.011,4.129 1.491,1.232 3.134,1.232 1.772,0 3.242,-1.319 1.492,-1.34 1.946,-4.215 0.497,-2.831 0.475,-9.165 0,-6.16 -0.432,-8.624 -0.584,-2.875 -2.14,-4.021 -1.535,-1.167 -3.091,-1.167 -0.584,0 -1.21,0.173 -0.606,0.173 -1.492,0.67 -0.886,0.497 -1.578,1.729 -0.67,1.232 -0.994,3.091 -0.346,2.4 -0.346,8.149 z"
     id="path42"
     inkscape:connector-curvature="0"
     style="fill:#000000;fill-opacity:1;fill-rule:evenodd"
     transform="translate(-21.5879,-42.9312)" />
  <path
     clip-path="url(#clip050)"
     d="m 160.271,451.364 q 0,-0.8 0.065,-1.038 0.086,-0.237 0.432,-0.605 l 8.495,-9.467 q 4.647,-5.231 4.647,-9.792 0,-2.962 -1.556,-5.08 -1.535,-2.118 -4.366,-2.118 -1.946,0 -3.588,1.189 -1.643,1.188 -2.4,3.307 0.13,-0.043 0.584,-0.043 1.102,0 1.708,0.691 0.626,0.692 0.626,1.621 0,1.189 -0.778,1.773 -0.756,0.562 -1.513,0.562 -0.302,0 -0.713,-0.065 -0.389,-0.065 -1.016,-0.67 -0.627,-0.627 -0.627,-1.729 0,-3.091 2.335,-5.555 2.356,-2.465 5.944,-2.465 4.063,0 6.722,2.421 2.681,2.4 2.681,6.161 0,1.318 -0.411,2.529 -0.389,1.189 -0.93,2.118 -0.518,0.929 -1.945,2.421 -1.427,1.491 -2.572,2.551 -1.146,1.059 -3.718,3.307 l -4.691,4.561 h 7.976 q 3.891,0 4.194,-0.346 0.432,-0.627 0.973,-3.934 h 1.124 l -1.254,7.695 z"
     id="path44"
     inkscape:connector-curvature="0"
     style="fill:#000000;fill-opacity:1;fill-rule:evenodd"
     transform="translate(-21.5879,-42.9312)" />
  <path
     clip-path="url(#clip050)"
     d="m 182.405,444.231 q 0,-1.319 0.714,-1.816 0.713,-0.519 1.469,-0.519 1.016,0 1.6,0.649 0.605,0.627 0.605,1.513 0,0.886 -0.605,1.535 -0.584,0.626 -1.6,0.626 -0.497,0 -0.756,-0.086 0.584,2.032 2.356,3.502 1.794,1.469 4.15,1.469 2.961,0 4.734,-2.874 1.059,-1.859 1.059,-6.074 0,-3.718 -0.8,-5.577 -1.232,-2.832 -3.761,-2.832 -3.588,0 -5.706,3.091 -0.26,0.389 -0.562,0.411 -0.433,0 -0.541,-0.238 -0.086,-0.259 -0.086,-0.929 v -13.099 q 0,-1.059 0.432,-1.059 0.173,0 0.541,0.129 2.788,1.232 5.879,1.254 3.177,0 6.031,-1.297 0.216,-0.13 0.346,-0.13 0.432,0 0.453,0.498 0,0.172 -0.367,0.691 -0.346,0.497 -1.102,1.167 -0.757,0.649 -1.73,1.276 -0.972,0.627 -2.399,1.059 -1.405,0.411 -2.961,0.411 -1.859,0 -3.761,-0.584 v 8.625 q 2.291,-2.248 5.62,-2.248 3.545,0 5.987,2.853 2.443,2.853 2.443,6.83 0,4.172 -2.897,7.025 -2.875,2.854 -6.765,2.854 -3.545,0 -5.793,-2.529 -2.227,-2.529 -2.227,-5.577 z"
     id="path46"
     inkscape:connector-curvature="0"
     style="fill:#000000;fill-opacity:1;fill-rule:evenodd"
     transform="translate(-21.5879,-42.9312)" />
  <path
     clip-path="url(#clip050)"
     d="m 260.404,426.095 v -1.383 q 5.317,0 8.062,-2.832 0.757,0 0.886,0.173 0.13,0.173 0.13,0.973 v 24.836 q 0,1.319 0.649,1.729 0.648,0.411 3.48,0.411 h 1.405 v 1.362 q -1.557,-0.13 -7.177,-0.13 -5.62,0 -7.154,0.13 v -1.362 h 1.405 q 2.788,0 3.458,-0.389 0.67,-0.411 0.67,-1.751 v -22.934 q -2.313,1.167 -5.814,1.167 z"
     id="path48"
     inkscape:connector-curvature="0"
     style="fill:#000000;fill-opacity:1;fill-rule:evenodd"
     transform="translate(-21.5879,-42.9312)" />
  <path
     clip-path="url(#clip050)"
     d="m 283.035,450.651 q -0.67,-0.714 -0.67,-1.643 0,-0.93 0.67,-1.6 0.67,-0.691 1.686,-0.691 0.973,0 1.621,0.648 0.67,0.627 0.67,1.664 0,1.016 -0.713,1.686 -0.692,0.649 -1.578,0.649 -1.016,0 -1.686,-0.713 z"
     id="path50"
     inkscape:connector-curvature="0"
     style="fill:#000000;fill-opacity:1;fill-rule:evenodd"
     transform="translate(-21.5879,-42.9312)" />
  <path
     clip-path="url(#clip050)"
     d="m 292.632,437.206 q 0,-6.507 1.643,-10.051 2.291,-5.275 7.695,-5.275 1.146,0 2.335,0.325 1.21,0.302 2.723,1.491 1.535,1.189 2.464,3.134 1.773,3.761 1.773,10.376 0,6.463 -1.643,9.986 -2.399,5.145 -7.695,5.145 -1.989,0 -4.021,-1.016 -2.01,-1.016 -3.285,-3.459 -1.989,-3.653 -1.989,-10.656 m 3.675,-0.541 q 0,6.68 0.475,9.338 0.541,2.875 2.011,4.129 1.491,1.232 3.134,1.232 1.772,0 3.242,-1.319 1.492,-1.34 1.946,-4.215 0.497,-2.831 0.475,-9.165 0,-6.16 -0.432,-8.624 -0.584,-2.875 -2.14,-4.021 -1.535,-1.167 -3.091,-1.167 -0.584,0 -1.211,0.173 -0.605,0.173 -1.491,0.67 -0.886,0.497 -1.578,1.729 -0.67,1.232 -0.994,3.091 -0.346,2.4 -0.346,8.149 z"
     id="path52"
     inkscape:connector-curvature="0"
     style="fill:#000000;fill-opacity:1;fill-rule:evenodd"
     transform="translate(-21.5879,-42.9312)" />
  <path
     clip-path="url(#clip050)"
     d="m 314.896,445.398 q 0,-1.319 0.757,-1.945 0.756,-0.627 1.729,-0.627 1.016,0 1.729,0.67 0.735,0.648 0.735,1.794 0,1.232 -0.865,1.924 -0.843,0.691 -2.053,0.518 1.059,1.773 3.005,2.573 1.967,0.799 3.782,0.799 1.902,0 3.437,-1.642 1.556,-1.643 1.556,-5.664 0,-3.415 -1.34,-5.382 -1.318,-1.967 -3.934,-1.967 h -1.945 q -0.67,0 -0.865,-0.065 -0.194,-0.065 -0.194,-0.432 0,-0.432 0.67,-0.519 0.67,0 1.729,-0.129 2.572,-0.087 3.934,-2.313 1.232,-2.075 1.232,-5.037 0,-2.702 -1.297,-3.826 -1.275,-1.145 -2.94,-1.145 -1.556,0 -3.263,0.648 -1.708,0.649 -2.638,2.097 2.746,0 2.746,2.226 0,0.973 -0.627,1.621 -0.605,0.627 -1.621,0.627 -0.973,0 -1.622,-0.605 -0.648,-0.627 -0.648,-1.686 0,-2.529 2.248,-4.28 2.27,-1.751 5.598,-1.751 3.286,0 5.707,1.73 2.442,1.729 2.442,4.388 0,2.615 -1.729,4.755 -1.729,2.14 -4.474,3.026 3.372,0.67 5.382,2.961 2.01,2.27 2.01,5.058 0,3.459 -2.723,6.01 -2.724,2.529 -6.701,2.529 -3.675,0 -6.312,-1.989 -2.637,-1.989 -2.637,-4.95 z"
     id="path54"
     inkscape:connector-curvature="0"
     style="fill:#000000;fill-opacity:1;fill-rule:evenodd"
     transform="translate(-21.5879,-42.9312)" />
  <path
     clip-path="url(#clip050)"
     d="m 336.901,437.206 q 0,-6.507 1.642,-10.051 2.292,-5.275 7.696,-5.275 1.145,0 2.334,0.325 1.21,0.302 2.724,1.491 1.534,1.189 2.464,3.134 1.772,3.761 1.772,10.376 0,6.463 -1.643,9.986 -2.399,5.145 -7.695,5.145 -1.988,0 -4.02,-1.016 -2.01,-1.016 -3.286,-3.459 -1.988,-3.653 -1.988,-10.656 m 3.674,-0.541 q 0,6.68 0.476,9.338 0.54,2.875 2.01,4.129 1.492,1.232 3.134,1.232 1.773,0 3.243,-1.319 1.491,-1.34 1.945,-4.215 0.497,-2.831 0.476,-9.165 0,-6.16 -0.433,-8.624 -0.583,-2.875 -2.14,-4.021 -1.534,-1.167 -3.091,-1.167 -0.583,0 -1.21,0.173 -0.605,0.173 -1.492,0.67 -0.886,0.497 -1.578,1.729 -0.67,1.232 -0.994,3.091 -0.346,2.4 -0.346,8.149 z"
     id="path56"
     inkscape:connector-curvature="0"
     style="fill:#000000;fill-opacity:1;fill-rule:evenodd"
     transform="translate(-21.5879,-42.9312)" />
  <path
     clip-path="url(#clip050)"
     d="m 415.85,426.095 v -1.383 q 5.317,0 8.063,-2.832 0.756,0 0.886,0.173 0.13,0.173 0.13,0.973 v 24.836 q 0,1.319 0.648,1.729 0.648,0.411 3.48,0.411 h 1.405 v 1.362 q -1.556,-0.13 -7.176,-0.13 -5.62,0 -7.155,0.13 v -1.362 h 1.405 q 2.788,0 3.458,-0.389 0.671,-0.411 0.671,-1.751 v -22.934 q -2.313,1.167 -5.815,1.167 z"
     id="path58"
     inkscape:connector-curvature="0"
     style="fill:#000000;fill-opacity:1;fill-rule:evenodd"
     transform="translate(-21.5879,-42.9312)" />
  <path
     clip-path="url(#clip050)"
     d="m 438.481,450.651 q -0.67,-0.714 -0.67,-1.643 0,-0.93 0.67,-1.6 0.67,-0.691 1.686,-0.691 0.973,0 1.622,0.648 0.67,0.627 0.67,1.664 0,1.016 -0.714,1.686 -0.691,0.649 -1.578,0.649 -1.016,0 -1.686,-0.713 z"
     id="path60"
     inkscape:connector-curvature="0"
     style="fill:#000000;fill-opacity:1;fill-rule:evenodd"
     transform="translate(-21.5879,-42.9312)" />
  <path
     clip-path="url(#clip050)"
     d="m 448.079,437.206 q 0,-6.507 1.642,-10.051 2.292,-5.275 7.696,-5.275 1.145,0 2.334,0.325 1.21,0.302 2.724,1.491 1.534,1.189 2.464,3.134 1.772,3.761 1.772,10.376 0,6.463 -1.643,9.986 -2.399,5.145 -7.695,5.145 -1.988,0 -4.02,-1.016 -2.01,-1.016 -3.286,-3.459 -1.988,-3.653 -1.988,-10.656 m 3.674,-0.541 q 0,6.68 0.476,9.338 0.54,2.875 2.01,4.129 1.492,1.232 3.134,1.232 1.773,0 3.243,-1.319 1.491,-1.34 1.945,-4.215 0.497,-2.831 0.476,-9.165 0,-6.16 -0.433,-8.624 -0.583,-2.875 -2.14,-4.021 -1.534,-1.167 -3.091,-1.167 -0.583,0 -1.21,0.173 -0.605,0.173 -1.492,0.67 -0.886,0.497 -1.578,1.729 -0.67,1.232 -0.994,3.091 -0.346,2.4 -0.346,8.149 z"
     id="path62"
     inkscape:connector-curvature="0"
     style="fill:#000000;fill-opacity:1;fill-rule:evenodd"
     transform="translate(-21.5879,-42.9312)" />
  <path
     clip-path="url(#clip050)"
     d="m 470.343,445.398 q 0,-1.319 0.756,-1.945 0.757,-0.627 1.729,-0.627 1.016,0 1.73,0.67 0.734,0.648 0.734,1.794 0,1.232 -0.864,1.924 -0.843,0.691 -2.054,0.518 1.06,1.773 3.005,2.573 1.967,0.799 3.783,0.799 1.902,0 3.437,-1.642 1.556,-1.643 1.556,-5.664 0,-3.415 -1.34,-5.382 -1.319,-1.967 -3.934,-1.967 h -1.946 q -0.67,0 -0.864,-0.065 -0.195,-0.065 -0.195,-0.432 0,-0.432 0.67,-0.519 0.67,0 1.729,-0.129 2.573,-0.087 3.934,-2.313 1.233,-2.075 1.233,-5.037 0,-2.702 -1.297,-3.826 -1.276,-1.145 -2.94,-1.145 -1.556,0 -3.264,0.648 -1.708,0.649 -2.637,2.097 2.745,0 2.745,2.226 0,0.973 -0.627,1.621 -0.605,0.627 -1.621,0.627 -0.973,0 -1.621,-0.605 -0.649,-0.627 -0.649,-1.686 0,-2.529 2.248,-4.28 2.27,-1.751 5.599,-1.751 3.285,0 5.706,1.73 2.443,1.729 2.443,4.388 0,2.615 -1.729,4.755 -1.73,2.14 -4.475,3.026 3.372,0.67 5.382,2.961 2.011,2.27 2.011,5.058 0,3.459 -2.724,6.01 -2.723,2.529 -6.701,2.529 -3.674,0 -6.311,-1.989 -2.637,-1.989 -2.637,-4.95 z"
     id="path64"
     inkscape:connector-curvature="0"
     style="fill:#000000;fill-opacity:1;fill-rule:evenodd"
     transform="translate(-21.5879,-42.9312)" />
  <path
     clip-path="url(#clip050)"
     d="m 492.823,444.231 q 0,-1.319 0.713,-1.816 0.713,-0.519 1.47,-0.519 1.016,0 1.599,0.649 0.606,0.627 0.606,1.513 0,0.886 -0.606,1.535 -0.583,0.626 -1.599,0.626 -0.497,0 -0.757,-0.086 0.584,2.032 2.356,3.502 1.794,1.469 4.15,1.469 2.962,0 4.734,-2.874 1.059,-1.859 1.059,-6.074 0,-3.718 -0.799,-5.577 -1.232,-2.832 -3.761,-2.832 -3.589,0 -5.707,3.091 -0.259,0.389 -0.562,0.411 -0.432,0 -0.54,-0.238 -0.087,-0.259 -0.087,-0.929 v -13.099 q 0,-1.059 0.433,-1.059 0.172,0 0.54,0.129 2.788,1.232 5.879,1.254 3.178,0 6.031,-1.297 0.216,-0.13 0.346,-0.13 0.432,0 0.454,0.498 0,0.172 -0.368,0.691 -0.346,0.497 -1.102,1.167 -0.757,0.649 -1.729,1.276 -0.973,0.627 -2.4,1.059 -1.405,0.411 -2.961,0.411 -1.859,0 -3.761,-0.584 v 8.625 q 2.291,-2.248 5.62,-2.248 3.545,0 5.987,2.853 2.443,2.853 2.443,6.83 0,4.172 -2.896,7.025 -2.875,2.854 -6.766,2.854 -3.545,0 -5.793,-2.529 -2.226,-2.529 -2.226,-5.577 z"
     id="path66"
     inkscape:connector-curvature="0"
     style="fill:#000000;fill-opacity:1;fill-rule:evenodd"
     transform="translate(-21.5879,-42.9312)" />
  <path
     clip-path="url(#clip050)"
     d="m 570.821,426.095 v -1.383 q 5.317,0 8.062,-2.832 0.757,0 0.887,0.173 0.129,0.173 0.129,0.973 v 24.836 q 0,1.319 0.649,1.729 0.648,0.411 3.48,0.411 h 1.405 v 1.362 q -1.556,-0.13 -7.176,-0.13 -5.62,0 -7.155,0.13 v -1.362 h 1.405 q 2.788,0 3.458,-0.389 0.67,-0.411 0.67,-1.751 v -22.934 q -2.312,1.167 -5.814,1.167 z"
     id="path68"
     inkscape:connector-curvature="0"
     style="fill:#000000;fill-opacity:1;fill-rule:evenodd"
     transform="translate(-21.5879,-42.9312)" />
  <path
     clip-path="url(#clip050)"
     d="m 593.452,450.651 q -0.67,-0.714 -0.67,-1.643 0,-0.93 0.67,-1.6 0.67,-0.691 1.686,-0.691 0.973,0 1.621,0.648 0.671,0.627 0.671,1.664 0,1.016 -0.714,1.686 -0.691,0.649 -1.578,0.649 -1.016,0 -1.686,-0.713 z"
     id="path70"
     inkscape:connector-curvature="0"
     style="fill:#000000;fill-opacity:1;fill-rule:evenodd"
     transform="translate(-21.5879,-42.9312)" />
  <path
     clip-path="url(#clip050)"
     d="m 603.05,437.206 q 0,-6.507 1.642,-10.051 2.292,-5.275 7.695,-5.275 1.146,0 2.335,0.325 1.21,0.302 2.723,1.491 1.535,1.189 2.465,3.134 1.772,3.761 1.772,10.376 0,6.463 -1.643,9.986 -2.399,5.145 -7.695,5.145 -1.988,0 -4.02,-1.016 -2.011,-1.016 -3.286,-3.459 -1.988,-3.653 -1.988,-10.656 m 3.674,-0.541 q 0,6.68 0.476,9.338 0.54,2.875 2.01,4.129 1.491,1.232 3.134,1.232 1.773,0 3.242,-1.319 1.492,-1.34 1.946,-4.215 0.497,-2.831 0.475,-9.165 0,-6.16 -0.432,-8.624 -0.584,-2.875 -2.14,-4.021 -1.535,-1.167 -3.091,-1.167 -0.583,0 -1.21,0.173 -0.606,0.173 -1.492,0.67 -0.886,0.497 -1.578,1.729 -0.67,1.232 -0.994,3.091 -0.346,2.4 -0.346,8.149 z"
     id="path72"
     inkscape:connector-curvature="0"
     style="fill:#000000;fill-opacity:1;fill-rule:evenodd"
     transform="translate(-21.5879,-42.9312)" />
  <path
     clip-path="url(#clip050)"
     d="m 624.687,444.058 v -1.362 l 13.596,-20.772 q 0.346,-0.541 0.886,-0.519 0.497,0 0.605,0.194 0.108,0.195 0.108,0.951 v 20.146 h 4.431 v 1.362 h -4.431 v 3.847 q 0,1.276 0.519,1.686 0.54,0.411 2.832,0.411 h 0.929 v 1.362 q -1.816,-0.13 -6.009,-0.13 -4.172,0 -5.987,0.13 v -1.362 h 0.929 q 2.291,0 2.832,-0.389 0.54,-0.411 0.54,-1.708 v -3.847 h -11.78 m 1.253,-1.362 h 10.786 v -16.514 z"
     id="path74"
     inkscape:connector-curvature="0"
     style="fill:#000000;fill-opacity:1;fill-rule:evenodd"
     transform="translate(-21.5879,-42.9312)" />
  <path
     clip-path="url(#clip050)"
     d="m 647.318,437.206 q 0,-6.507 1.643,-10.051 2.291,-5.275 7.695,-5.275 1.145,0 2.334,0.325 1.211,0.302 2.724,1.491 1.535,1.189 2.464,3.134 1.772,3.761 1.772,10.376 0,6.463 -1.642,9.986 -2.4,5.145 -7.695,5.145 -1.989,0 -4.021,-1.016 -2.01,-1.016 -3.285,-3.459 -1.989,-3.653 -1.989,-10.656 m 3.675,-0.541 q 0,6.68 0.475,9.338 0.541,2.875 2.01,4.129 1.492,1.232 3.135,1.232 1.772,0 3.242,-1.319 1.491,-1.34 1.945,-4.215 0.497,-2.831 0.476,-9.165 0,-6.16 -0.432,-8.624 -0.584,-2.875 -2.14,-4.021 -1.535,-1.167 -3.091,-1.167 -0.584,0 -1.211,0.173 -0.605,0.173 -1.491,0.67 -0.887,0.497 -1.578,1.729 -0.67,1.232 -0.995,3.091 -0.345,2.4 -0.345,8.149 z"
     id="path76"
     inkscape:connector-curvature="0"
     style="fill:#000000;fill-opacity:1;fill-rule:evenodd"
     transform="translate(-21.5879,-42.9312)" />
  <path
     clip-path="url(#clip050)"
     d="m 397.451,480.201 q 0,1.906 -0.963,5.595 -0.39,1.599 -0.922,3.054 -0.513,1.435 -1.271,2.828 -0.758,1.394 -1.64,2.398 -0.881,0.984 -2.029,1.599 -1.147,0.615 -2.418,0.615 -2.008,0 -3.197,-1.189 -1.168,-1.209 -1.537,-3.279 -2.746,4.468 -6.415,4.468 -2.275,0 -3.341,-1.619 -1.065,-1.64 -1.065,-4.386 0,-2.316 0.614,-4.714 1.169,-4.55 3.444,-7.726 0.307,-0.369 0.758,-0.369 0.266,0 0.389,0.082 0.369,0.225 0.369,0.594 0,0.266 -0.205,0.533 -1.434,1.988 -2.377,3.689 -0.943,1.701 -1.373,3.422 -0.328,1.476 -0.328,2.726 0,2.111 0.902,3.423 0.922,1.312 2.746,1.312 1.68,0 3.156,-1.046 1.476,-1.065 2.562,-2.848 0.061,-1.947 0.533,-3.792 0.43,-1.967 1.434,-1.967 0.8,0 0.8,1.086 0,0.369 -0.164,1.106 -0.451,1.947 -1.271,3.69 0.287,1.701 1.353,2.746 1.065,1.025 2.766,1.025 1.578,0 2.972,-1.148 1.414,-1.148 2.316,-2.828 0.922,-1.701 1.435,-3.71 0.164,-0.676 0.164,-1.537 0,-2.295 -1.599,-3.71 -0.451,-0.45 -0.451,-1.045 0,-0.697 0.574,-1.332 0.676,-0.676 1.476,-0.676 0.594,0 0.963,0.369 0.84,0.737 0.84,2.561 z"
     id="path78"
     inkscape:connector-curvature="0"
     style="fill:#000000;fill-opacity:1;fill-rule:evenodd"
     transform="translate(-21.5879,-42.9312)" />
  <polyline
     clip-path="url(#clip050)"
     style="fill:none;stroke:#000000;stroke-width:4;stroke-linecap:butt;stroke-linejoin:round;stroke-opacity:1"
     points="   152.76,402.364 152.76,47.2441    "
     id="polyline80"
     transform="translate(-21.5879,-42.9312)" />
  <polyline
     clip-path="url(#clip050)"
     style="fill:none;stroke:#000000;stroke-width:4;stroke-linecap:butt;stroke-linejoin:round;stroke-opacity:1"
     points="   618.386,402.364 618.386,47.2441    "
     id="polyline82"
     transform="translate(-21.5879,-42.9312)" />
  <polyline
     clip-path="url(#clip050)"
     style="fill:none;stroke:#000000;stroke-width:4;stroke-linecap:butt;stroke-linejoin:round;stroke-opacity:1"
     points="   152.76,402.364 171.657,402.364    "
     id="polyline84"
     transform="translate(-21.5879,-42.9312)" />
  <polyline
     clip-path="url(#clip050)"
     style="fill:none;stroke:#000000;stroke-width:4;stroke-linecap:butt;stroke-linejoin:round;stroke-opacity:1"
     points="   152.76,300.901 171.657,300.901    "
     id="polyline86"
     transform="translate(-21.5879,-42.9312)" />
  <polyline
     clip-path="url(#clip050)"
     style="fill:none;stroke:#000000;stroke-width:4;stroke-linecap:butt;stroke-linejoin:round;stroke-opacity:1"
     points="   152.76,199.438 171.657,199.438    "
     id="polyline88"
     transform="translate(-21.5879,-42.9312)" />
  <polyline
     clip-path="url(#clip050)"
     style="fill:none;stroke:#000000;stroke-width:4;stroke-linecap:butt;stroke-linejoin:round;stroke-opacity:1"
     points="   152.76,97.9755 171.657,97.9755    "
     id="polyline90"
     transform="translate(-21.5879,-42.9312)" />
  <path
     clip-path="url(#clip050)"
     d="m 92.7006,392.215 v -1.383 q 5.3174,0 8.0624,-2.832 0.757,0 0.886,0.173 0.13,0.173 0.13,0.973 v 24.836 q 0,1.319 0.649,1.729 0.648,0.411 3.48,0.411 h 1.405 v 1.362 q -1.557,-0.13 -7.177,-0.13 -5.6197,0 -7.1544,0.13 v -1.362 h 1.405 q 2.7884,0 3.4585,-0.389 0.6701,-0.411 0.6701,-1.751 v -22.934 q -2.3129,1.167 -5.8146,1.167 z"
     id="path92"
     inkscape:connector-curvature="0"
     style="fill:#000000;fill-opacity:1;fill-rule:evenodd"
     transform="translate(-21.5879,-42.9312)" />
  <path
     clip-path="url(#clip050)"
     d="m 112.133,410.178 v -1.362 l 13.596,-20.772 q 0.346,-0.541 0.886,-0.519 0.497,0 0.605,0.194 0.109,0.195 0.109,0.951 v 20.146 h 4.431 v 1.362 h -4.431 v 3.847 q 0,1.276 0.518,1.686 0.541,0.411 2.832,0.411 h 0.929 v 1.362 q -1.815,-0.13 -6.009,-0.13 -4.171,0 -5.987,0.13 v -1.362 h 0.929 q 2.292,0 2.832,-0.389 0.54,-0.411 0.54,-1.708 v -3.847 h -11.78 m 1.254,-1.362 h 10.786 v -16.514 z"
     id="path94"
     inkscape:connector-curvature="0"
     style="fill:#000000;fill-opacity:1;fill-rule:evenodd"
     transform="translate(-21.5879,-42.9312)" />
  <path
     clip-path="url(#clip050)"
     d="m 93.6733,290.753 v -1.384 q 5.3174,0 8.0627,-2.831 0.756,0 0.886,0.173 0.13,0.172 0.13,0.972 v 24.836 q 0,1.319 0.648,1.73 0.649,0.41 3.48,0.41 h 1.405 v 1.362 q -1.556,-0.13 -7.176,-0.13 -5.62,0 -7.1547,0.13 v -1.362 h 1.405 q 2.7884,0 3.4585,-0.389 0.6701,-0.41 0.6701,-1.751 v -22.934 q -2.3129,1.168 -5.8146,1.168 z"
     id="path96"
     inkscape:connector-curvature="0"
     style="fill:#000000;fill-opacity:1;fill-rule:evenodd"
     transform="translate(-21.5879,-42.9312)" />
  <path
     clip-path="url(#clip050)"
     d="m 114.078,308.888 q 0,-1.319 0.714,-1.816 0.713,-0.519 1.469,-0.519 1.016,0 1.6,0.649 0.605,0.627 0.605,1.513 0,0.886 -0.605,1.535 -0.584,0.627 -1.6,0.627 -0.497,0 -0.756,-0.087 0.584,2.032 2.356,3.502 1.794,1.47 4.15,1.47 2.961,0 4.734,-2.875 1.059,-1.859 1.059,-6.074 0,-3.718 -0.8,-5.577 -1.232,-2.832 -3.761,-2.832 -3.588,0 -5.706,3.091 -0.26,0.39 -0.562,0.411 -0.433,0 -0.541,-0.238 -0.086,-0.259 -0.086,-0.929 V 287.64 q 0,-1.059 0.432,-1.059 0.173,0 0.541,0.13 2.788,1.232 5.879,1.253 3.177,0 6.031,-1.297 0.216,-0.129 0.346,-0.129 0.432,0 0.453,0.497 0,0.173 -0.367,0.691 -0.346,0.498 -1.102,1.168 -0.757,0.648 -1.73,1.275 -0.972,0.627 -2.399,1.059 -1.405,0.411 -2.961,0.411 -1.859,0 -3.761,-0.584 v 8.625 q 2.291,-2.248 5.62,-2.248 3.545,0 5.987,2.853 2.443,2.853 2.443,6.83 0,4.172 -2.897,7.026 -2.875,2.853 -6.765,2.853 -3.545,0 -5.793,-2.529 -2.227,-2.529 -2.227,-5.577 z"
     id="path98"
     inkscape:connector-curvature="0"
     style="fill:#000000;fill-opacity:1;fill-rule:evenodd"
     transform="translate(-21.5879,-42.9312)" />
  <path
     clip-path="url(#clip050)"
     d="m 93.3275,189.29 v -1.384 q 5.3174,0 8.0625,-2.831 0.757,0 0.886,0.173 0.13,0.173 0.13,0.972 v 24.837 q 0,1.318 0.648,1.729 0.649,0.41 3.48,0.41 h 1.405 v 1.362 q -1.556,-0.129 -7.176,-0.129 -5.6198,0 -7.1545,0.129 v -1.362 h 1.405 q 2.7884,0 3.4584,-0.389 0.6701,-0.41 0.6701,-1.75 v -22.934 q -2.3128,1.167 -5.8145,1.167 z"
     id="path100"
     inkscape:connector-curvature="0"
     style="fill:#000000;fill-opacity:1;fill-rule:evenodd"
     transform="translate(-21.5879,-42.9312)" />
  <path
     clip-path="url(#clip050)"
     d="m 113.387,200.573 q 0,-6.96 3.545,-11.218 3.544,-4.28 8.105,-4.28 2.659,0 4.129,1.362 1.491,1.34 1.491,3.415 0,1.145 -0.67,1.643 -0.67,0.497 -1.362,0.497 -0.799,0 -1.426,-0.541 -0.627,-0.54 -0.627,-1.513 0,-1.988 2.443,-1.988 -1.146,-1.773 -3.891,-1.773 -0.843,0 -1.708,0.26 -0.864,0.237 -1.988,1.059 -1.124,0.821 -1.989,2.118 -0.865,1.297 -1.47,3.74 -0.605,2.442 -0.605,5.62 v 1.059 q 1.816,-4.388 5.533,-4.367 3.718,0 6.29,2.832 2.573,2.832 2.573,7.025 0,4.301 -2.681,7.155 -2.68,2.853 -6.441,2.853 -1.686,0 -3.221,-0.713 -1.513,-0.692 -2.939,-2.292 -1.405,-1.599 -2.248,-4.669 -0.843,-3.069 -0.843,-7.284 m 4.063,3.977 q 0,4.345 0.8,6.42 0.13,0.346 0.411,0.821 0.302,0.476 0.8,1.103 0.518,0.605 1.361,1.016 0.843,0.389 1.816,0.389 2.961,0 4.388,-2.875 0.756,-1.6 0.756,-5.944 0,-4.431 -0.799,-6.053 -1.362,-2.745 -4.129,-2.745 -1.859,0 -3.156,1.276 -1.275,1.275 -1.772,2.983 -0.476,1.707 -0.476,3.609 z"
     id="path102"
     inkscape:connector-curvature="0"
     style="fill:#000000;fill-opacity:1;fill-rule:evenodd"
     transform="translate(-21.5879,-42.9312)" />
  <path
     clip-path="url(#clip050)"
     d="m 92.0954,87.827 v -1.3833 q 5.3174,0 8.0626,-2.8317 0.756,0 0.886,0.173 0.13,0.1729 0.13,0.9726 v 24.8364 q 0,1.318 0.648,1.729 0.649,0.411 3.48,0.411 h 1.405 v 1.361 q -1.556,-0.129 -7.1759,-0.129 -5.62,0 -7.1547,0.129 v -1.361 h 1.405 q 2.7884,0 3.4585,-0.389 0.67,-0.411 0.67,-1.751 V 86.6598 q -2.3128,1.1672 -5.8145,1.1672 z"
     id="path104"
     inkscape:connector-curvature="0"
     style="fill:#000000;fill-opacity:1;fill-rule:evenodd"
     transform="translate(-21.5879,-42.9312)" />
  <path
     clip-path="url(#clip050)"
     d="m 112.781,92.2798 1.449,-9.1001 h 1.102 q 0.13,0.5404 0.346,0.7782 0.238,0.2377 1.491,0.4323 1.276,0.1945 3.848,0.1945 h 10.743 q 0,1.0159 -0.389,1.5563 l -5.988,8.4084 q -1.902,2.6587 -2.745,7.5656 -0.497,3.285 -0.476,7.263 v 2.248 q 0,2.442 -2.053,2.442 -2.032,0 -2.032,-2.442 0,-8.452 5.447,-16.6443 0.584,-0.843 2.724,-3.8475 2.161,-3.0045 2.248,-3.1342 h -9.165 q -4.021,0 -4.345,0.2593 -0.432,0.3891 -1.102,4.0205 z"
     id="path106"
     inkscape:connector-curvature="0"
     style="fill:#000000;fill-opacity:1;fill-rule:evenodd"
     transform="translate(-21.5879,-42.9312)" />
  <path
     clip-path="url(#clip050)"
     d="m 48.0525,278.233 q 1.906,0 5.595,0.963 1.5986,0.39 3.0537,0.923 1.4346,0.512 2.8283,1.27 1.3936,0.759 2.3978,1.64 0.9838,0.881 1.5986,2.029 0.6149,1.148 0.6149,2.418 0,2.009 -1.1887,3.197 -1.2092,1.169 -3.2792,1.537 4.4679,2.747 4.4679,6.415 0,2.275 -1.6191,3.341 -1.6396,1.066 -4.3859,1.066 -2.3159,0 -4.7137,-0.615 -4.5498,-1.168 -7.7265,-3.443 -0.3689,-0.308 -0.3689,-0.759 0,-0.266 0.082,-0.389 0.2254,-0.369 0.5943,-0.369 0.2664,0 0.5329,0.205 1.9879,1.435 3.689,2.377 1.7011,0.943 3.4226,1.374 1.4756,0.327 2.7258,0.327 2.1109,0 3.4226,-0.901 1.3117,-0.923 1.3117,-2.747 0,-1.68 -1.0453,-3.156 -1.0657,-1.475 -2.8487,-2.562 -1.947,-0.061 -3.7915,-0.532 -1.9675,-0.431 -1.9675,-1.435 0,-0.799 1.0862,-0.799 0.3689,0 1.1067,0.164 1.947,0.45 3.689,1.27 1.7011,-0.287 2.7463,-1.352 1.0248,-1.066 1.0248,-2.767 0,-1.578 -1.1477,-2.972 -1.1477,-1.414 -2.8283,-2.316 -1.7011,-0.922 -3.7095,-1.434 -0.6764,-0.164 -1.5371,-0.164 -2.2954,0 -3.7096,1.598 -0.4508,0.451 -1.0452,0.451 -0.6968,0 -1.3321,-0.574 -0.6764,-0.676 -0.6764,-1.475 0,-0.595 0.3689,-0.964 0.7378,-0.84 2.5619,-0.84 z"
     id="path108"
     inkscape:connector-curvature="0"
     style="fill:#000000;fill-opacity:1;fill-rule:evenodd"
     transform="translate(-21.5879,-42.9312)" />
  <path
     clip-path="url(#clip050)"
     d="m 76.2502,273.997 h -0.9038 q 0,-1.564 -0.1865,-1.922 -0.2008,-0.359 -1.1477,-0.359 H 58.7335 q -1.0903,0 -1.3629,0.387 -0.2726,0.373 -0.2726,1.894 h -0.9182 l -0.3156,-4.218 h 18.148 q 0.9469,0 1.1477,-0.373 0.1865,-0.373 0.1865,-1.922 h 0.9038 q 0,0.358 -0.0286,1.104 -0.0287,0.746 -0.0431,1.292 -0.0143,0.545 -0.0143,0.86 0,0.345 0.086,3.257 z"
     id="path110"
     inkscape:connector-curvature="0"
     style="fill:#000000;fill-opacity:1;fill-rule:evenodd"
     transform="translate(-21.5879,-42.9312)" />
  <path
     clip-path="url(#clip050)"
     d="m 74.6435,263.723 q -1.9511,1.865 -4.7343,1.865 -2.7975,0 -4.806,-1.837 -2.0228,-1.836 -2.0228,-4.533 0,-1.793 0.8608,-3.142 0.8464,-1.348 2.2954,-1.348 0.6455,0 1.0185,0.387 0.3587,0.373 0.3587,0.961 0,0.617 -0.373,0.99 -0.3873,0.359 -0.9755,0.359 -0.2583,0 -0.5165,-0.086 -0.2582,-0.087 -0.5308,-0.402 -0.2726,-0.33 -0.3156,-0.89 -1.076,1.048 -1.076,3.085 0,0.029 0,0.057 0,1.492 1.4059,2.726 1.406,1.234 4.6195,1.234 1.6785,0 2.9123,-0.402 1.2194,-0.416 1.8507,-1.09 0.6312,-0.675 0.9325,-1.334 0.2869,-0.66 0.2869,-1.306 0,-2.884 -3.0844,-3.859 -0.287,-0.086 -0.287,-0.373 0,-0.387 0.287,-0.387 0.1434,0 0.5164,0.114 0.373,0.115 0.9612,0.474 0.5882,0.358 1.1047,0.875 0.5021,0.502 0.8751,1.406 0.373,0.889 0.373,2.008 0,2.583 -1.9367,4.448 z"
     id="path112"
     inkscape:connector-curvature="0"
     style="fill:#000000;fill-opacity:1;fill-rule:evenodd"
     transform="translate(-21.5879,-42.9312)" />
  <path
     clip-path="url(#clip050)"
     d="m 63.0341,220.816 q 0.2459,0.205 0.2459,0.574 0,0.348 -0.2459,0.594 l -8.6898,8.69 8.6898,8.69 q 0.2459,0.246 0.2459,0.615 0,0.348 -0.2459,0.574 -0.2255,0.245 -0.5739,0.245 -0.3484,0 -0.5943,-0.245 l -8.6898,-8.69 -8.6897,8.69 q -0.2459,0.245 -0.5943,0.245 -0.3689,0 -0.5739,-0.245 -0.2459,-0.226 -0.2459,-0.574 0,-0.369 0.2459,-0.615 l 8.6897,-8.69 -8.6897,-8.69 q -0.2459,-0.246 -0.2459,-0.594 0,-0.369 0.2459,-0.574 0.205,-0.246 0.5739,-0.246 0.3484,0 0.5943,0.246 l 8.6897,8.69 8.6898,-8.69 q 0.2459,-0.246 0.6148,-0.246 0.3484,0 0.5534,0.246 z"
     id="path114"
     inkscape:connector-curvature="0"
     style="fill:#000000;fill-opacity:1;fill-rule:evenodd"
     transform="translate(-21.5879,-42.9312)" />
  <path
     clip-path="url(#clip050)"
     d="m 39.7112,208.363 h -1.3117 q 0,-5.042 -2.6848,-7.644 0,-0.718 0.164,-0.841 0.1639,-0.123 0.9222,-0.123 h 23.5484 q 1.2501,0 1.6395,-0.615 0.3894,-0.614 0.3894,-3.299 v -1.332 h 1.2912 q -0.123,1.475 -0.123,6.804 0,5.329 0.123,6.784 h -1.2912 v -1.333 q 0,-2.643 -0.3689,-3.279 -0.3894,-0.635 -1.66,-0.635 H 38.6044 q 1.1068,2.193 1.1068,5.513 z"
     id="path116"
     inkscape:connector-curvature="0"
     style="fill:#000000;fill-opacity:1;fill-rule:evenodd"
     transform="translate(-21.5879,-42.9312)" />
  <path
     clip-path="url(#clip050)"
     d="m 50.2454,187.577 q -6.1689,0 -9.53,-1.557 -5.0007,-2.173 -5.0007,-7.296 0,-1.087 0.3074,-2.214 0.2869,-1.148 1.4141,-2.582 1.1273,-1.455 2.9718,-2.337 3.566,-1.68 9.8374,-1.68 6.1279,0 9.4685,1.557 4.8777,2.275 4.8777,7.297 0,1.885 -0.9632,3.812 -0.9633,1.906 -3.2791,3.115 -3.4636,1.885 -10.1039,1.885 m -0.5124,-3.484 q 6.3329,0 8.8537,-0.451 2.7258,-0.512 3.9145,-1.906 1.1682,-1.414 1.1682,-2.971 0,-1.681 -1.2502,-3.075 -1.2707,-1.414 -3.9964,-1.844 -2.6848,-0.472 -8.6898,-0.451 -5.8409,0 -8.1773,0.41 -2.7258,0.553 -3.812,2.029 -1.1067,1.455 -1.1067,2.931 0,0.553 0.1639,1.147 0.164,0.574 0.6353,1.414 0.4714,0.841 1.6396,1.496 1.1682,0.636 2.9308,0.943 2.2749,0.328 7.7264,0.328 z"
     id="path118"
     inkscape:connector-curvature="0"
     style="fill:#000000;fill-opacity:1;fill-rule:evenodd"
     transform="translate(-21.5879,-42.9312)" />
  <path
     clip-path="url(#clip050)"
     d="m 37.1966,165.606 q -0.8751,0 -1.2911,-0.502 -0.4161,-0.502 -0.4161,-1.147 0,-0.675 0.4447,-1.148 0.4304,-0.488 1.1908,-0.488 0.8177,0 1.2768,0.574 0.4591,0.559 0.3443,1.363 1.1764,-0.703 1.7072,-1.994 0.5308,-1.306 0.5308,-2.511 0,-1.262 -1.0903,-2.281 -1.0903,-1.033 -3.7587,-1.033 -2.2667,0 -3.5722,0.89 -1.3055,0.875 -1.3055,2.611 v 1.291 q 0,0.444 -0.0431,0.574 -0.043,0.129 -0.2869,0.129 -0.2869,0 -0.3443,-0.445 0,-0.445 -0.0861,-1.148 -0.0574,-1.707 -1.535,-2.611 -1.3773,-0.817 -3.3427,-0.817 -1.7933,0 -2.5393,0.86 -0.7603,0.847 -0.7603,1.951 0,1.033 0.4303,2.167 0.4304,1.133 1.3916,1.75 0,-1.822 1.4777,-1.822 0.6456,0 1.076,0.416 0.416,0.402 0.416,1.076 0,0.646 -0.4017,1.076 -0.416,0.43 -1.119,0.43 -1.6785,0 -2.8406,-1.492 -1.162,-1.506 -1.162,-3.715 0,-2.181 1.1477,-3.788 1.1477,-1.621 2.9123,-1.621 1.7359,0 3.1562,1.148 1.4202,1.147 2.0084,2.969 0.4448,-2.238 1.9655,-3.572 1.5063,-1.334 3.357,-1.334 2.2954,0 3.9883,1.808 1.6785,1.807 1.6785,4.447 0,2.439 -1.3199,4.189 -1.3198,1.75 -3.2853,1.75 z"
     id="path120"
     inkscape:connector-curvature="0"
     style="fill:#000000;fill-opacity:1;fill-rule:evenodd"
     transform="translate(-21.5879,-42.9312)" />
  <polyline
     clip-path="url(#clip053)"
     style="fill:none;stroke:#000000;stroke-width:5.5999999;stroke-linecap:butt;stroke-linejoin:round;stroke-opacity:1"
     points="   153.54,83.9263 156.659,86.0648 159.779,88.2427 162.899,90.4597 166.019,92.7156 169.139,95.01 172.258,97.3428 175.378,99.7137 178.498,102.122 181.618,104.568    184.737,107.051 187.857,109.572 190.977,112.128 194.097,114.721 197.216,117.349 200.336,120.013 203.456,122.713 206.576,125.447 209.696,128.215 212.815,131.018    215.935,133.854 219.055,136.724 222.175,139.626 225.294,142.561 228.414,145.528 231.534,148.527 234.654,151.557 237.774,154.618 240.893,157.709 244.013,160.83    247.133,163.98 250.253,167.158 253.372,170.365 256.492,173.599 259.612,176.86 262.732,180.146 265.851,183.458 268.971,186.794 272.091,190.153 275.211,193.535    278.331,196.937 281.45,200.36 284.57,203.8 287.69,207.258 290.81,210.732 293.929,214.22 297.049,217.719 300.169,221.229 303.289,224.748 306.408,228.272    309.528,231.8 312.648,235.33 315.768,238.859 318.888,242.384 322.007,245.902 325.127,249.412 328.247,252.909 331.367,256.391 334.486,259.856 337.606,263.299    340.726,266.718 343.846,270.11 346.966,273.472 350.085,276.8 353.205,280.093 356.325,283.346 359.445,286.558 362.564,289.725 365.684,292.845 368.804,295.916    371.924,298.935 375.043,301.899 378.163,304.808 381.283,307.658 384.403,310.448 387.523,313.176 390.642,315.841 393.762,318.44 396.882,320.974 400.002,323.44    403.121,325.838 406.241,328.165 409.361,330.422 412.481,332.608 415.601,334.722 418.72,336.763 421.84,338.73 424.96,340.624 428.08,342.443 431.199,344.188    434.319,345.858 437.439,347.453 440.559,348.974 443.678,350.419 446.798,351.79 449.918,353.087 453.038,354.309 456.158,355.458 459.277,356.535 462.397,357.539    465.517,358.473 468.637,359.336 471.756,360.132 474.876,360.86 477.996,361.523 481.116,362.123 484.235,362.661 487.355,363.141 490.475,363.564 493.595,363.933    496.715,364.252 499.834,364.523 502.954,364.749 506.074,364.935 509.194,365.083 512.313,365.197 515.433,365.281 518.553,365.338 521.673,365.373 524.793,365.389    527.912,365.389 531.032,365.377 534.152,365.356 537.272,365.33 540.391,365.3 543.511,365.271 546.631,365.243 549.751,365.22 552.87,365.204 555.99,365.195    559.11,365.195 562.23,365.206 565.35,365.228 568.469,365.262 571.589,365.308 574.709,365.368 577.829,365.44 580.948,365.526 584.068,365.625 587.188,365.737    590.308,365.862 593.428,365.999 596.547,366.149 599.667,366.312 602.787,366.486 605.907,366.671 609.026,366.867 612.146,367.074 615.266,367.292 618.386,367.519       "
     id="polyline122"
     transform="translate(-21.5879,-42.9312)" />
  <circle
     clip-path="url(#clip053)"
     cx="183.80099"
     cy="97.139503"
     r="10"
     id="circle124"
     style="fill:#000000;fill-opacity:0.7;fill-rule:evenodd;stroke:none"
     transform="translate(-21.5879,-42.9312)" />
  <circle
     clip-path="url(#clip053)"
     cx="227.25999"
     cy="127.623"
     r="10"
     id="circle126"
     style="fill:#000000;fill-opacity:0.7;fill-rule:evenodd;stroke:none"
     transform="translate(-21.5879,-42.9312)" />
  <circle
     clip-path="url(#clip053)"
     cx="270.71799"
     cy="161.295"
     r="10"
     id="circle128"
     style="fill:#000000;fill-opacity:0.7;fill-rule:evenodd;stroke:none"
     transform="translate(-21.5879,-42.9312)" />
  <circle
     clip-path="url(#clip053)"
     cx="314.177"
     cy="198.153"
     r="10"
     id="circle130"
     style="fill:#000000;fill-opacity:0.7;fill-rule:evenodd;stroke:none"
     transform="translate(-21.5879,-42.9312)" />
  <circle
     clip-path="url(#clip053)"
     cx="357.63501"
     cy="235.01199"
     r="10"
     id="circle132"
     style="fill:#000000;fill-opacity:0.7;fill-rule:evenodd;stroke:none"
     transform="translate(-21.5879,-42.9312)" />
  <circle
     clip-path="url(#clip053)"
     cx="401.09399"
     cy="265.496"
     r="10"
     id="circle134"
     style="fill:#000000;fill-opacity:0.7;fill-rule:evenodd;stroke:none"
     transform="translate(-21.5879,-42.9312)" />
  <circle
     clip-path="url(#clip053)"
     cx="444.552"
     cy="276.85501"
     r="10"
     id="circle136"
     style="fill:#000000;fill-opacity:0.7;fill-rule:evenodd;stroke:none"
     transform="translate(-21.5879,-42.9312)" />
  <circle
     clip-path="url(#clip053)"
     cx="488.01001"
     cy="281.83801"
     r="10"
     id="circle138"
     style="fill:#000000;fill-opacity:0.7;fill-rule:evenodd;stroke:none"
     transform="translate(-21.5879,-42.9312)" />
  <circle
     clip-path="url(#clip053)"
     cx="531.46899"
     cy="290.009"
     r="10"
     id="circle140"
     style="fill:#000000;fill-opacity:0.7;fill-rule:evenodd;stroke:none"
     transform="translate(-21.5879,-42.9312)" />
  <circle
     clip-path="url(#clip053)"
     cx="574.927"
     cy="307.74301"
     r="10"
     id="circle142"
     style="fill:#000000;fill-opacity:0.7;fill-rule:evenodd;stroke:none"
     transform="translate(-21.5879,-42.9312)" />
  <path
     clip-path="url(#clip050)"
     d="m 887.13,402.364 h 465.63 V 47.2441 H 887.13 Z"
     id="path144"
     inkscape:connector-curvature="0"
     style="fill:#ffffff;fill-opacity:1;fill-rule:evenodd"
     transform="translate(-21.5879,-42.9312)" />
  <polyline
     clip-path="url(#clip050)"
     style="fill:none;stroke:#000000;stroke-width:4;stroke-linecap:butt;stroke-linejoin:round;stroke-opacity:1"
     points="   887.13,402.364 1352.76,402.364    "
     id="polyline146"
     transform="translate(-21.5879,-42.9312)" />
  <polyline
     clip-path="url(#clip050)"
     style="fill:none;stroke:#000000;stroke-width:4;stroke-linecap:butt;stroke-linejoin:round;stroke-opacity:1"
     points="   887.13,47.2441 1352.76,47.2441    "
     id="polyline148"
     transform="translate(-21.5879,-42.9312)" />
  <polyline
     clip-path="url(#clip050)"
     style="fill:none;stroke:#000000;stroke-width:4;stroke-linecap:butt;stroke-linejoin:round;stroke-opacity:1"
     points="   900.308,402.364 900.308,383.466    "
     id="polyline150"
     transform="translate(-21.5879,-42.9312)" />
  <polyline
     clip-path="url(#clip050)"
     style="fill:none;stroke:#000000;stroke-width:4;stroke-linecap:butt;stroke-linejoin:round;stroke-opacity:1"
     points="   1010.13,402.364 1010.13,383.466    "
     id="polyline152"
     transform="translate(-21.5879,-42.9312)" />
  <polyline
     clip-path="url(#clip050)"
     style="fill:none;stroke:#000000;stroke-width:4;stroke-linecap:butt;stroke-linejoin:round;stroke-opacity:1"
     points="   1119.94,402.364 1119.94,383.466    "
     id="polyline154"
     transform="translate(-21.5879,-42.9312)" />
  <polyline
     clip-path="url(#clip050)"
     style="fill:none;stroke:#000000;stroke-width:4;stroke-linecap:butt;stroke-linejoin:round;stroke-opacity:1"
     points="   1229.76,402.364 1229.76,383.466    "
     id="polyline156"
     transform="translate(-21.5879,-42.9312)" />
  <polyline
     clip-path="url(#clip050)"
     style="fill:none;stroke:#000000;stroke-width:4;stroke-linecap:butt;stroke-linejoin:round;stroke-opacity:1"
     points="   1339.58,402.364 1339.58,383.466    "
     id="polyline158"
     transform="translate(-21.5879,-42.9312)" />
  <path
     clip-path="url(#clip050)"
     d="m 890.992,437.206 q 0,-6.507 1.643,-10.051 2.291,-5.275 7.695,-5.275 1.145,0 2.334,0.325 1.211,0.302 2.724,1.491 1.534,1.189 2.464,3.134 1.772,3.761 1.772,10.376 0,6.463 -1.642,9.986 -2.4,5.145 -7.696,5.145 -1.988,0 -4.02,-1.016 -2.01,-1.016 -3.286,-3.459 -1.988,-3.653 -1.988,-10.656 m 3.674,-0.541 q 0,6.68 0.476,9.338 0.54,2.875 2.01,4.129 1.492,1.232 3.134,1.232 1.773,0 3.243,-1.319 1.491,-1.34 1.945,-4.215 0.497,-2.831 0.476,-9.165 0,-6.16 -0.433,-8.624 -0.583,-2.875 -2.14,-4.021 -1.534,-1.167 -3.091,-1.167 -0.583,0 -1.21,0.173 -0.605,0.173 -1.492,0.67 -0.886,0.497 -1.577,1.729 -0.671,1.232 -0.995,3.091 -0.346,2.4 -0.346,8.149 z"
     id="path160"
     inkscape:connector-curvature="0"
     style="fill:#000000;fill-opacity:1;fill-rule:evenodd"
     transform="translate(-21.5879,-42.9312)" />
  <path
     clip-path="url(#clip050)"
     d="m 1002.82,426.095 v -1.383 q 5.32,0 8.06,-2.832 0.76,0 0.89,0.173 0.13,0.173 0.13,0.973 v 24.836 q 0,1.319 0.65,1.729 0.64,0.411 3.48,0.411 h 1.4 v 1.362 q -1.55,-0.13 -7.17,-0.13 -5.62,0 -7.16,0.13 v -1.362 h 1.41 q 2.78,0 3.45,-0.389 0.67,-0.411 0.67,-1.751 v -22.934 q -2.31,1.167 -5.81,1.167 z"
     id="path162"
     inkscape:connector-curvature="0"
     style="fill:#000000;fill-opacity:1;fill-rule:evenodd"
     transform="translate(-21.5879,-42.9312)" />
  <path
     clip-path="url(#clip050)"
     d="m 1111.1,451.364 q 0,-0.8 0.07,-1.038 0.08,-0.237 0.43,-0.605 l 8.49,-9.467 q 4.65,-5.231 4.65,-9.792 0,-2.962 -1.55,-5.08 -1.54,-2.118 -4.37,-2.118 -1.95,0 -3.59,1.189 -1.64,1.188 -2.4,3.307 0.13,-0.043 0.59,-0.043 1.1,0 1.7,0.691 0.63,0.692 0.63,1.621 0,1.189 -0.78,1.773 -0.76,0.562 -1.51,0.562 -0.3,0 -0.72,-0.065 -0.38,-0.065 -1.01,-0.67 -0.63,-0.627 -0.63,-1.729 0,-3.091 2.34,-5.555 2.35,-2.465 5.94,-2.465 4.06,0 6.72,2.421 2.68,2.4 2.68,6.161 0,1.318 -0.41,2.529 -0.39,1.189 -0.93,2.118 -0.52,0.929 -1.94,2.421 -1.43,1.491 -2.57,2.551 -1.15,1.059 -3.72,3.307 l -4.69,4.561 h 7.97 q 3.89,0 4.2,-0.346 0.43,-0.627 0.97,-3.934 h 1.12 l -1.25,7.695 z"
     id="path164"
     inkscape:connector-curvature="0"
     style="fill:#000000;fill-opacity:1;fill-rule:evenodd"
     transform="translate(-21.5879,-42.9312)" />
  <path
     clip-path="url(#clip050)"
     d="m 1220.57,445.398 q 0,-1.319 0.76,-1.945 0.76,-0.627 1.73,-0.627 1.02,0 1.73,0.67 0.73,0.648 0.73,1.794 0,1.232 -0.86,1.924 -0.84,0.691 -2.05,0.518 1.05,1.773 3,2.573 1.97,0.799 3.78,0.799 1.91,0 3.44,-1.642 1.56,-1.643 1.56,-5.664 0,-3.415 -1.34,-5.382 -1.32,-1.967 -3.94,-1.967 h -1.94 q -0.67,0 -0.87,-0.065 -0.19,-0.065 -0.19,-0.432 0,-0.432 0.67,-0.519 0.67,0 1.73,-0.129 2.57,-0.087 3.93,-2.313 1.23,-2.075 1.23,-5.037 0,-2.702 -1.29,-3.826 -1.28,-1.145 -2.94,-1.145 -1.56,0 -3.27,0.648 -1.71,0.649 -2.63,2.097 2.74,0 2.74,2.226 0,0.973 -0.63,1.621 -0.6,0.627 -1.62,0.627 -0.97,0 -1.62,-0.605 -0.65,-0.627 -0.65,-1.686 0,-2.529 2.25,-4.28 2.27,-1.751 5.6,-1.751 3.28,0 5.71,1.73 2.44,1.729 2.44,4.388 0,2.615 -1.73,4.755 -1.73,2.14 -4.48,3.026 3.38,0.67 5.39,2.961 2.01,2.27 2.01,5.058 0,3.459 -2.73,6.01 -2.72,2.529 -6.7,2.529 -3.67,0 -6.31,-1.989 -2.64,-1.989 -2.64,-4.95 z"
     id="path166"
     inkscape:connector-curvature="0"
     style="fill:#000000;fill-opacity:1;fill-rule:evenodd"
     transform="translate(-21.5879,-42.9312)" />
  <path
     clip-path="url(#clip050)"
     d="m 1329.76,444.058 v -1.362 l 13.6,-20.772 q 0.35,-0.541 0.89,-0.519 0.49,0 0.6,0.194 0.11,0.195 0.11,0.951 v 20.146 h 4.43 v 1.362 h -4.43 v 3.847 q 0,1.276 0.52,1.686 0.54,0.411 2.83,0.411 h 0.93 v 1.362 q -1.82,-0.13 -6.01,-0.13 -4.17,0 -5.99,0.13 v -1.362 h 0.93 q 2.29,0 2.83,-0.389 0.54,-0.411 0.54,-1.708 v -3.847 h -11.78 m 1.26,-1.362 h 10.78 v -16.514 z"
     id="path168"
     inkscape:connector-curvature="0"
     style="fill:#000000;fill-opacity:1;fill-rule:evenodd"
     transform="translate(-21.5879,-42.9312)" />
  <path
     clip-path="url(#clip050)"
     d="m 1099.55,481.646 q 0,1.23 -0.47,3.382 -0.45,2.152 -0.82,3.176 -1.02,2.726 -3.07,5.022 -1.13,1.27 -2.36,2.193 -1.21,0.901 -2.11,1.352 -0.9,0.431 -1.97,0.656 -1.06,0.246 -1.55,0.266 -0.5,0.041 -1.19,0.041 l -1.6,6.251 q -0.33,1.619 -0.49,1.722 -0.04,0.082 -0.15,0.123 -0.08,0.041 -0.16,0.041 h -0.08 q -0.23,0 -0.35,-0.103 -0.12,-0.102 -0.15,-0.225 v -0.103 q 0,-0.287 0.97,-3.976 0.49,-1.885 0.92,-3.832 -3.28,-0.205 -5.31,-1.66 -2.01,-1.455 -2.01,-4.284 0,-1.742 2.03,-7.091 0.97,-2.561 0.97,-3.627 0,-0.472 -0.11,-0.759 -0.1,-0.307 -0.3,-0.409 -0.21,-0.123 -0.33,-0.144 -0.1,-0.02 -0.31,-0.02 -1.21,0 -2.34,1.209 -1.12,1.209 -1.9,3.996 -0.17,0.513 -0.27,0.636 -0.1,0.123 -0.41,0.123 -0.51,-0.021 -0.51,-0.431 0,-0.164 0.18,-0.799 0.19,-0.656 0.62,-1.619 0.45,-0.984 1.06,-1.865 0.62,-0.902 1.58,-1.537 0.99,-0.636 2.11,-0.636 1.54,0 2.48,1.005 0.97,0.983 0.97,2.438 0,0.287 -0.06,0.615 -0.07,0.328 -0.13,0.513 -0.04,0.184 -0.16,0.533 -0.1,0.327 -0.12,0.389 -1.05,2.705 -1.58,4.468 -0.54,1.742 -0.62,2.254 -0.06,0.492 -0.06,1.086 0,4.14 4.78,4.694 l 6.96,-27.73 q 0.13,-0.573 0.23,-0.696 0.1,-0.144 0.41,-0.144 0.49,0 0.49,0.451 0,0.143 -0.12,0.635 l -6.93,27.566 q 0.66,0 1.07,-0.021 0.41,-0.02 1.27,-0.205 0.88,-0.205 1.62,-0.574 0.76,-0.369 1.82,-1.106 1.07,-0.759 2.11,-1.824 1.31,-1.333 2.48,-3.566 1.17,-2.234 1.17,-4.079 0,-2.07 -1.5,-3.566 -0.22,-0.205 -0.34,-0.328 -0.11,-0.123 -0.21,-0.328 -0.08,-0.205 -0.08,-0.471 0,-0.697 0.65,-1.353 0.66,-0.656 1.44,-0.656 0.7,0 1.27,0.677 0.57,0.676 0.57,2.254 z"
     id="path170"
     inkscape:connector-curvature="0"
     style="fill:#000000;fill-opacity:1;fill-rule:evenodd"
     transform="translate(-21.5879,-42.9312)" />
  <path
     clip-path="url(#clip050)"
     d="m 1101.18,507.162 q 0,-0.205 0.16,-0.656 l 14.82,-39.596 q 0,-0.041 0.1,-0.266 0.1,-0.225 0.17,-0.369 0.06,-0.164 0.18,-0.287 0.14,-0.123 0.31,-0.123 0.41,0 0.41,0.513 0,0.041 -0.13,0.532 l -14.85,39.637 q -0.25,0.717 -0.41,0.922 -0.15,0.205 -0.39,0.205 -0.37,0 -0.37,-0.512 z"
     id="path172"
     inkscape:connector-curvature="0"
     style="fill:#000000;fill-opacity:1;fill-rule:evenodd"
     transform="translate(-21.5879,-42.9312)" />
  <path
     clip-path="url(#clip050)"
     d="m 1121.96,497.263 q 0,-0.758 0.07,-0.984 0.08,-0.225 0.41,-0.574 l 8.05,-8.976 q 4.41,-4.96 4.41,-9.284 0,-2.808 -1.48,-4.817 -1.45,-2.008 -4.14,-2.008 -1.84,0 -3.4,1.127 -1.56,1.127 -2.28,3.136 0.13,-0.041 0.56,-0.041 1.04,0 1.62,0.656 0.59,0.656 0.59,1.537 0,1.127 -0.74,1.68 -0.72,0.533 -1.43,0.533 -0.29,0 -0.68,-0.061 -0.37,-0.062 -0.96,-0.636 -0.6,-0.594 -0.6,-1.639 0,-2.931 2.22,-5.267 2.23,-2.337 5.63,-2.337 3.86,0 6.38,2.296 2.54,2.275 2.54,5.841 0,1.25 -0.39,2.398 -0.37,1.127 -0.88,2.008 -0.49,0.881 -1.85,2.295 -1.35,1.415 -2.44,2.419 -1.08,1.004 -3.52,3.136 l -4.45,4.324 h 7.56 q 3.69,0 3.98,-0.328 0.41,-0.594 0.92,-3.73 h 1.07 l -1.19,7.296 z"
     id="path174"
     inkscape:connector-curvature="0"
     style="fill:#000000;fill-opacity:1;fill-rule:evenodd"
     transform="translate(-21.5879,-42.9312)" />
  <path
     clip-path="url(#clip050)"
     d="m 1164.74,480.17 q 0,1.435 -2.04,1.435 h -4.8 q -0.74,3.402 -0.74,6.681 0,3.915 1.21,6.928 0.25,0.594 0.25,0.922 0,0.615 -0.56,1.107 -0.53,0.491 -1.16,0.491 -0.54,0 -0.89,-0.409 -0.32,-0.41 -0.61,-1.702 -0.35,-1.516 -0.35,-3.197 0,-2.008 0.33,-3.935 0.33,-1.947 1.43,-6.886 h -4.73 l -2.36,9.284 q -0.84,3.136 -1.13,4.099 -0.18,0.574 -0.24,0.758 -0.06,0.185 -0.25,0.636 -0.16,0.43 -0.28,0.594 -0.13,0.144 -0.33,0.369 -0.21,0.246 -0.45,0.307 -0.25,0.082 -0.56,0.082 -0.47,0 -0.84,-0.307 -0.37,-0.287 -0.37,-0.84 0,-0.369 0.33,-1.005 3.9,-8.402 5.37,-13.977 h -2.38 q -3.27,0 -5.32,3.238 -0.33,0.431 -0.52,0.472 -0.08,0.02 -0.16,0.02 -0.23,0 -0.37,-0.102 -0.12,-0.103 -0.12,-0.205 l -0.02,-0.103 q 0,-0.123 0.3,-0.676 0.33,-0.574 0.95,-1.455 0.63,-0.881 1.31,-1.64 0.66,-0.697 1.29,-1.127 0.66,-0.451 1.27,-0.615 0.62,-0.164 0.96,-0.205 0.35,-0.041 0.84,-0.041 h 14.06 q 0.54,0 0.82,0.041 0.29,0.021 0.58,0.267 0.28,0.225 0.28,0.696 z"
     id="path176"
     inkscape:connector-curvature="0"
     style="fill:#000000;fill-opacity:1;fill-rule:evenodd"
     transform="translate(-21.5879,-42.9312)" />
  <polyline
     clip-path="url(#clip050)"
     style="fill:none;stroke:#000000;stroke-width:4;stroke-linecap:butt;stroke-linejoin:round;stroke-opacity:1"
     points="   887.13,402.364 887.13,47.2441    "
     id="polyline178"
     transform="translate(-21.5879,-42.9312)" />
  <polyline
     clip-path="url(#clip050)"
     style="fill:none;stroke:#000000;stroke-width:4;stroke-linecap:butt;stroke-linejoin:round;stroke-opacity:1"
     points="   1352.76,402.364 1352.76,47.2441    "
     id="polyline180"
     transform="translate(-21.5879,-42.9312)" />
  <polyline
     clip-path="url(#clip050)"
     style="fill:none;stroke:#000000;stroke-width:4;stroke-linecap:butt;stroke-linejoin:round;stroke-opacity:1"
     points="   887.13,373.315 906.028,373.315    "
     id="polyline182"
     transform="translate(-21.5879,-42.9312)" />
  <polyline
     clip-path="url(#clip050)"
     style="fill:none;stroke:#000000;stroke-width:4;stroke-linecap:butt;stroke-linejoin:round;stroke-opacity:1"
     points="   887.13,294.31 906.028,294.31    "
     id="polyline184"
     transform="translate(-21.5879,-42.9312)" />
  <polyline
     clip-path="url(#clip050)"
     style="fill:none;stroke:#000000;stroke-width:4;stroke-linecap:butt;stroke-linejoin:round;stroke-opacity:1"
     points="   887.13,215.305 906.028,215.305    "
     id="polyline186"
     transform="translate(-21.5879,-42.9312)" />
  <polyline
     clip-path="url(#clip050)"
     style="fill:none;stroke:#000000;stroke-width:4;stroke-linecap:butt;stroke-linejoin:round;stroke-opacity:1"
     points="   887.13,136.3 906.028,136.3    "
     id="polyline188"
     transform="translate(-21.5879,-42.9312)" />
  <polyline
     clip-path="url(#clip050)"
     style="fill:none;stroke:#000000;stroke-width:4;stroke-linecap:butt;stroke-linejoin:round;stroke-opacity:1"
     points="   887.13,57.2947 906.028,57.2947    "
     id="polyline190"
     transform="translate(-21.5879,-42.9312)" />
  <path
     clip-path="url(#clip050)"
     d="m 786.477,376.741 q 0.259,0.259 0.259,0.627 0,0.367 -0.259,0.627 -0.259,0.259 -0.627,0.259 h -27.711 q -0.367,0 -0.627,-0.259 -0.259,-0.26 -0.259,-0.627 0,-0.368 0.259,-0.627 0.26,-0.259 0.627,-0.259 h 27.711 q 0.368,0 0.627,0.259 z"
     id="path192"
     inkscape:connector-curvature="0"
     style="fill:#000000;fill-opacity:1;fill-rule:evenodd"
     transform="translate(-21.5879,-42.9312)" />
  <path
     clip-path="url(#clip050)"
     d="m 793.135,363.166 v -1.383 q 5.317,0 8.062,-2.832 0.757,0 0.886,0.173 0.13,0.173 0.13,0.973 v 24.836 q 0,1.319 0.649,1.729 0.648,0.411 3.48,0.411 h 1.405 v 1.362 q -1.557,-0.13 -7.177,-0.13 -5.62,0 -7.154,0.13 v -1.362 h 1.405 q 2.788,0 3.458,-0.389 0.67,-0.411 0.67,-1.751 v -22.934 q -2.313,1.167 -5.814,1.167 z"
     id="path194"
     inkscape:connector-curvature="0"
     style="fill:#000000;fill-opacity:1;fill-rule:evenodd"
     transform="translate(-21.5879,-42.9312)" />
  <path
     clip-path="url(#clip050)"
     d="m 815.766,387.722 q -0.67,-0.714 -0.67,-1.643 0,-0.93 0.67,-1.6 0.67,-0.691 1.686,-0.691 0.973,0 1.621,0.648 0.67,0.627 0.67,1.664 0,1.016 -0.713,1.686 -0.692,0.649 -1.578,0.649 -1.016,0 -1.686,-0.713 z"
     id="path196"
     inkscape:connector-curvature="0"
     style="fill:#000000;fill-opacity:1;fill-rule:evenodd"
     transform="translate(-21.5879,-42.9312)" />
  <path
     clip-path="url(#clip050)"
     d="m 825.363,374.277 q 0,-6.506 1.643,-10.051 2.291,-5.275 7.695,-5.275 1.146,0 2.335,0.325 1.21,0.302 2.723,1.491 1.535,1.189 2.464,3.134 1.773,3.762 1.773,10.376 0,6.463 -1.643,9.986 -2.399,5.145 -7.695,5.145 -1.989,0 -4.021,-1.016 -2.01,-1.016 -3.285,-3.459 -1.989,-3.653 -1.989,-10.656 m 3.675,-0.541 q 0,6.68 0.475,9.338 0.541,2.875 2.011,4.129 1.491,1.232 3.134,1.232 1.772,0 3.242,-1.319 1.492,-1.34 1.946,-4.215 0.497,-2.831 0.475,-9.165 0,-6.16 -0.432,-8.624 -0.584,-2.875 -2.14,-4.021 -1.535,-1.167 -3.091,-1.167 -0.584,0 -1.211,0.173 -0.605,0.173 -1.491,0.67 -0.886,0.497 -1.578,1.729 -0.67,1.233 -0.994,3.091 -0.346,2.4 -0.346,8.149 z"
     id="path198"
     inkscape:connector-curvature="0"
     style="fill:#000000;fill-opacity:1;fill-rule:evenodd"
     transform="translate(-21.5879,-42.9312)" />
  <path
     clip-path="url(#clip050)"
     d="m 847.497,374.277 q 0,-6.506 1.643,-10.051 2.291,-5.275 7.695,-5.275 1.146,0 2.335,0.325 1.21,0.302 2.723,1.491 1.535,1.189 2.464,3.134 1.773,3.762 1.773,10.376 0,6.463 -1.643,9.986 -2.399,5.145 -7.695,5.145 -1.989,0 -4.02,-1.016 -2.011,-1.016 -3.286,-3.459 -1.989,-3.653 -1.989,-10.656 m 3.675,-0.541 q 0,6.68 0.476,9.338 0.54,2.875 2.01,4.129 1.491,1.232 3.134,1.232 1.773,0 3.242,-1.319 1.492,-1.34 1.946,-4.215 0.497,-2.831 0.475,-9.165 0,-6.16 -0.432,-8.624 -0.584,-2.875 -2.14,-4.021 -1.535,-1.167 -3.091,-1.167 -0.584,0 -1.21,0.173 -0.606,0.173 -1.492,0.67 -0.886,0.497 -1.578,1.729 -0.67,1.233 -0.994,3.091 -0.346,2.4 -0.346,8.149 z"
     id="path200"
     inkscape:connector-curvature="0"
     style="fill:#000000;fill-opacity:1;fill-rule:evenodd"
     transform="translate(-21.5879,-42.9312)" />
  <path
     clip-path="url(#clip050)"
     d="m 786.953,297.736 q 0.259,0.259 0.259,0.627 0,0.367 -0.259,0.627 -0.26,0.259 -0.627,0.259 h -27.711 q -0.368,0 -0.627,-0.259 -0.259,-0.26 -0.259,-0.627 0,-0.368 0.259,-0.627 0.259,-0.259 0.627,-0.259 h 27.711 q 0.367,0 0.627,0.259 z"
     id="path202"
     inkscape:connector-curvature="0"
     style="fill:#000000;fill-opacity:1;fill-rule:evenodd"
     transform="translate(-21.5879,-42.9312)" />
  <path
     clip-path="url(#clip050)"
     d="m 791.405,295.272 q 0,-6.506 1.643,-10.051 2.291,-5.275 7.695,-5.275 1.146,0 2.335,0.325 1.21,0.302 2.723,1.491 1.535,1.189 2.464,3.134 1.773,3.761 1.773,10.376 0,6.463 -1.643,9.986 -2.399,5.145 -7.695,5.145 -1.989,0 -4.02,-1.016 -2.011,-1.016 -3.286,-3.459 -1.989,-3.653 -1.989,-10.656 m 3.675,-0.541 q 0,6.68 0.476,9.338 0.54,2.875 2.01,4.129 1.491,1.232 3.134,1.232 1.772,0 3.242,-1.319 1.492,-1.34 1.946,-4.215 0.497,-2.831 0.475,-9.165 0,-6.16 -0.432,-8.624 -0.584,-2.875 -2.14,-4.021 -1.535,-1.167 -3.091,-1.167 -0.584,0 -1.21,0.173 -0.606,0.173 -1.492,0.67 -0.886,0.497 -1.578,1.729 -0.67,1.232 -0.994,3.091 -0.346,2.4 -0.346,8.149 z"
     id="path204"
     inkscape:connector-curvature="0"
     style="fill:#000000;fill-opacity:1;fill-rule:evenodd"
     transform="translate(-21.5879,-42.9312)" />
  <path
     clip-path="url(#clip050)"
     d="m 816.241,308.717 q -0.67,-0.714 -0.67,-1.643 0,-0.93 0.67,-1.6 0.671,-0.691 1.687,-0.691 0.972,0 1.621,0.648 0.67,0.627 0.67,1.664 0,1.016 -0.714,1.686 -0.691,0.649 -1.577,0.649 -1.016,0 -1.687,-0.713 z"
     id="path206"
     inkscape:connector-curvature="0"
     style="fill:#000000;fill-opacity:1;fill-rule:evenodd"
     transform="translate(-21.5879,-42.9312)" />
  <path
     clip-path="url(#clip050)"
     d="m 826.595,288.614 1.449,-9.1 h 1.102 q 0.13,0.54 0.346,0.778 0.238,0.238 1.491,0.433 1.276,0.194 3.848,0.194 h 10.743 q 0,1.016 -0.389,1.556 l -5.988,8.409 q -1.902,2.659 -2.745,7.565 -0.497,3.286 -0.476,7.263 v 2.248 q 0,2.443 -2.053,2.443 -2.032,0 -2.032,-2.443 0,-8.452 5.447,-16.644 0.584,-0.843 2.724,-3.847 2.161,-3.005 2.248,-3.135 h -9.165 q -4.021,0 -4.345,0.26 -0.432,0.389 -1.102,4.02 z"
     id="path208"
     inkscape:connector-curvature="0"
     style="fill:#000000;fill-opacity:1;fill-rule:evenodd"
     transform="translate(-21.5879,-42.9312)" />
  <path
     clip-path="url(#clip050)"
     d="m 848.449,302.297 q 0,-1.319 0.713,-1.816 0.713,-0.519 1.47,-0.519 1.016,0 1.599,0.649 0.605,0.627 0.605,1.513 0,0.886 -0.605,1.535 -0.583,0.626 -1.599,0.626 -0.497,0 -0.757,-0.086 0.584,2.032 2.356,3.502 1.794,1.469 4.15,1.469 2.962,0 4.734,-2.874 1.059,-1.859 1.059,-6.074 0,-3.718 -0.799,-5.577 -1.233,-2.832 -3.762,-2.832 -3.588,0 -5.706,3.091 -0.259,0.389 -0.562,0.411 -0.432,0 -0.54,-0.238 -0.087,-0.259 -0.087,-0.929 v -13.099 q 0,-1.059 0.432,-1.059 0.173,0 0.541,0.129 2.788,1.232 5.879,1.254 3.178,0 6.031,-1.297 0.216,-0.13 0.346,-0.13 0.432,0 0.454,0.498 0,0.172 -0.368,0.691 -0.346,0.497 -1.102,1.167 -0.757,0.649 -1.729,1.276 -0.973,0.627 -2.4,1.059 -1.405,0.411 -2.961,0.411 -1.859,0 -3.761,-0.584 v 8.625 q 2.291,-2.248 5.62,-2.248 3.545,0 5.987,2.853 2.443,2.853 2.443,6.83 0,4.172 -2.897,7.025 -2.874,2.854 -6.765,2.854 -3.545,0 -5.793,-2.529 -2.226,-2.529 -2.226,-5.577 z"
     id="path210"
     inkscape:connector-curvature="0"
     style="fill:#000000;fill-opacity:1;fill-rule:evenodd"
     transform="translate(-21.5879,-42.9312)" />
  <path
     clip-path="url(#clip050)"
     d="m 786.477,218.731 q 0.259,0.259 0.259,0.627 0,0.367 -0.259,0.627 -0.259,0.259 -0.627,0.259 h -27.711 q -0.367,0 -0.627,-0.259 -0.259,-0.26 -0.259,-0.627 0,-0.368 0.259,-0.627 0.26,-0.26 0.627,-0.26 h 27.711 q 0.368,0 0.627,0.26 z"
     id="path212"
     inkscape:connector-curvature="0"
     style="fill:#000000;fill-opacity:1;fill-rule:evenodd"
     transform="translate(-21.5879,-42.9312)" />
  <path
     clip-path="url(#clip050)"
     d="m 790.93,216.267 q 0,-6.507 1.643,-10.051 2.291,-5.275 7.695,-5.275 1.145,0 2.334,0.325 1.211,0.302 2.724,1.491 1.534,1.189 2.464,3.134 1.772,3.761 1.772,10.376 0,6.463 -1.642,9.986 -2.4,5.144 -7.696,5.144 -1.988,0 -4.02,-1.015 -2.01,-1.016 -3.286,-3.459 -1.988,-3.653 -1.988,-10.656 m 3.674,-0.541 q 0,6.679 0.476,9.338 0.54,2.875 2.01,4.129 1.492,1.232 3.134,1.232 1.773,0 3.243,-1.319 1.491,-1.34 1.945,-4.215 0.497,-2.831 0.476,-9.165 0,-6.16 -0.433,-8.624 -0.583,-2.875 -2.14,-4.021 -1.534,-1.167 -3.091,-1.167 -0.583,0 -1.21,0.173 -0.605,0.173 -1.491,0.67 -0.887,0.497 -1.578,1.729 -0.67,1.232 -0.995,3.091 -0.346,2.4 -0.346,8.149 z"
     id="path214"
     inkscape:connector-curvature="0"
     style="fill:#000000;fill-opacity:1;fill-rule:evenodd"
     transform="translate(-21.5879,-42.9312)" />
  <path
     clip-path="url(#clip050)"
     d="m 815.766,229.711 q -0.67,-0.713 -0.67,-1.642 0,-0.93 0.67,-1.6 0.67,-0.692 1.686,-0.692 0.973,0 1.621,0.649 0.67,0.627 0.67,1.664 0,1.016 -0.713,1.686 -0.692,0.649 -1.578,0.649 -1.016,0 -1.686,-0.714 z"
     id="path216"
     inkscape:connector-curvature="0"
     style="fill:#000000;fill-opacity:1;fill-rule:evenodd"
     transform="translate(-21.5879,-42.9312)" />
  <path
     clip-path="url(#clip050)"
     d="m 825.839,223.292 q 0,-1.319 0.713,-1.816 0.713,-0.519 1.47,-0.519 1.016,0 1.599,0.649 0.606,0.627 0.606,1.513 0,0.886 -0.606,1.534 -0.583,0.627 -1.599,0.627 -0.497,0 -0.757,-0.086 0.584,2.032 2.356,3.502 1.795,1.469 4.151,1.469 2.961,0 4.733,-2.874 1.06,-1.859 1.06,-6.074 0,-3.718 -0.8,-5.577 -1.232,-2.832 -3.761,-2.832 -3.588,0 -5.707,3.091 -0.259,0.389 -0.562,0.411 -0.432,0 -0.54,-0.238 -0.087,-0.259 -0.087,-0.929 v -13.099 q 0,-1.059 0.433,-1.059 0.173,0 0.54,0.129 2.788,1.232 5.879,1.254 3.178,0 6.031,-1.297 0.216,-0.13 0.346,-0.13 0.432,0 0.454,0.497 0,0.173 -0.368,0.692 -0.345,0.497 -1.102,1.167 -0.756,0.649 -1.729,1.276 -0.973,0.627 -2.399,1.059 -1.405,0.411 -2.962,0.411 -1.859,0 -3.761,-0.584 v 8.625 q 2.291,-2.248 5.62,-2.248 3.545,0 5.988,2.853 2.442,2.853 2.442,6.83 0,4.172 -2.896,7.025 -2.875,2.853 -6.766,2.853 -3.545,0 -5.793,-2.529 -2.226,-2.529 -2.226,-5.576 z"
     id="path218"
     inkscape:connector-curvature="0"
     style="fill:#000000;fill-opacity:1;fill-rule:evenodd"
     transform="translate(-21.5879,-42.9312)" />
  <path
     clip-path="url(#clip050)"
     d="m 847.497,216.267 q 0,-6.507 1.643,-10.051 2.291,-5.275 7.695,-5.275 1.146,0 2.335,0.325 1.21,0.302 2.723,1.491 1.535,1.189 2.464,3.134 1.773,3.761 1.773,10.376 0,6.463 -1.643,9.986 -2.399,5.144 -7.695,5.144 -1.989,0 -4.02,-1.015 -2.011,-1.016 -3.286,-3.459 -1.989,-3.653 -1.989,-10.656 m 3.675,-0.541 q 0,6.679 0.476,9.338 0.54,2.875 2.01,4.129 1.491,1.232 3.134,1.232 1.773,0 3.242,-1.319 1.492,-1.34 1.946,-4.215 0.497,-2.831 0.475,-9.165 0,-6.16 -0.432,-8.624 -0.584,-2.875 -2.14,-4.021 -1.535,-1.167 -3.091,-1.167 -0.584,0 -1.21,0.173 -0.606,0.173 -1.492,0.67 -0.886,0.497 -1.578,1.729 -0.67,1.232 -0.994,3.091 -0.346,2.4 -0.346,8.149 z"
     id="path220"
     inkscape:connector-curvature="0"
     style="fill:#000000;fill-opacity:1;fill-rule:evenodd"
     transform="translate(-21.5879,-42.9312)" />
  <path
     clip-path="url(#clip050)"
     d="m 786.953,139.726 q 0.259,0.259 0.259,0.627 0,0.367 -0.259,0.626 -0.26,0.26 -0.627,0.26 h -27.711 q -0.368,0 -0.627,-0.26 -0.259,-0.259 -0.259,-0.626 0,-0.368 0.259,-0.627 0.259,-0.26 0.627,-0.26 h 27.711 q 0.367,0 0.627,0.26 z"
     id="path222"
     inkscape:connector-curvature="0"
     style="fill:#000000;fill-opacity:1;fill-rule:evenodd"
     transform="translate(-21.5879,-42.9312)" />
  <path
     clip-path="url(#clip050)"
     d="m 791.405,137.262 q 0,-6.507 1.643,-10.052 2.291,-5.274 7.695,-5.274 1.146,0 2.335,0.324 1.21,0.303 2.723,1.492 1.535,1.189 2.464,3.134 1.773,3.761 1.773,10.376 0,6.463 -1.643,9.986 -2.399,5.144 -7.695,5.144 -1.989,0 -4.02,-1.016 -2.011,-1.015 -3.286,-3.458 -1.989,-3.653 -1.989,-10.656 m 3.675,-0.541 q 0,6.679 0.476,9.338 0.54,2.875 2.01,4.129 1.491,1.232 3.134,1.232 1.772,0 3.242,-1.319 1.492,-1.34 1.946,-4.215 0.497,-2.831 0.475,-9.165 0,-6.16 -0.432,-8.624 -0.584,-2.875 -2.14,-4.021 -1.535,-1.167 -3.091,-1.167 -0.584,0 -1.21,0.173 -0.606,0.173 -1.492,0.67 -0.886,0.497 -1.578,1.729 -0.67,1.232 -0.994,3.091 -0.346,2.4 -0.346,8.149 z"
     id="path224"
     inkscape:connector-curvature="0"
     style="fill:#000000;fill-opacity:1;fill-rule:evenodd"
     transform="translate(-21.5879,-42.9312)" />
  <path
     clip-path="url(#clip050)"
     d="m 816.241,150.706 q -0.67,-0.713 -0.67,-1.642 0,-0.93 0.67,-1.6 0.671,-0.692 1.687,-0.692 0.972,0 1.621,0.649 0.67,0.627 0.67,1.664 0,1.016 -0.714,1.686 -0.691,0.649 -1.577,0.649 -1.016,0 -1.687,-0.714 z"
     id="path226"
     inkscape:connector-curvature="0"
     style="fill:#000000;fill-opacity:1;fill-rule:evenodd"
     transform="translate(-21.5879,-42.9312)" />
  <path
     clip-path="url(#clip050)"
     d="m 826.314,151.42 q 0,-0.8 0.065,-1.038 0.087,-0.238 0.432,-0.605 l 8.495,-9.468 q 4.648,-5.231 4.648,-9.791 0,-2.962 -1.557,-5.08 -1.534,-2.118 -4.366,-2.118 -1.945,0 -3.588,1.189 -1.643,1.188 -2.399,3.307 0.129,-0.044 0.583,-0.044 1.103,0 1.708,0.692 0.627,0.692 0.627,1.621 0,1.189 -0.779,1.773 -0.756,0.562 -1.513,0.562 -0.302,0 -0.713,-0.065 -0.389,-0.065 -1.016,-0.67 -0.627,-0.627 -0.627,-1.729 0,-3.091 2.335,-5.556 2.356,-2.464 5.944,-2.464 4.064,0 6.722,2.421 2.681,2.4 2.681,6.161 0,1.318 -0.411,2.529 -0.389,1.188 -0.929,2.118 -0.519,0.929 -1.946,2.421 -1.426,1.491 -2.572,2.55 -1.146,1.06 -3.718,3.308 l -4.69,4.56 h 7.976 q 3.89,0 4.193,-0.345 0.432,-0.627 0.973,-3.934 h 1.124 l -1.254,7.695 z"
     id="path228"
     inkscape:connector-curvature="0"
     style="fill:#000000;fill-opacity:1;fill-rule:evenodd"
     transform="translate(-21.5879,-42.9312)" />
  <path
     clip-path="url(#clip050)"
     d="m 848.449,144.287 q 0,-1.319 0.713,-1.816 0.713,-0.519 1.47,-0.519 1.016,0 1.599,0.649 0.605,0.626 0.605,1.513 0,0.886 -0.605,1.534 -0.583,0.627 -1.599,0.627 -0.497,0 -0.757,-0.086 0.584,2.032 2.356,3.501 1.794,1.47 4.15,1.47 2.962,0 4.734,-2.875 1.059,-1.858 1.059,-6.073 0,-3.718 -0.799,-5.577 -1.233,-2.832 -3.762,-2.832 -3.588,0 -5.706,3.091 -0.259,0.389 -0.562,0.411 -0.432,0 -0.54,-0.238 -0.087,-0.259 -0.087,-0.929 v -13.099 q 0,-1.06 0.432,-1.06 0.173,0 0.541,0.13 2.788,1.232 5.879,1.254 3.178,0 6.031,-1.297 0.216,-0.13 0.346,-0.13 0.432,0 0.454,0.497 0,0.173 -0.368,0.692 -0.346,0.497 -1.102,1.167 -0.757,0.649 -1.729,1.276 -0.973,0.627 -2.4,1.059 -1.405,0.411 -2.961,0.411 -1.859,0 -3.761,-0.584 v 8.624 q 2.291,-2.248 5.62,-2.248 3.545,0 5.987,2.854 2.443,2.853 2.443,6.83 0,4.172 -2.897,7.025 -2.874,2.853 -6.765,2.853 -3.545,0 -5.793,-2.529 -2.226,-2.529 -2.226,-5.576 z"
     id="path230"
     inkscape:connector-curvature="0"
     style="fill:#000000;fill-opacity:1;fill-rule:evenodd"
     transform="translate(-21.5879,-42.9312)" />
  <path
     clip-path="url(#clip050)"
     d="m 790.93,58.2565 q 0,-6.5062 1.643,-10.0511 2.291,-5.2742 7.695,-5.2742 1.145,0 2.334,0.3242 1.211,0.3026 2.724,1.4915 1.534,1.1888 2.464,3.1342 1.772,3.7611 1.772,10.3754 0,6.4631 -1.642,9.9864 -2.4,5.1444 -7.696,5.1444 -1.988,0 -4.02,-1.0159 -2.01,-1.0159 -3.286,-3.4584 -1.988,-3.6531 -1.988,-10.6565 m 3.674,-0.5403 q 0,6.6791 0.476,9.3378 0.54,2.8749 2.01,4.1286 1.492,1.2321 3.134,1.2321 1.773,0 3.243,-1.3186 1.491,-1.3401 1.945,-4.215 0.497,-2.8316 0.476,-9.1649 0,-6.1604 -0.433,-8.6246 -0.583,-2.8749 -2.14,-4.0205 -1.534,-1.1672 -3.091,-1.1672 -0.583,0 -1.21,0.1729 -0.605,0.1729 -1.491,0.6701 -0.887,0.4971 -1.578,1.7292 -0.67,1.2321 -0.995,3.091 -0.346,2.3993 -0.346,8.1491 z"
     id="path232"
     inkscape:connector-curvature="0"
     style="fill:#000000;fill-opacity:1;fill-rule:evenodd"
     transform="translate(-21.5879,-42.9312)" />
  <path
     clip-path="url(#clip050)"
     d="m 815.766,71.7013 q -0.67,-0.7133 -0.67,-1.6427 0,-0.9295 0.67,-1.5996 0.67,-0.6917 1.686,-0.6917 0.973,0 1.621,0.6485 0.67,0.6268 0.67,1.6644 0,1.0159 -0.713,1.686 -0.692,0.6485 -1.578,0.6485 -1.016,0 -1.686,-0.7134 z"
     id="path234"
     inkscape:connector-curvature="0"
     style="fill:#000000;fill-opacity:1;fill-rule:evenodd"
     transform="translate(-21.5879,-42.9312)" />
  <path
     clip-path="url(#clip050)"
     d="m 825.363,58.2565 q 0,-6.5062 1.643,-10.0511 2.291,-5.2742 7.695,-5.2742 1.146,0 2.335,0.3242 1.21,0.3026 2.723,1.4915 1.535,1.1888 2.464,3.1342 1.773,3.7611 1.773,10.3754 0,6.4631 -1.643,9.9864 -2.399,5.1444 -7.695,5.1444 -1.989,0 -4.021,-1.0159 -2.01,-1.0159 -3.285,-3.4584 -1.989,-3.6531 -1.989,-10.6565 m 3.675,-0.5403 q 0,6.6791 0.475,9.3378 0.541,2.8749 2.011,4.1286 1.491,1.2321 3.134,1.2321 1.772,0 3.242,-1.3186 1.492,-1.3401 1.946,-4.215 0.497,-2.8316 0.475,-9.1649 0,-6.1604 -0.432,-8.6246 -0.584,-2.8749 -2.14,-4.0205 -1.535,-1.1672 -3.091,-1.1672 -0.584,0 -1.211,0.1729 -0.605,0.1729 -1.491,0.6701 -0.886,0.4971 -1.578,1.7292 -0.67,1.2321 -0.994,3.091 -0.346,2.3993 -0.346,8.1491 z"
     id="path236"
     inkscape:connector-curvature="0"
     style="fill:#000000;fill-opacity:1;fill-rule:evenodd"
     transform="translate(-21.5879,-42.9312)" />
  <path
     clip-path="url(#clip050)"
     d="m 847.497,58.2565 q 0,-6.5062 1.643,-10.0511 2.291,-5.2742 7.695,-5.2742 1.146,0 2.335,0.3242 1.21,0.3026 2.723,1.4915 1.535,1.1888 2.464,3.1342 1.773,3.7611 1.773,10.3754 0,6.4631 -1.643,9.9864 -2.399,5.1444 -7.695,5.1444 -1.989,0 -4.02,-1.0159 -2.011,-1.0159 -3.286,-3.4584 -1.989,-3.6531 -1.989,-10.6565 m 3.675,-0.5403 q 0,6.6791 0.476,9.3378 0.54,2.8749 2.01,4.1286 1.491,1.2321 3.134,1.2321 1.773,0 3.242,-1.3186 1.492,-1.3401 1.946,-4.215 0.497,-2.8316 0.475,-9.1649 0,-6.1604 -0.432,-8.6246 -0.584,-2.8749 -2.14,-4.0205 -1.535,-1.1672 -3.091,-1.1672 -0.584,0 -1.21,0.1729 -0.606,0.1729 -1.492,0.6701 -0.886,0.4971 -1.578,1.7292 -0.67,1.2321 -0.994,3.091 -0.346,2.3993 -0.346,8.1491 z"
     id="path238"
     inkscape:connector-curvature="0"
     style="fill:#000000;fill-opacity:1;fill-rule:evenodd"
     transform="translate(-21.5879,-42.9312)" />
  <path
     clip-path="url(#clip050)"
     d="m 691.178,271.801 q 0.308,0 0.758,0.225 0.41,0.205 0.677,0.636 0.246,0.409 0.246,0.86 0,0.144 -0.082,0.472 -0.246,0.553 -0.8,1.414 -0.553,0.861 -0.901,1.639 -0.369,0.759 -0.41,1.599 0,0.738 0.266,1.353 0.308,0.553 0.963,0.922 0.267,0.164 0.718,0.164 0.635,0 1.475,-0.349 0.841,-0.348 1.927,-1.065 1.086,-0.738 1.824,-1.271 0.717,-0.533 1.906,-1.455 0.102,-0.082 0.164,-0.123 0.041,-0.041 0.143,-0.103 0.082,-0.061 0.144,-0.122 2.439,-1.947 5.123,-2.439 0.943,-0.123 1.927,-0.123 1.967,0 4.283,0.594 2.111,0.512 3.935,1.599 1.804,1.086 2.993,2.725 1.188,1.619 1.188,3.382 0,1.742 -0.758,3.177 -0.779,1.434 -2.111,2.295 -1.763,1.168 -4.201,1.168 -1.374,0 -2.542,-0.328 -1.865,-0.451 -3.586,-1.516 -1.722,-1.066 -3.054,-2.603 -1.968,-2.336 -2.521,-4.878 -2.254,1.189 -3.996,1.886 -1.763,0.676 -3.259,0.676 -1.312,0 -2.152,-0.492 -0.902,-0.43 -1.414,-1.311 -0.451,-0.738 -0.676,-1.804 -0.082,-0.656 -0.082,-1.086 0,-1.455 0.799,-4.837 0.205,-0.881 1.086,-0.881 m 17.749,5.123 q -1.251,0 -2.091,0.205 -2.049,0.39 -4.878,1.947 l -0.205,0.123 q 0.574,1.988 2.316,3.607 2.132,2.029 6.169,3.054 2.255,0.553 3.525,0.553 1.373,0 2.562,-0.512 1.107,-0.492 1.742,-1.414 0.635,-0.943 0.635,-2.193 0,-0.943 -0.532,-1.763 -0.554,-0.819 -1.517,-1.414 -0.963,-0.594 -2.008,-1.004 -1.066,-0.43 -2.316,-0.758 -1.681,-0.431 -3.402,-0.431 z"
     id="path240"
     inkscape:connector-curvature="0"
     style="fill:#000000;fill-opacity:1;fill-rule:evenodd"
     transform="translate(-21.5879,-42.9312)" />
  <path
     clip-path="url(#clip050)"
     d="m 708.168,248.513 q 2.07,0 4.14,1.065 2.07,1.066 3.669,2.808 1.578,1.742 2.602,4.119 1.025,2.378 1.107,4.858 l 6.251,1.598 q 1.517,0.308 1.681,0.472 0.164,0.164 0.164,0.41 0,0.512 -0.472,0.512 -0.143,0 -3.689,-0.922 l -3.935,-0.984 q -0.205,3.73 -2.357,5.902 -2.152,2.173 -5.246,2.173 -2.091,0 -4.161,-1.066 -2.09,-1.086 -3.668,-2.828 -1.578,-1.763 -2.583,-4.14 -1.004,-2.377 -1.086,-4.816 l -9.694,-2.439 q -0.553,-0.123 -0.697,-0.226 -0.143,-0.102 -0.143,-0.41 0,-0.225 0.102,-0.348 0.103,-0.123 0.205,-0.123 l 0.103,-0.02 0.594,0.123 9.53,2.356 q 0.144,-2.09 0.881,-3.709 0.738,-1.619 1.845,-2.541 1.086,-0.923 2.316,-1.374 1.23,-0.45 2.541,-0.45 m -6.661,9.407 q 0.205,2.254 1.312,4.16 1.107,1.906 2.746,3.136 1.619,1.229 3.566,1.906 1.927,0.676 3.833,0.676 1.496,0 2.644,-0.492 1.147,-0.512 1.803,-1.352 0.636,-0.841 0.984,-1.763 0.328,-0.943 0.369,-1.947 l -17.257,-4.324 m 5.78,-6.661 q -2.664,0 -4.16,1.537 -1.497,1.537 -1.62,4.037 l 17.257,4.325 q -0.144,-1.824 -0.902,-3.423 -0.779,-1.619 -1.926,-2.787 -1.169,-1.168 -2.603,-2.009 -1.455,-0.84 -2.992,-1.25 -1.558,-0.43 -3.054,-0.43 z"
     id="path242"
     inkscape:connector-curvature="0"
     style="fill:#000000;fill-opacity:1;fill-rule:evenodd"
     transform="translate(-21.5879,-42.9312)" />
  <path
     clip-path="url(#clip050)"
     d="m 737.933,244.251 q -0.947,0 -1.765,-0.717 -0.818,-0.732 -1.176,-1.995 -0.818,1.292 -2.611,1.292 -1.377,0 -2.439,-0.904 -1.148,1.377 -3.027,1.377 -1.736,0 -3.013,-1.377 -1.277,-1.377 -1.277,-3.386 0,-1.765 1.062,-3.113 -1.377,-1.406 -1.392,-3.113 0,-0.761 0.474,-1.119 0.473,-0.373 0.975,-0.373 0.445,0 0.66,0.287 0.215,0.272 0.215,0.559 0,0.359 -0.229,0.617 -0.244,0.244 -0.617,0.244 -0.617,0 -0.803,-0.473 -0.029,0.086 -0.029,0.286 0,1.435 1.148,2.655 1.119,-1.206 2.855,-1.206 1.735,0 3.012,1.378 1.277,1.377 1.277,3.371 0,1.65 -0.918,2.912 0.588,0.502 1.392,0.502 0.731,0 1.305,-0.444 0.574,-0.445 0.66,-1.119 0.029,-0.201 0.029,-2.195 0,-1.177 0.028,-1.822 0.029,-0.646 0.23,-1.564 0.186,-0.932 0.559,-1.664 1.062,-1.908 3.357,-1.923 1.679,0 2.726,1.937 1.062,1.923 1.062,4.591 0,2.697 -1.076,4.605 -1.062,1.894 -2.654,1.894 m 0,-1.535 q 1.205,0 2.123,-1.42 0.933,-1.421 0.933,-3.573 0,-2.109 -0.919,-3.529 -0.903,-1.434 -2.137,-1.434 -0.875,0 -1.435,0.502 -0.559,0.502 -0.789,1.535 -0.215,1.018 -0.258,1.736 -0.043,0.717 -0.043,2.037 v 1.736 q 0.057,1.004 0.789,1.707 0.732,0.703 1.736,0.703 m -10.989,-1.607 q 3.615,0 3.615,-2.568 0,-1.291 -1.177,-2.08 -0.789,-0.474 -2.467,-0.474 -3.615,0 -3.615,2.554 0,1.291 1.176,2.095 0.789,0.473 2.468,0.473 z"
     id="path244"
     inkscape:connector-curvature="0"
     style="fill:#000000;fill-opacity:1;fill-rule:evenodd"
     transform="translate(-21.5879,-42.9312)" />
  <path
     clip-path="url(#clip050)"
     d="m 729.073,225.221 q -0.205,0 -0.656,-0.164 l -39.596,-14.818 q -0.041,0 -0.266,-0.102 -0.226,-0.103 -0.369,-0.164 -0.164,-0.062 -0.287,-0.185 -0.123,-0.143 -0.123,-0.307 0,-0.41 0.512,-0.41 0.041,0 0.533,0.123 l 39.637,14.859 q 0.717,0.246 0.922,0.409 0.205,0.144 0.205,0.39 0,0.369 -0.512,0.369 z"
     id="path246"
     inkscape:connector-curvature="0"
     style="fill:#000000;fill-opacity:1;fill-rule:evenodd"
     transform="translate(-21.5879,-42.9312)" />
  <path
     clip-path="url(#clip050)"
     d="m 719.174,204.435 q -0.758,0 -0.984,-0.062 -0.225,-0.081 -0.574,-0.409 l -8.976,-8.055 q -4.96,-4.406 -9.284,-4.406 -2.808,0 -4.817,1.475 -2.008,1.456 -2.008,4.14 0,1.845 1.127,3.403 1.127,1.557 3.136,2.274 -0.041,-0.123 -0.041,-0.553 0,-1.045 0.656,-1.619 0.655,-0.594 1.537,-0.594 1.127,0 1.68,0.737 0.533,0.718 0.533,1.435 0,0.287 -0.061,0.676 -0.062,0.369 -0.636,0.964 -0.594,0.594 -1.639,0.594 -2.931,0 -5.267,-2.213 -2.337,-2.234 -2.337,-5.636 0,-3.853 2.296,-6.374 2.274,-2.542 5.841,-2.542 1.25,0 2.397,0.39 1.128,0.369 2.009,0.881 0.881,0.492 2.295,1.845 1.414,1.352 2.419,2.438 1.004,1.087 3.135,3.525 l 4.325,4.448 v -7.563 q 0,-3.689 -0.328,-3.976 -0.595,-0.41 -3.73,-0.922 v -1.066 l 7.296,1.189 z"
     id="path248"
     inkscape:connector-curvature="0"
     style="fill:#000000;fill-opacity:1;fill-rule:evenodd"
     transform="translate(-21.5879,-42.9312)" />
  <path
     clip-path="url(#clip050)"
     d="m 702.081,161.654 q 1.435,0 1.435,2.05 v 4.795 q 3.402,0.738 6.681,0.738 3.915,0 6.927,-1.209 0.595,-0.246 0.923,-0.246 0.614,0 1.106,0.553 0.492,0.533 0.492,1.169 0,0.532 -0.41,0.881 -0.41,0.328 -1.701,0.615 -1.516,0.348 -3.197,0.348 -2.008,0 -3.935,-0.328 -1.947,-0.328 -6.886,-1.434 v 4.734 l 9.284,2.357 q 3.136,0.84 4.099,1.127 0.574,0.184 0.758,0.246 0.185,0.061 0.636,0.246 0.43,0.164 0.594,0.287 0.143,0.123 0.369,0.328 0.246,0.205 0.307,0.45 0.082,0.246 0.082,0.554 0,0.471 -0.307,0.84 -0.287,0.369 -0.841,0.369 -0.368,0 -1.004,-0.328 -8.403,-3.894 -13.977,-5.37 v 2.378 q 0,3.279 3.238,5.328 0.43,0.328 0.471,0.513 0.021,0.082 0.021,0.164 0,0.225 -0.103,0.369 -0.102,0.123 -0.204,0.123 l -0.103,0.02 q -0.123,0 -0.676,-0.307 -0.574,-0.328 -1.455,-0.943 -0.882,-0.635 -1.64,-1.312 -0.697,-0.655 -1.127,-1.291 -0.451,-0.656 -0.615,-1.27 -0.164,-0.615 -0.205,-0.964 -0.041,-0.348 -0.041,-0.84 v -14.059 q 0,-0.533 0.041,-0.82 0.021,-0.287 0.266,-0.574 0.226,-0.287 0.697,-0.287 z"
     id="path250"
     inkscape:connector-curvature="0"
     style="fill:#000000;fill-opacity:1;fill-rule:evenodd"
     transform="translate(-21.5879,-42.9312)" />
  <circle
     clip-path="url(#clip052)"
     cx="900.30798"
     cy="57.294701"
     r="10"
     id="circle252"
     style="fill:#000000;fill-opacity:1;fill-rule:evenodd;stroke:none"
     transform="translate(-21.5879,-42.9312)" />
  <circle
     clip-path="url(#clip052)"
     cx="1010.13"
     cy="156.317"
     r="10"
     id="circle254"
     style="fill:#000000;fill-opacity:1;fill-rule:evenodd;stroke:none"
     transform="translate(-21.5879,-42.9312)" />
  <circle
     clip-path="url(#clip052)"
     cx="1119.9399"
     cy="229.632"
     r="10"
     id="circle256"
     style="fill:#000000;fill-opacity:1;fill-rule:evenodd;stroke:none"
     transform="translate(-21.5879,-42.9312)" />
  <circle
     clip-path="url(#clip052)"
     cx="1229.76"
     cy="305.60699"
     r="10"
     id="circle258"
     style="fill:#000000;fill-opacity:1;fill-rule:evenodd;stroke:none"
     transform="translate(-21.5879,-42.9312)" />
  <circle
     clip-path="url(#clip052)"
     cx="1339.58"
     cy="388.29599"
     r="10"
     id="circle260"
     style="fill:#000000;fill-opacity:1;fill-rule:evenodd;stroke:none"
     transform="translate(-21.5879,-42.9312)" />
  <polyline
     clip-path="url(#clip052)"
     style="fill:none;stroke:#000000;stroke-width:5.5999999;stroke-linecap:butt;stroke-linejoin:round;stroke-dasharray:3, 6;stroke-opacity:1"
     points="   900.308,57.2947 1010.13,141.049 1119.94,224.804 1229.76,308.559 1339.58,392.313    "
     id="polyline262"
     transform="translate(-21.5879,-42.9312)" />
</svg>
